<?xml version="1.0" encoding="utf-8" standalone="no"?>
<!DOCTYPE svg PUBLIC "-//W3C//DTD SVG 1.1//EN"
  "http://www.w3.org/Graphics/SVG/1.1/DTD/svg11.dtd">
<svg height="262.19625pt" version="1.1" viewBox="0 0 394.160938 262.19625" width="394.160938pt" xmlns="http://www.w3.org/2000/svg" xmlns:xlink="http://www.w3.org/1999/xlink">
 <metadata>
  <rdf:RDF xmlns:cc="http://creativecommons.org/ns#" xmlns:dc="http://purl.org/dc/elements/1.1/" xmlns:rdf="http://www.w3.org/1999/02/22-rdf-syntax-ns#">
   <cc:Work>
    <dc:type rdf:resource="http://purl.org/dc/dcmitype/StillImage"/>
    <dc:date>2021-08-28T11:36:08.192723</dc:date>
    <dc:format>image/svg+xml</dc:format>
    <dc:creator>
     <cc:Agent>
      <dc:title>Matplotlib v3.4.3, https://matplotlib.org/</dc:title>
     </cc:Agent>
    </dc:creator>
   </cc:Work>
  </rdf:RDF>
 </metadata>
 <defs>
  <style type="text/css">*{stroke-linecap:butt;stroke-linejoin:round;}</style>
 </defs>
 <g id="figure_1">
  <g id="patch_1">
   <path d="M 0 262.19625 
L 394.160938 262.19625 
L 394.160938 0 
L 0 0 
z
" style="fill:none;"/>
  </g>
  <g id="axes_1">
   <g id="patch_2">
    <path d="M 52.160938 224.64 
L 386.960938 224.64 
L 386.960938 7.2 
L 52.160938 7.2 
z
" style="fill:#ffffff;"/>
   </g>
   <g id="matplotlib.axis_1">
    <g id="xtick_1">
     <g id="line2d_1">
      <defs>
       <path d="M 0 0 
L 0 3.5 
" id="m39c29de8d3" style="stroke:#000000;stroke-width:0.8;"/>
      </defs>
      <g>
       <use style="stroke:#000000;stroke-width:0.8;" x="67.379119" xlink:href="#m39c29de8d3" y="224.64"/>
      </g>
     </g>
     <g id="text_1">
      <!-- 0 -->
      <g transform="translate(64.197869 239.238437)scale(0.1 -0.1)">
       <defs>
        <path d="M 2034 4250 
Q 1547 4250 1301 3770 
Q 1056 3291 1056 2328 
Q 1056 1369 1301 889 
Q 1547 409 2034 409 
Q 2525 409 2770 889 
Q 3016 1369 3016 2328 
Q 3016 3291 2770 3770 
Q 2525 4250 2034 4250 
z
M 2034 4750 
Q 2819 4750 3233 4129 
Q 3647 3509 3647 2328 
Q 3647 1150 3233 529 
Q 2819 -91 2034 -91 
Q 1250 -91 836 529 
Q 422 1150 422 2328 
Q 422 3509 836 4129 
Q 1250 4750 2034 4750 
z
" id="DejaVuSans-30" transform="scale(0.015625)"/>
       </defs>
       <use xlink:href="#DejaVuSans-30"/>
      </g>
     </g>
    </g>
    <g id="xtick_2">
     <g id="line2d_2">
      <g>
       <use style="stroke:#000000;stroke-width:0.8;" x="128.257934" xlink:href="#m39c29de8d3" y="224.64"/>
      </g>
     </g>
     <g id="text_2">
      <!-- 50 -->
      <g transform="translate(121.895434 239.238437)scale(0.1 -0.1)">
       <defs>
        <path d="M 691 4666 
L 3169 4666 
L 3169 4134 
L 1269 4134 
L 1269 2991 
Q 1406 3038 1543 3061 
Q 1681 3084 1819 3084 
Q 2600 3084 3056 2656 
Q 3513 2228 3513 1497 
Q 3513 744 3044 326 
Q 2575 -91 1722 -91 
Q 1428 -91 1123 -41 
Q 819 9 494 109 
L 494 744 
Q 775 591 1075 516 
Q 1375 441 1709 441 
Q 2250 441 2565 725 
Q 2881 1009 2881 1497 
Q 2881 1984 2565 2268 
Q 2250 2553 1709 2553 
Q 1456 2553 1204 2497 
Q 953 2441 691 2322 
L 691 4666 
z
" id="DejaVuSans-35" transform="scale(0.015625)"/>
       </defs>
       <use xlink:href="#DejaVuSans-35"/>
       <use x="63.623047" xlink:href="#DejaVuSans-30"/>
      </g>
     </g>
    </g>
    <g id="xtick_3">
     <g id="line2d_3">
      <g>
       <use style="stroke:#000000;stroke-width:0.8;" x="189.13675" xlink:href="#m39c29de8d3" y="224.64"/>
      </g>
     </g>
     <g id="text_3">
      <!-- 100 -->
      <g transform="translate(179.593 239.238437)scale(0.1 -0.1)">
       <defs>
        <path d="M 794 531 
L 1825 531 
L 1825 4091 
L 703 3866 
L 703 4441 
L 1819 4666 
L 2450 4666 
L 2450 531 
L 3481 531 
L 3481 0 
L 794 0 
L 794 531 
z
" id="DejaVuSans-31" transform="scale(0.015625)"/>
       </defs>
       <use xlink:href="#DejaVuSans-31"/>
       <use x="63.623047" xlink:href="#DejaVuSans-30"/>
       <use x="127.246094" xlink:href="#DejaVuSans-30"/>
      </g>
     </g>
    </g>
    <g id="xtick_4">
     <g id="line2d_4">
      <g>
       <use style="stroke:#000000;stroke-width:0.8;" x="250.015565" xlink:href="#m39c29de8d3" y="224.64"/>
      </g>
     </g>
     <g id="text_4">
      <!-- 150 -->
      <g transform="translate(240.471815 239.238437)scale(0.1 -0.1)">
       <use xlink:href="#DejaVuSans-31"/>
       <use x="63.623047" xlink:href="#DejaVuSans-35"/>
       <use x="127.246094" xlink:href="#DejaVuSans-30"/>
      </g>
     </g>
    </g>
    <g id="xtick_5">
     <g id="line2d_5">
      <g>
       <use style="stroke:#000000;stroke-width:0.8;" x="310.89438" xlink:href="#m39c29de8d3" y="224.64"/>
      </g>
     </g>
     <g id="text_5">
      <!-- 200 -->
      <g transform="translate(301.35063 239.238437)scale(0.1 -0.1)">
       <defs>
        <path d="M 1228 531 
L 3431 531 
L 3431 0 
L 469 0 
L 469 531 
Q 828 903 1448 1529 
Q 2069 2156 2228 2338 
Q 2531 2678 2651 2914 
Q 2772 3150 2772 3378 
Q 2772 3750 2511 3984 
Q 2250 4219 1831 4219 
Q 1534 4219 1204 4116 
Q 875 4013 500 3803 
L 500 4441 
Q 881 4594 1212 4672 
Q 1544 4750 1819 4750 
Q 2544 4750 2975 4387 
Q 3406 4025 3406 3419 
Q 3406 3131 3298 2873 
Q 3191 2616 2906 2266 
Q 2828 2175 2409 1742 
Q 1991 1309 1228 531 
z
" id="DejaVuSans-32" transform="scale(0.015625)"/>
       </defs>
       <use xlink:href="#DejaVuSans-32"/>
       <use x="63.623047" xlink:href="#DejaVuSans-30"/>
       <use x="127.246094" xlink:href="#DejaVuSans-30"/>
      </g>
     </g>
    </g>
    <g id="xtick_6">
     <g id="line2d_6">
      <g>
       <use style="stroke:#000000;stroke-width:0.8;" x="371.773195" xlink:href="#m39c29de8d3" y="224.64"/>
      </g>
     </g>
     <g id="text_6">
      <!-- 250 -->
      <g transform="translate(362.229445 239.238437)scale(0.1 -0.1)">
       <use xlink:href="#DejaVuSans-32"/>
       <use x="63.623047" xlink:href="#DejaVuSans-35"/>
       <use x="127.246094" xlink:href="#DejaVuSans-30"/>
      </g>
     </g>
    </g>
    <g id="text_7">
     <!-- $t$ -->
     <g transform="translate(217.560938 252.916562)scale(0.1 -0.1)">
      <defs>
       <path d="M 2706 3500 
L 2619 3053 
L 1472 3053 
L 1100 1153 
Q 1081 1047 1072 975 
Q 1063 903 1063 863 
Q 1063 663 1183 572 
Q 1303 481 1569 481 
L 2150 481 
L 2053 0 
L 1503 0 
Q 991 0 739 200 
Q 488 400 488 806 
Q 488 878 497 964 
Q 506 1050 525 1153 
L 897 3053 
L 409 3053 
L 500 3500 
L 978 3500 
L 1172 4494 
L 1747 4494 
L 1556 3500 
L 2706 3500 
z
" id="DejaVuSans-Oblique-74" transform="scale(0.015625)"/>
      </defs>
      <use transform="translate(0 0.78125)" xlink:href="#DejaVuSans-Oblique-74"/>
     </g>
    </g>
   </g>
   <g id="matplotlib.axis_2">
    <g id="ytick_1">
     <g id="line2d_7">
      <defs>
       <path d="M 0 0 
L -3.5 0 
" id="mae1f9f0aaf" style="stroke:#000000;stroke-width:0.8;"/>
      </defs>
      <g>
       <use style="stroke:#000000;stroke-width:0.8;" x="52.160938" xlink:href="#mae1f9f0aaf" y="216.172941"/>
      </g>
     </g>
     <g id="text_8">
      <!-- −1.5 -->
      <g transform="translate(20.878125 219.97216)scale(0.1 -0.1)">
       <defs>
        <path d="M 678 2272 
L 4684 2272 
L 4684 1741 
L 678 1741 
L 678 2272 
z
" id="DejaVuSans-2212" transform="scale(0.015625)"/>
        <path d="M 684 794 
L 1344 794 
L 1344 0 
L 684 0 
L 684 794 
z
" id="DejaVuSans-2e" transform="scale(0.015625)"/>
       </defs>
       <use xlink:href="#DejaVuSans-2212"/>
       <use x="83.789062" xlink:href="#DejaVuSans-31"/>
       <use x="147.412109" xlink:href="#DejaVuSans-2e"/>
       <use x="179.199219" xlink:href="#DejaVuSans-35"/>
      </g>
     </g>
    </g>
    <g id="ytick_2">
     <g id="line2d_8">
      <g>
       <use style="stroke:#000000;stroke-width:0.8;" x="52.160938" xlink:href="#mae1f9f0aaf" y="182.731551"/>
      </g>
     </g>
     <g id="text_9">
      <!-- −1.0 -->
      <g transform="translate(20.878125 186.530769)scale(0.1 -0.1)">
       <use xlink:href="#DejaVuSans-2212"/>
       <use x="83.789062" xlink:href="#DejaVuSans-31"/>
       <use x="147.412109" xlink:href="#DejaVuSans-2e"/>
       <use x="179.199219" xlink:href="#DejaVuSans-30"/>
      </g>
     </g>
    </g>
    <g id="ytick_3">
     <g id="line2d_9">
      <g>
       <use style="stroke:#000000;stroke-width:0.8;" x="52.160938" xlink:href="#mae1f9f0aaf" y="149.29016"/>
      </g>
     </g>
     <g id="text_10">
      <!-- −0.5 -->
      <g transform="translate(20.878125 153.089379)scale(0.1 -0.1)">
       <use xlink:href="#DejaVuSans-2212"/>
       <use x="83.789062" xlink:href="#DejaVuSans-30"/>
       <use x="147.412109" xlink:href="#DejaVuSans-2e"/>
       <use x="179.199219" xlink:href="#DejaVuSans-35"/>
      </g>
     </g>
    </g>
    <g id="ytick_4">
     <g id="line2d_10">
      <g>
       <use style="stroke:#000000;stroke-width:0.8;" x="52.160938" xlink:href="#mae1f9f0aaf" y="115.84877"/>
      </g>
     </g>
     <g id="text_11">
      <!-- 0.0 -->
      <g transform="translate(29.257812 119.647989)scale(0.1 -0.1)">
       <use xlink:href="#DejaVuSans-30"/>
       <use x="63.623047" xlink:href="#DejaVuSans-2e"/>
       <use x="95.410156" xlink:href="#DejaVuSans-30"/>
      </g>
     </g>
    </g>
    <g id="ytick_5">
     <g id="line2d_11">
      <g>
       <use style="stroke:#000000;stroke-width:0.8;" x="52.160938" xlink:href="#mae1f9f0aaf" y="82.407379"/>
      </g>
     </g>
     <g id="text_12">
      <!-- 0.5 -->
      <g transform="translate(29.257812 86.206598)scale(0.1 -0.1)">
       <use xlink:href="#DejaVuSans-30"/>
       <use x="63.623047" xlink:href="#DejaVuSans-2e"/>
       <use x="95.410156" xlink:href="#DejaVuSans-35"/>
      </g>
     </g>
    </g>
    <g id="ytick_6">
     <g id="line2d_12">
      <g>
       <use style="stroke:#000000;stroke-width:0.8;" x="52.160938" xlink:href="#mae1f9f0aaf" y="48.965989"/>
      </g>
     </g>
     <g id="text_13">
      <!-- 1.0 -->
      <g transform="translate(29.257812 52.765208)scale(0.1 -0.1)">
       <use xlink:href="#DejaVuSans-31"/>
       <use x="63.623047" xlink:href="#DejaVuSans-2e"/>
       <use x="95.410156" xlink:href="#DejaVuSans-30"/>
      </g>
     </g>
    </g>
    <g id="ytick_7">
     <g id="line2d_13">
      <g>
       <use style="stroke:#000000;stroke-width:0.8;" x="52.160938" xlink:href="#mae1f9f0aaf" y="15.524599"/>
      </g>
     </g>
     <g id="text_14">
      <!-- 1.5 -->
      <g transform="translate(29.257812 19.323817)scale(0.1 -0.1)">
       <use xlink:href="#DejaVuSans-31"/>
       <use x="63.623047" xlink:href="#DejaVuSans-2e"/>
       <use x="95.410156" xlink:href="#DejaVuSans-35"/>
      </g>
     </g>
    </g>
    <g id="text_15">
     <!-- $x$ -->
     <g transform="translate(14.798438 118.92)rotate(-90)scale(0.1 -0.1)">
      <defs>
       <path d="M 3841 3500 
L 2234 1784 
L 3219 0 
L 2559 0 
L 1819 1388 
L 531 0 
L -166 0 
L 1556 1844 
L 641 3500 
L 1300 3500 
L 1972 2234 
L 3144 3500 
L 3841 3500 
z
" id="DejaVuSans-Oblique-78" transform="scale(0.015625)"/>
      </defs>
      <use transform="translate(0 0.3125)" xlink:href="#DejaVuSans-Oblique-78"/>
     </g>
    </g>
   </g>
   <g id="line2d_14">
    <path clip-path="url(#pbb67324fd5)" d="M 67.379119 115.834836 
L 67.531316 114.80469 
L 67.774832 111.215545 
L 68.261862 99.724736 
L 68.809771 88.510233 
L 69.114166 85.871172 
L 69.327241 85.429545 
L 69.540317 85.514352 
L 69.692514 85.461113 
L 69.814272 85.108039 
L 69.996908 83.695274 
L 70.240424 79.481592 
L 70.544818 69.64474 
L 71.031848 44.986464 
L 71.579758 19.950232 
L 71.792833 17.083636 
L 71.853712 17.261545 
L 71.97547 18.953679 
L 72.188546 25.7998 
L 72.614697 48.608835 
L 73.253925 80.099857 
L 73.588758 87.516221 
L 73.801834 88.650352 
L 73.893153 88.414122 
L 74.075789 86.933672 
L 74.53238 80.465438 
L 74.928092 76.396022 
L 75.141168 75.904099 
L 75.262926 76.148823 
L 75.506441 77.398461 
L 75.902153 79.175604 
L 75.993472 79.072136 
L 76.115229 78.417353 
L 76.297866 76.092775 
L 76.57182 69.136766 
L 76.967533 52.273276 
L 77.698078 21.071188 
L 77.880715 19.312839 
L 77.941594 19.55763 
L 78.093791 21.972768 
L 78.337306 30.523062 
L 79.646201 85.372561 
L 79.828837 86.296479 
L 79.920155 86.067138 
L 80.102792 84.474124 
L 80.468065 78.545568 
L 80.985535 70.877256 
L 81.22905 69.586954 
L 81.320368 69.527027 
L 81.350807 69.551171 
L 81.503004 69.933072 
L 81.959596 71.432183 
L 81.990035 71.41379 
L 82.111793 71.028813 
L 82.294429 69.293539 
L 82.537944 64.34 
L 82.903217 51.150514 
L 83.725081 19.142957 
L 83.846839 18.248066 
L 83.877278 18.282176 
L 83.968596 19.016549 
L 84.151233 23.244878 
L 84.455627 36.947153 
L 85.551446 91.738531 
L 85.85584 96.545998 
L 86.008037 97.022337 
L 86.038476 96.987625 
L 86.160234 96.483329 
L 86.403749 94.208913 
L 87.012537 88.283099 
L 87.164734 88.023192 
L 87.256052 88.19381 
L 87.438689 89.214843 
L 87.834401 93.306731 
L 88.199674 96.12069 
L 88.290992 96.194261 
L 88.321432 96.140889 
L 88.443189 95.494668 
L 88.625826 93.095582 
L 88.89978 86.064864 
L 89.325932 68.103293 
L 90.117357 34.10196 
L 90.360872 30.616698 
L 90.421751 30.48427 
L 90.45219 30.525069 
L 90.573948 31.361772 
L 90.787024 34.990163 
L 91.730645 53.81994 
L 91.791524 53.91371 
L 91.821964 53.890033 
L 91.943721 53.343333 
L 92.156797 50.875626 
L 93.0091 39.131545 
L 93.100419 39.417135 
L 93.252616 40.961458 
L 93.52657 46.825071 
L 94.622389 74.782676 
L 94.713707 74.94306 
L 94.744147 74.881863 
L 94.865904 74.067431 
L 95.07898 70.565649 
L 95.444253 59.907209 
L 96.144359 39.716769 
L 96.357435 38.042693 
L 96.418314 38.094193 
L 96.540072 38.869365 
L 96.753148 42.06168 
L 97.696769 58.632892 
L 97.757648 58.597176 
L 97.879406 57.918784 
L 98.092482 54.896953 
L 98.488194 45.077424 
L 98.975224 34.517302 
L 99.127421 33.614384 
L 99.157861 33.62241 
L 99.249179 34.039759 
L 99.431815 36.611402 
L 99.73621 45.197813 
L 100.649392 73.631021 
L 100.862468 75.05937 
L 100.923346 74.94694 
L 101.045104 74.047299 
L 101.25818 70.505923 
L 101.684332 58.516114 
L 102.232241 44.592524 
L 102.475756 42.602093 
L 102.536635 42.611456 
L 102.658393 43.198687 
L 102.871469 45.740233 
L 103.662893 56.802912 
L 103.723772 56.845516 
L 103.754211 56.796424 
L 103.875969 56.119905 
L 104.089045 53.125897 
L 104.454318 43.928378 
L 105.002227 30.990573 
L 105.154424 30.061571 
L 105.184864 30.080967 
L 105.276182 30.569211 
L 105.458818 33.463229 
L 105.763212 43.137155 
L 106.798152 80.006154 
L 107.011228 81.575291 
L 107.072107 81.502589 
L 107.193864 80.698725 
L 107.40694 77.415784 
L 107.833092 66.35384 
L 108.411441 52.943642 
L 108.685395 50.796972 
L 108.776714 50.750555 
L 108.807153 50.799447 
L 108.95935 51.439849 
L 109.568138 55.041019 
L 109.629017 54.969388 
L 109.750775 54.370118 
L 109.963851 51.704505 
L 110.268245 44.48083 
L 111.02923 24.712955 
L 111.150987 24.254808 
L 111.181427 24.338412 
L 111.303184 25.49749 
L 111.51626 30.636763 
L 111.881533 46.680604 
L 112.794715 89.399372 
L 113.099109 95.138383 
L 113.281746 95.955423 
L 113.373064 95.705148 
L 113.555701 94.114943 
L 113.920974 88.257081 
L 114.468883 80.255627 
L 114.712398 79.047456 
L 114.803716 79.002444 
L 114.834156 79.029465 
L 114.986353 79.410228 
L 115.442944 80.785539 
L 115.534262 80.601812 
L 115.686459 79.591347 
L 115.899535 76.312485 
L 116.203929 67.251808 
L 116.69096 43.949781 
L 117.238869 20.672566 
L 117.451945 18.350396 
L 117.543263 18.955685 
L 117.725899 22.968652 
L 118.030294 36.24154 
L 119.004355 82.923447 
L 119.308749 87.688578 
L 119.430506 88.032021 
L 119.460946 87.994499 
L 119.582703 87.4068 
L 119.826219 84.596654 
L 120.648083 73.715828 
L 120.830719 73.289852 
L 120.922037 73.394256 
L 121.104674 74.058335 
L 121.530825 75.699237 
L 121.622144 75.589416 
L 121.774341 74.696798 
L 121.987417 71.580127 
L 122.291811 62.798552 
L 122.778841 40.437097 
L 123.265872 20.915351 
L 123.478947 18.449383 
L 123.539826 18.680128 
L 123.661584 20.407711 
L 123.87466 27.156852 
L 124.300811 49.718354 
L 124.970478 83.075405 
L 125.305312 90.739503 
L 125.518388 92.060973 
L 125.579267 91.997033 
L 125.701024 91.375892 
L 125.944539 88.670484 
L 126.675085 79.809585 
L 126.857722 79.377924 
L 126.94904 79.495838 
L 127.131676 80.258904 
L 127.679586 82.937359 
L 127.770904 82.767276 
L 127.923101 81.696282 
L 128.136177 78.204934 
L 128.440571 68.750384 
L 128.958041 43.576575 
L 129.475511 22.380084 
L 129.688587 20.182984 
L 129.779905 20.777572 
L 129.962541 24.612631 
L 130.266935 37.093627 
L 131.149678 76.312954 
L 131.423633 80.596528 
L 131.54539 80.988662 
L 131.57583 80.95308 
L 131.697588 80.32485 
L 131.910663 77.675222 
L 132.945603 62.224898 
L 133.067361 62.111532 
L 133.0978 62.146913 
L 133.249997 62.628202 
L 133.767467 64.840416 
L 133.797907 64.824565 
L 133.889225 64.577968 
L 134.041422 63.390063 
L 134.284937 59.11806 
L 134.619771 48.479082 
L 135.441635 20.497333 
L 135.532953 19.936856 
L 135.593832 20.041862 
L 135.715589 21.425666 
L 135.928665 27.440435 
L 136.293938 45.588409 
L 137.146241 89.262196 
L 137.481075 96.797812 
L 137.694151 98.191849 
L 137.75503 98.172387 
L 137.876787 97.67217 
L 138.120303 95.331607 
L 138.789969 88.521068 
L 138.911727 88.308648 
L 138.942167 88.324298 
L 139.063924 88.654298 
L 139.277 90.126856 
L 140.007546 95.942715 
L 140.098864 95.723875 
L 140.251061 94.472097 
L 140.494576 89.890091 
L 140.82941 78.40585 
L 142.046986 30.259544 
L 142.138304 29.844871 
L 142.199183 29.937838 
L 142.320941 30.951781 
L 142.564456 35.64227 
L 143.416759 54.43593 
L 143.538517 54.8805 
L 143.568956 54.871003 
L 143.660275 54.563409 
L 143.842911 52.813889 
L 144.238623 45.904095 
L 144.634336 40.295305 
L 144.756093 39.846522 
L 144.786533 39.858561 
L 144.877851 40.208358 
L 145.060487 42.321854 
L 145.364882 49.459852 
L 146.247624 72.69921 
L 146.430261 73.66687 
L 146.521579 73.387635 
L 146.673776 71.798098 
L 146.947731 65.767011 
L 148.043549 36.914381 
L 148.104428 36.852849 
L 148.134868 36.913043 
L 148.256625 37.739046 
L 148.469701 41.143379 
L 149.474202 60.27881 
L 149.53508 60.217746 
L 149.656838 59.474946 
L 149.869914 56.3247 
L 150.296066 45.494104 
L 150.752657 35.741257 
L 150.935293 34.808911 
L 151.026611 35.186799 
L 151.209248 37.622669 
L 151.513642 45.777687 
L 152.365945 70.85786 
L 152.579021 72.337374 
L 152.6399 72.24521 
L 152.761658 71.385499 
L 152.974733 67.891007 
L 153.370446 56.807594 
L 153.948794 41.883771 
L 154.16187 40.172241 
L 154.222749 40.178261 
L 154.344507 40.825686 
L 154.557583 43.722379 
L 155.501204 59.319778 
L 155.562083 59.255571 
L 155.683841 58.518723 
L 155.896917 55.36413 
L 156.292629 45.064048 
L 156.810099 33.100725 
L 156.962296 32.186437 
L 156.992735 32.20182 
L 157.084053 32.659298 
L 157.26669 35.388785 
L 157.571084 44.405252 
L 158.484266 74.40024 
L 158.697342 76.164273 
L 158.758221 76.145345 
L 158.879978 75.429499 
L 159.093054 72.195717 
L 159.488767 61.634992 
L 160.097555 46.441833 
L 160.34107 44.565102 
L 160.401949 44.569115 
L 160.523707 45.097489 
L 160.736782 47.372172 
L 161.436889 55.942465 
L 161.497768 56.024798 
L 161.528207 55.999917 
L 161.649965 55.441781 
L 161.832601 53.210237 
L 162.136995 46.274626 
L 162.837101 29.228212 
L 162.958859 28.588812 
L 162.989299 28.606871 
L 163.080617 29.103141 
L 163.263253 32.088788 
L 163.567647 42.160666 
L 164.663466 83.302672 
L 164.876542 84.937221 
L 164.937421 84.889667 
L 165.059178 84.152485 
L 165.272254 81.055077 
L 165.698406 70.646711 
L 166.276755 58.128529 
L 166.550709 55.951294 
L 166.672467 55.785625 
L 166.702906 55.805757 
L 166.855103 56.174481 
L 167.281255 57.372218 
L 167.372573 57.179462 
L 167.52477 56.180969 
L 167.737846 53.088911 
L 168.07268 44.207279 
L 168.864104 21.711256 
L 168.955422 21.34942 
L 168.985862 21.401589 
L 169.07718 22.095163 
L 169.259816 25.889423 
L 169.564211 38.38714 
L 170.842666 98.860209 
L 171.11662 102.149638 
L 171.238378 102.37938 
L 171.268817 102.336709 
L 171.390575 101.826594 
L 171.66453 99.326783 
L 172.182 94.7621 
L 172.303757 94.53704 
L 172.334197 94.55249 
L 172.455954 94.908239 
L 172.66903 96.608734 
L 173.095182 102.643768 
L 173.521334 107.598913 
L 173.673531 107.996664 
L 173.70397 107.956468 
L 173.825728 107.36275 
L 174.008364 105.119769 
L 174.312758 97.898502 
L 174.860667 77.816813 
L 175.499895 57.127561 
L 175.865168 51.623978 
L 176.200001 49.610672 
L 176.504395 47.832995 
L 176.77835 44.480161 
L 177.143623 36.456903 
L 177.81329 21.525991 
L 177.904608 21.128038 
L 177.965487 21.234382 
L 178.087245 22.402155 
L 178.300321 27.570856 
L 178.635154 42.644229 
L 179.944049 109.653879 
L 180.278882 115.526145 
L 180.522397 116.926071 
L 180.705034 117.093412 
L 180.948549 117.17543 
L 181.100746 117.666871 
L 181.283382 119.165179 
L 181.526898 123.252359 
L 181.861731 133.262371 
L 182.409641 157.808017 
L 183.079308 185.265739 
L 183.414141 191.449721 
L 183.627217 192.520514 
L 183.718535 192.477041 
L 183.901172 191.863725 
L 184.266444 190.624388 
L 184.357763 190.683244 
L 184.50996 191.303248 
L 184.753475 193.680262 
L 185.51446 202.625834 
L 185.575339 202.527516 
L 185.697097 201.642657 
L 185.910172 197.725332 
L 186.214566 187.198651 
L 187.58434 132.183217 
L 187.797416 130.676682 
L 187.858295 130.691597 
L 187.980052 131.250068 
L 188.193128 133.625143 
L 189.258507 147.847365 
L 189.349825 147.921805 
L 189.380265 147.90047 
L 189.532462 147.509005 
L 190.049932 145.527469 
L 190.110811 145.588666 
L 190.232568 146.116706 
L 190.415205 148.1573 
L 190.65872 153.665364 
L 191.023993 168.075794 
L 191.998054 210.800247 
L 192.119812 211.579432 
L 192.150251 211.514555 
L 192.272009 210.231744 
L 192.485084 204.400903 
L 192.911236 184.348107 
L 193.520024 158.464271 
L 193.824418 153.208555 
L 193.946176 152.745993 
L 193.976615 152.76559 
L 194.067934 153.124216 
L 194.25057 155.012651 
L 194.646282 162.24502 
L 195.133313 170.071911 
L 195.376828 171.409433 
L 195.468146 171.414984 
L 195.589904 171.071073 
L 195.894298 169.208722 
L 196.198692 167.875748 
L 196.29001 167.961291 
L 196.411768 168.598283 
L 196.624844 171.413981 
L 196.929238 179.431889 
L 197.964178 210.968123 
L 198.025057 210.772825 
L 198.146814 209.236528 
L 198.35989 203.073279 
L 198.755602 183.310087 
L 199.547027 143.801759 
L 199.881861 136.394558 
L 200.094936 135.125056 
L 200.155815 135.190802 
L 200.277573 135.801174 
L 200.521088 138.441171 
L 201.251634 146.934883 
L 201.403831 147.254449 
L 201.43427 147.239333 
L 201.556028 146.937157 
L 201.799543 145.438113 
L 202.286574 142.453737 
L 202.347453 142.45153 
L 202.377892 142.503364 
L 202.49965 143.109322 
L 202.682286 145.391697 
L 202.956241 152.307978 
L 203.351953 169.21541 
L 204.173817 206.054914 
L 204.386893 208.343643 
L 204.447772 208.15102 
L 204.569529 206.674917 
L 204.813045 199.98597 
L 205.939303 162.792322 
L 206.06106 162.312906 
L 206.0915 162.330764 
L 206.182818 162.69474 
L 206.365454 164.659623 
L 206.761167 172.368331 
L 207.248197 180.621733 
L 207.461273 181.594476 
L 207.552591 181.409211 
L 207.735228 180.063463 
L 208.100501 174.958099 
L 208.496213 170.34506 
L 208.61797 169.995932 
L 208.64841 170.018003 
L 208.739728 170.367198 
L 208.922365 172.399097 
L 209.196319 178.670294 
L 210.20082 205.483066 
L 210.261698 205.375385 
L 210.383456 204.174839 
L 210.596532 199.076365 
L 210.992244 182.445159 
L 211.692351 153.298044 
L 211.996745 148.054033 
L 212.118502 147.588863 
L 212.148942 147.613008 
L 212.24026 148.004941 
L 212.422896 150.087069 
L 212.75773 157.088358 
L 213.457836 171.910652 
L 213.731791 173.918942 
L 213.853549 174.039866 
L 213.883988 174.011039 
L 214.036185 173.611348 
L 214.431897 172.398228 
L 214.462337 172.409263 
L 214.553655 172.614527 
L 214.705852 173.647398 
L 214.918928 176.828008 
L 215.253761 186.007469 
L 216.075625 210.618326 
L 216.166944 210.977487 
L 216.197383 210.917292 
L 216.319141 209.7542 
L 216.532216 204.246403 
L 216.897489 186.789329 
L 217.87155 137.33687 
L 218.206384 130.59562 
L 218.41946 129.510849 
L 218.510778 129.666685 
L 218.693414 130.800282 
L 219.484839 136.961323 
L 219.576157 136.827423 
L 219.728354 136.019279 
L 220.002309 132.954108 
L 220.793734 122.989978 
L 220.885052 122.882966 
L 220.915491 122.929315 
L 221.037249 123.548316 
L 221.250325 126.355118 
L 221.554719 133.939157 
L 222.224386 158.295325 
L 222.741856 173.04057 
L 223.107128 177.968426 
L 223.928992 185.371414 
L 224.294265 193.935085 
L 224.994372 211.410887 
L 225.116129 211.999455 
L 225.146569 211.949962 
L 225.237887 211.296517 
L 225.420523 207.672808 
L 225.694478 196.864551 
L 226.272827 162.158474 
L 226.942494 126.625927 
L 227.338206 115.560145 
L 227.6426 111.925212 
L 227.946994 110.610477 
L 228.19051 109.546265 
L 228.403585 107.500394 
L 228.67754 102.216454 
L 229.012374 90.819427 
L 229.560283 62.911851 
L 230.169071 34.655749 
L 230.443026 29.475009 
L 230.534344 29.104479 
L 230.595223 29.216173 
L 230.71698 30.222759 
L 230.960496 34.64973 
L 231.721481 49.809582 
L 231.873678 50.396144 
L 231.904117 50.383971 
L 231.995435 50.102729 
L 232.178072 48.576731 
L 232.969497 39.912736 
L 232.999936 39.945508 
L 233.121694 40.564843 
L 233.30433 43.003389 
L 233.608724 50.631638 
L 234.552346 77.189854 
L 234.734982 78.252889 
L 234.795861 78.151829 
L 234.917619 77.265632 
L 235.130694 73.645066 
L 235.495967 62.789523 
L 236.196074 41.735961 
L 236.439589 39.439206 
L 236.500468 39.42516 
L 236.530907 39.498731 
L 236.652665 40.297981 
L 236.89618 43.842099 
L 237.626726 55.610058 
L 237.718044 55.844549 
L 237.748484 55.82843 
L 237.839802 55.491943 
L 238.022438 53.548463 
L 238.326832 47.208978 
L 238.996499 32.692071 
L 239.118257 32.155002 
L 239.148696 32.181755 
L 239.240014 32.662642 
L 239.422651 35.419551 
L 239.727045 44.553063 
L 240.731545 78.111298 
L 240.944621 79.458785 
L 241.03594 79.169651 
L 241.188137 77.60232 
L 241.462091 71.922768 
L 242.497031 47.342744 
L 242.649228 46.857175 
L 242.679668 46.883928 
L 242.801425 47.358127 
L 243.04494 49.604452 
L 243.56241 54.39259 
L 243.653729 54.48014 
L 243.684168 54.429978 
L 243.805926 53.803754 
L 244.019001 51.014341 
L 244.353835 42.907078 
L 244.993063 27.411675 
L 245.11482 26.753549 
L 245.14526 26.771607 
L 245.236578 27.283929 
L 245.419214 30.382608 
L 245.723608 40.947413 
L 246.910745 88.529562 
L 247.123821 90.259819 
L 247.1847 90.256743 
L 247.306458 89.642157 
L 247.519533 86.892071 
L 247.976124 77.01529 
L 248.493594 67.556125 
L 248.767549 65.588367 
L 248.950186 65.32953 
L 249.132822 65.491654 
L 249.315458 65.570843 
L 249.437216 65.30766 
L 249.589413 64.353042 
L 249.802489 61.416286 
L 250.106883 53.38159 
L 250.685232 29.701073 
L 251.050505 18.826602 
L 251.202702 17.69227 
L 251.233141 17.764503 
L 251.354899 19.0841 
L 251.567975 25.213907 
L 251.933247 44.250084 
L 252.876869 95.955624 
L 253.242142 104.626241 
L 253.485657 106.500697 
L 253.576975 106.592327 
L 253.607415 106.565975 
L 253.759612 106.11679 
L 254.277082 104.218322 
L 254.3684 104.38767 
L 254.520597 105.275739 
L 254.764112 108.430466 
L 255.129385 116.76283 
L 256.103446 140.607036 
L 256.40784 143.159149 
L 256.651356 143.671271 
L 256.92531 143.968632 
L 257.077507 144.640001 
L 257.290583 146.901241 
L 257.564538 153.014595 
L 257.929811 167.602197 
L 258.964751 214.389846 
L 259.056069 214.756364 
L 259.086508 214.651358 
L 259.208266 213.10971 
L 259.421342 206.476275 
L 259.847493 183.899993 
L 260.486721 152.575777 
L 260.821554 145.266492 
L 261.03463 144.207203 
L 261.125949 144.475336 
L 261.308585 146.016583 
L 261.795616 153.034191 
L 262.160888 156.72592 
L 262.373964 157.236236 
L 262.495722 157.002547 
L 262.739237 155.783943 
L 263.10451 154.123311 
L 263.195828 154.162638 
L 263.317586 154.707465 
L 263.500222 156.825308 
L 263.774177 163.421087 
L 264.169889 179.808506 
L 264.900435 210.808942 
L 265.083072 212.638855 
L 265.14395 212.41881 
L 265.265708 210.728683 
L 265.478784 204.115982 
L 265.904936 182.154954 
L 266.544163 151.516956 
L 266.878997 144.309333 
L 267.061633 143.310037 
L 267.122512 143.385347 
L 267.244269 144.064408 
L 267.487785 147.040424 
L 268.309649 158.360067 
L 268.522725 158.868577 
L 268.644482 158.66639 
L 268.948876 157.384114 
L 269.192392 156.767187 
L 269.28371 156.917473 
L 269.435907 157.876839 
L 269.648983 161.082731 
L 269.953377 169.966036 
L 270.470847 193.805333 
L 270.927438 211.350024 
L 271.110074 213.474221 
L 271.140514 213.465526 
L 271.231832 212.799373 
L 271.414468 208.679394 
L 271.718862 195.142988 
L 272.753802 143.711735 
L 273.058196 138.623226 
L 273.210393 138.093381 
L 273.240833 138.126421 
L 273.36259 138.656868 
L 273.606106 141.153602 
L 274.306212 149.0962 
L 274.488848 149.466731 
L 274.610606 149.209968 
L 274.823682 148.006613 
L 275.371591 144.764069 
L 275.46291 144.896162 
L 275.615107 145.927628 
L 275.828182 149.39336 
L 276.132576 158.818482 
L 276.650046 184.005668 
L 277.167516 206.201387 
L 277.411032 209.432494 
L 277.47191 209.27532 
L 277.593668 207.819282 
L 277.806744 202.037934 
L 278.293774 180.630294 
L 278.780805 162.925553 
L 279.05476 158.856404 
L 279.146078 158.549145 
L 279.206957 158.618369 
L 279.328714 159.361838 
L 279.57223 162.816601 
L 280.485412 178.151418 
L 280.607169 178.395607 
L 280.637609 178.366647 
L 280.759366 177.919803 
L 281.002882 175.790589 
L 281.550791 170.766288 
L 281.61167 170.684557 
L 281.672549 170.764014 
L 281.794306 171.452907 
L 282.007382 174.490254 
L 282.311776 182.657846 
L 283.13364 207.075545 
L 283.255398 207.570478 
L 283.285837 207.482861 
L 283.407595 206.266932 
L 283.620671 200.951758 
L 283.985944 184.836352 
L 284.807808 147.94896 
L 285.112202 142.574594 
L 285.264399 142.023212 
L 285.355717 142.316493 
L 285.538353 144.106076 
L 285.903626 150.84378 
L 286.512414 161.751225 
L 286.786369 163.621869 
L 286.938566 163.812151 
L 286.969006 163.796835 
L 287.151642 163.496799 
L 287.395157 163.205925 
L 287.516915 163.46951 
L 287.669112 164.487065 
L 287.882188 167.616377 
L 288.186582 176.099521 
L 288.764931 201.007939 
L 289.160643 213.215384 
L 289.282401 214.173815 
L 289.31284 214.157763 
L 289.404158 213.476896 
L 289.586795 209.327488 
L 289.891189 195.518201 
L 291.078326 134.074394 
L 291.38272 129.028089 
L 291.565356 128.258 
L 291.656674 128.356987 
L 291.839311 129.212618 
L 292.41766 132.267623 
L 292.508978 132.146632 
L 292.661175 131.342701 
L 292.90469 128.45584 
L 293.330842 119.89459 
L 293.93963 108.61941 
L 294.183145 107.210591 
L 294.274463 107.283493 
L 294.42666 108.098326 
L 294.700615 111.337239 
L 295.49204 121.633134 
L 295.583358 121.816145 
L 295.644237 121.754727 
L 295.765994 121.18221 
L 295.97907 118.787151 
L 296.344343 111.504874 
L 297.105328 96.210848 
L 297.379283 94.427419 
L 297.470601 94.358262 
L 297.501041 94.385617 
L 297.653238 94.831792 
L 298.201147 97.211482 
L 298.262026 97.154297 
L 298.383783 96.626525 
L 298.56642 94.589142 
L 298.840375 88.247183 
L 299.205647 73.674963 
L 300.240587 27.938043 
L 300.423224 26.471303 
L 300.484103 26.657238 
L 300.6363 28.479793 
L 300.910254 35.560005 
L 301.701679 57.952694 
L 301.914755 59.441772 
L 301.975634 59.40278 
L 302.097391 58.754418 
L 302.340906 55.591197 
L 303.132331 43.870859 
L 303.19321 43.816015 
L 303.223649 43.859489 
L 303.345407 44.512265 
L 303.558483 47.389562 
L 303.984634 57.413284 
L 304.471665 67.288661 
L 304.684741 68.431687 
L 304.776059 68.123291 
L 304.928256 66.511483 
L 305.202211 60.424146 
L 306.26759 31.992477 
L 306.328469 32.037288 
L 306.450226 32.97231 
L 306.663302 37.08627 
L 307.089454 51.123427 
L 307.606924 66.162957 
L 307.850439 68.760015 
L 307.911318 68.844689 
L 307.941757 68.802084 
L 308.063515 68.080753 
L 308.276591 64.887234 
L 308.702743 53.82703 
L 309.189773 42.685696 
L 309.402849 41.130003 
L 309.463728 41.163444 
L 309.585485 41.853005 
L 309.798561 44.8119 
L 310.772622 61.414145 
L 310.833501 61.336026 
L 310.955259 60.55624 
L 311.168335 57.269687 
L 311.564047 46.472599 
L 312.081517 33.309399 
L 312.264153 31.912887 
L 312.294593 31.915562 
L 312.385911 32.341605 
L 312.568547 35.034306 
L 312.872941 44.001949 
L 313.755684 72.785489 
L 313.96876 74.657805 
L 314.029639 74.670647 
L 314.120957 74.263331 
L 314.303594 72.014264 
L 314.638427 64.063239 
L 315.399412 45.20517 
L 315.612488 43.913664 
L 315.673367 43.979209 
L 315.795125 44.642017 
L 316.03864 47.652411 
L 316.708307 56.762247 
L 316.799625 56.944102 
L 316.830064 56.914071 
L 316.951822 56.321022 
L 317.164898 53.465662 
L 317.499731 45.184437 
L 318.10852 30.126447 
L 318.260717 29.173368 
L 318.291156 29.193433 
L 318.382474 29.693047 
L 318.565111 32.659298 
L 318.869505 42.587378 
L 319.904445 80.99622 
L 320.14796 82.978291 
L 320.208839 82.897697 
L 320.330596 82.088014 
L 320.543672 78.839986 
L 321.000263 67.214488 
L 321.517733 55.608586 
L 321.791688 53.199335 
L 321.913445 53.028784 
L 321.943885 53.059282 
L 322.096082 53.554616 
L 322.613552 55.910027 
L 322.643991 55.899326 
L 322.735309 55.669918 
L 322.887507 54.535318 
L 323.131022 50.536597 
L 323.526734 39.133552 
L 324.074643 24.064861 
L 324.22684 22.889731 
L 324.25728 22.894412 
L 324.348598 23.418105 
L 324.500795 26.00513 
L 324.77475 35.578063 
L 325.383538 68.303808 
L 325.931447 91.933494 
L 326.266281 98.244954 
L 326.448917 98.992503 
L 326.540235 98.755671 
L 326.722872 97.313344 
L 327.179463 90.992721 
L 327.575175 87.008915 
L 327.757812 86.581199 
L 327.84913 86.725466 
L 328.031766 87.619688 
L 328.701433 91.895839 
L 328.731873 91.872096 
L 328.85363 91.386861 
L 329.036267 89.310017 
L 329.310222 82.746275 
L 329.705934 66.339527 
L 330.588677 27.249819 
L 330.801752 25.156388 
L 330.862631 25.358374 
L 331.014828 27.324059 
L 331.288783 35.07176 
L 332.171526 62.923757 
L 332.384602 64.370498 
L 332.44548 64.296058 
L 332.567238 63.55319 
L 332.810753 60.122505 
L 333.632617 46.516073 
L 333.723936 46.32345 
L 333.754375 46.349535 
L 333.876133 46.897974 
L 334.089209 49.413301 
L 334.637118 60.106453 
L 334.971951 64.139284 
L 335.06327 64.350433 
L 335.093709 64.320804 
L 335.215467 63.682007 
L 335.398103 61.152901 
L 335.702497 53.246621 
L 336.524361 29.758592 
L 336.646119 29.169355 
L 336.676558 29.211491 
L 336.767876 29.795378 
L 336.950513 32.954251 
L 337.254907 42.933162 
L 338.13765 73.926308 
L 338.381165 76.17571 
L 338.442044 76.155311 
L 338.563801 75.447758 
L 338.776877 72.302328 
L 339.203029 61.457753 
L 339.750938 49.185833 
L 339.994454 47.497243 
L 340.055332 47.5046 
L 340.085772 47.568139 
L 340.237969 48.426245 
L 340.542363 51.925485 
L 340.968515 56.239625 
L 341.059833 56.452045 
L 341.120712 56.38951 
L 341.242469 55.73339 
L 341.455545 52.81924 
L 341.790379 44.344389 
L 342.460046 27.342786 
L 342.581803 26.723452 
L 342.612243 26.756224 
L 342.703561 27.324059 
L 342.886197 30.557841 
L 343.190591 41.293865 
L 344.316849 86.260898 
L 344.560365 88.249523 
L 344.621244 88.188192 
L 344.743001 87.453752 
L 344.956077 84.48837 
L 345.443108 73.461206 
L 345.930138 64.457847 
L 346.204093 62.495038 
L 346.386729 62.294925 
L 346.569366 62.552758 
L 346.782441 62.747788 
L 346.904199 62.490958 
L 347.056396 61.511259 
L 347.269472 58.510563 
L 347.573866 50.471253 
L 348.608806 18.642005 
L 348.669685 18.839309 
L 348.791442 20.424431 
L 349.004518 26.845847 
L 349.400231 47.741365 
L 350.282973 95.344516 
L 350.648246 104.149299 
L 350.891761 106.050442 
L 350.98308 106.125686 
L 351.013519 106.090037 
L 351.165716 105.5628 
L 351.744065 102.95504 
L 351.774504 102.97865 
L 351.896262 103.36657 
L 352.078898 104.909623 
L 352.352853 109.394207 
L 352.900762 123.159526 
L 353.418232 133.923708 
L 353.692187 136.283867 
L 353.844384 136.55929 
L 353.874823 136.540965 
L 354.02702 136.173109 
L 354.483612 134.624974 
L 354.514051 134.633869 
L 354.605369 134.835654 
L 354.757566 135.88043 
L 354.970642 139.180761 
L 355.275036 148.146063 
L 355.731627 169.765521 
L 356.431734 202.474679 
L 356.675249 206.361237 
L 356.736128 206.45086 
L 356.766567 206.364581 
L 356.888325 205.185438 
L 357.101401 200.355163 
L 358.197219 170.181599 
L 358.288538 169.992588 
L 358.318977 170.03245 
L 358.440735 170.671716 
L 358.65381 173.343148 
L 359.506114 186.093079 
L 359.566993 186.134546 
L 359.597432 186.08706 
L 359.71919 185.44231 
L 359.932266 182.699714 
L 360.419296 172.193567 
L 360.815008 165.827597 
L 360.967205 165.217024 
L 360.997645 165.248459 
L 361.119402 165.909862 
L 361.302039 168.506252 
L 361.606433 176.565226 
L 362.458736 200.983193 
L 362.580494 201.449366 
L 362.610933 201.380476 
L 362.732691 200.361852 
L 362.945767 195.937556 
L 363.371919 180.648687 
L 363.950267 161.992337 
L 364.224222 158.988498 
L 364.285101 158.956528 
L 364.31554 159.026019 
L 364.437298 159.852958 
L 364.650374 163.193151 
L 365.106965 175.156474 
L 365.593995 185.806152 
L 365.807071 187.247476 
L 365.86795 187.22808 
L 365.989708 186.648875 
L 366.202784 184.186251 
L 366.994208 173.559781 
L 367.055087 173.546605 
L 367.085526 173.610746 
L 367.207284 174.352141 
L 367.42036 177.494629 
L 367.785633 187.14247 
L 368.363981 201.696832 
L 368.516178 202.6566 
L 368.546618 202.634528 
L 368.637936 202.122206 
L 368.820573 199.113819 
L 369.124967 189.127551 
L 370.129467 151.840133 
L 370.372982 149.684769 
L 370.433861 149.725099 
L 370.555619 150.461345 
L 370.768695 153.611055 
L 371.194846 164.337114 
L 371.742756 176.887199 
L 371.742756 176.887199 
" style="fill:none;stroke:#0000ff;stroke-linecap:square;stroke-width:1.5;"/>
   </g>
   <g id="patch_3">
    <path d="M 52.160938 224.64 
L 52.160938 7.2 
" style="fill:none;stroke:#000000;stroke-linecap:square;stroke-linejoin:miter;stroke-width:0.8;"/>
   </g>
   <g id="patch_4">
    <path d="M 386.960938 224.64 
L 386.960938 7.2 
" style="fill:none;stroke:#000000;stroke-linecap:square;stroke-linejoin:miter;stroke-width:0.8;"/>
   </g>
   <g id="patch_5">
    <path d="M 52.160938 224.64 
L 386.960938 224.64 
" style="fill:none;stroke:#000000;stroke-linecap:square;stroke-linejoin:miter;stroke-width:0.8;"/>
   </g>
   <g id="patch_6">
    <path d="M 52.160938 7.2 
L 386.960938 7.2 
" style="fill:none;stroke:#000000;stroke-linecap:square;stroke-linejoin:miter;stroke-width:0.8;"/>
   </g>
  </g>
 </g>
 <defs>
  <clipPath id="pbb67324fd5">
   <rect height="217.44" width="334.8" x="52.160938" y="7.2"/>
  </clipPath>
 </defs>
</svg>
