<?xml version="1.0" encoding="utf-8" standalone="no"?>
<!DOCTYPE svg PUBLIC "-//W3C//DTD SVG 1.1//EN"
  "http://www.w3.org/Graphics/SVG/1.1/DTD/svg11.dtd">
<svg height="432pt" version="1.1" viewBox="0 0 1152 432" width="1152pt" xmlns="http://www.w3.org/2000/svg" xmlns:xlink="http://www.w3.org/1999/xlink">
 <metadata>
  <rdf:RDF xmlns:cc="http://creativecommons.org/ns#" xmlns:dc="http://purl.org/dc/elements/1.1/" xmlns:rdf="http://www.w3.org/1999/02/22-rdf-syntax-ns#">
   <cc:Work>
    <dc:type rdf:resource="http://purl.org/dc/dcmitype/StillImage"/>
    <dc:date>2021-08-30T00:13:20.843617</dc:date>
    <dc:format>image/svg+xml</dc:format>
    <dc:creator>
     <cc:Agent>
      <dc:title>Matplotlib v3.4.3, https://matplotlib.org/</dc:title>
     </cc:Agent>
    </dc:creator>
   </cc:Work>
  </rdf:RDF>
 </metadata>
 <defs>
  <style type="text/css">*{stroke-linecap:butt;stroke-linejoin:round;}</style>
 </defs>
 <g id="figure_1">
  <g id="patch_1">
   <path d="M 0 432 
L 1152 432 
L 1152 0 
L 0 0 
z
" style="fill:none;"/>
  </g>
  <g id="axes_1">
   <g id="patch_2">
    <path d="M 144 378 
L 378.947368 378 
L 378.947368 51.84 
L 144 51.84 
z
" style="fill:#ffffff;"/>
   </g>
   <g id="matplotlib.axis_1">
    <g id="xtick_1">
     <g id="line2d_1">
      <defs>
       <path d="M 0 0 
L 0 3.5 
" id="m6b0052f765" style="stroke:#000000;stroke-width:0.8;"/>
      </defs>
      <g>
       <use style="stroke:#000000;stroke-width:0.8;" x="167.494737" xlink:href="#m6b0052f765" y="378"/>
      </g>
     </g>
     <g id="text_1">
      <!-- −2 -->
      <g transform="translate(160.123643 392.598437)scale(0.1 -0.1)">
       <defs>
        <path d="M 678 2272 
L 4684 2272 
L 4684 1741 
L 678 1741 
L 678 2272 
z
" id="DejaVuSans-2212" transform="scale(0.015625)"/>
        <path d="M 1228 531 
L 3431 531 
L 3431 0 
L 469 0 
L 469 531 
Q 828 903 1448 1529 
Q 2069 2156 2228 2338 
Q 2531 2678 2651 2914 
Q 2772 3150 2772 3378 
Q 2772 3750 2511 3984 
Q 2250 4219 1831 4219 
Q 1534 4219 1204 4116 
Q 875 4013 500 3803 
L 500 4441 
Q 881 4594 1212 4672 
Q 1544 4750 1819 4750 
Q 2544 4750 2975 4387 
Q 3406 4025 3406 3419 
Q 3406 3131 3298 2873 
Q 3191 2616 2906 2266 
Q 2828 2175 2409 1742 
Q 1991 1309 1228 531 
z
" id="DejaVuSans-32" transform="scale(0.015625)"/>
       </defs>
       <use xlink:href="#DejaVuSans-2212"/>
       <use x="83.789062" xlink:href="#DejaVuSans-32"/>
      </g>
     </g>
    </g>
    <g id="xtick_2">
     <g id="line2d_2">
      <g>
       <use style="stroke:#000000;stroke-width:0.8;" x="214.484211" xlink:href="#m6b0052f765" y="378"/>
      </g>
     </g>
     <g id="text_2">
      <!-- −1 -->
      <g transform="translate(207.113117 392.598437)scale(0.1 -0.1)">
       <defs>
        <path d="M 794 531 
L 1825 531 
L 1825 4091 
L 703 3866 
L 703 4441 
L 1819 4666 
L 2450 4666 
L 2450 531 
L 3481 531 
L 3481 0 
L 794 0 
L 794 531 
z
" id="DejaVuSans-31" transform="scale(0.015625)"/>
       </defs>
       <use xlink:href="#DejaVuSans-2212"/>
       <use x="83.789062" xlink:href="#DejaVuSans-31"/>
      </g>
     </g>
    </g>
    <g id="xtick_3">
     <g id="line2d_3">
      <g>
       <use style="stroke:#000000;stroke-width:0.8;" x="261.473684" xlink:href="#m6b0052f765" y="378"/>
      </g>
     </g>
     <g id="text_3">
      <!-- 0 -->
      <g transform="translate(258.292434 392.598437)scale(0.1 -0.1)">
       <defs>
        <path d="M 2034 4250 
Q 1547 4250 1301 3770 
Q 1056 3291 1056 2328 
Q 1056 1369 1301 889 
Q 1547 409 2034 409 
Q 2525 409 2770 889 
Q 3016 1369 3016 2328 
Q 3016 3291 2770 3770 
Q 2525 4250 2034 4250 
z
M 2034 4750 
Q 2819 4750 3233 4129 
Q 3647 3509 3647 2328 
Q 3647 1150 3233 529 
Q 2819 -91 2034 -91 
Q 1250 -91 836 529 
Q 422 1150 422 2328 
Q 422 3509 836 4129 
Q 1250 4750 2034 4750 
z
" id="DejaVuSans-30" transform="scale(0.015625)"/>
       </defs>
       <use xlink:href="#DejaVuSans-30"/>
      </g>
     </g>
    </g>
    <g id="xtick_4">
     <g id="line2d_4">
      <g>
       <use style="stroke:#000000;stroke-width:0.8;" x="308.463158" xlink:href="#m6b0052f765" y="378"/>
      </g>
     </g>
     <g id="text_4">
      <!-- 1 -->
      <g transform="translate(305.281908 392.598437)scale(0.1 -0.1)">
       <use xlink:href="#DejaVuSans-31"/>
      </g>
     </g>
    </g>
    <g id="xtick_5">
     <g id="line2d_5">
      <g>
       <use style="stroke:#000000;stroke-width:0.8;" x="355.452632" xlink:href="#m6b0052f765" y="378"/>
      </g>
     </g>
     <g id="text_5">
      <!-- 2 -->
      <g transform="translate(352.271382 392.598437)scale(0.1 -0.1)">
       <use xlink:href="#DejaVuSans-32"/>
      </g>
     </g>
    </g>
    <g id="text_6">
     <!-- $x$ -->
     <g transform="translate(258.473684 406.276563)scale(0.1 -0.1)">
      <defs>
       <path d="M 3841 3500 
L 2234 1784 
L 3219 0 
L 2559 0 
L 1819 1388 
L 531 0 
L -166 0 
L 1556 1844 
L 641 3500 
L 1300 3500 
L 1972 2234 
L 3144 3500 
L 3841 3500 
z
" id="DejaVuSans-Oblique-78" transform="scale(0.015625)"/>
      </defs>
      <use transform="translate(0 0.3125)" xlink:href="#DejaVuSans-Oblique-78"/>
     </g>
    </g>
   </g>
   <g id="matplotlib.axis_2">
    <g id="ytick_1">
     <g id="line2d_6">
      <defs>
       <path d="M 0 0 
L -3.5 0 
" id="mfca6952662" style="stroke:#000000;stroke-width:0.8;"/>
      </defs>
      <g>
       <use style="stroke:#000000;stroke-width:0.8;" x="144" xlink:href="#mfca6952662" y="378"/>
      </g>
     </g>
     <g id="text_7">
      <!-- −1.0 -->
      <g transform="translate(112.717187 381.799219)scale(0.1 -0.1)">
       <defs>
        <path d="M 684 794 
L 1344 794 
L 1344 0 
L 684 0 
L 684 794 
z
" id="DejaVuSans-2e" transform="scale(0.015625)"/>
       </defs>
       <use xlink:href="#DejaVuSans-2212"/>
       <use x="83.789062" xlink:href="#DejaVuSans-31"/>
       <use x="147.412109" xlink:href="#DejaVuSans-2e"/>
       <use x="179.199219" xlink:href="#DejaVuSans-30"/>
      </g>
     </g>
    </g>
    <g id="ytick_2">
     <g id="line2d_7">
      <g>
       <use style="stroke:#000000;stroke-width:0.8;" x="144" xlink:href="#mfca6952662" y="334.512"/>
      </g>
     </g>
     <g id="text_8">
      <!-- −0.8 -->
      <g transform="translate(112.717187 338.311219)scale(0.1 -0.1)">
       <defs>
        <path d="M 2034 2216 
Q 1584 2216 1326 1975 
Q 1069 1734 1069 1313 
Q 1069 891 1326 650 
Q 1584 409 2034 409 
Q 2484 409 2743 651 
Q 3003 894 3003 1313 
Q 3003 1734 2745 1975 
Q 2488 2216 2034 2216 
z
M 1403 2484 
Q 997 2584 770 2862 
Q 544 3141 544 3541 
Q 544 4100 942 4425 
Q 1341 4750 2034 4750 
Q 2731 4750 3128 4425 
Q 3525 4100 3525 3541 
Q 3525 3141 3298 2862 
Q 3072 2584 2669 2484 
Q 3125 2378 3379 2068 
Q 3634 1759 3634 1313 
Q 3634 634 3220 271 
Q 2806 -91 2034 -91 
Q 1263 -91 848 271 
Q 434 634 434 1313 
Q 434 1759 690 2068 
Q 947 2378 1403 2484 
z
M 1172 3481 
Q 1172 3119 1398 2916 
Q 1625 2713 2034 2713 
Q 2441 2713 2670 2916 
Q 2900 3119 2900 3481 
Q 2900 3844 2670 4047 
Q 2441 4250 2034 4250 
Q 1625 4250 1398 4047 
Q 1172 3844 1172 3481 
z
" id="DejaVuSans-38" transform="scale(0.015625)"/>
       </defs>
       <use xlink:href="#DejaVuSans-2212"/>
       <use x="83.789062" xlink:href="#DejaVuSans-30"/>
       <use x="147.412109" xlink:href="#DejaVuSans-2e"/>
       <use x="179.199219" xlink:href="#DejaVuSans-38"/>
      </g>
     </g>
    </g>
    <g id="ytick_3">
     <g id="line2d_8">
      <g>
       <use style="stroke:#000000;stroke-width:0.8;" x="144" xlink:href="#mfca6952662" y="291.024"/>
      </g>
     </g>
     <g id="text_9">
      <!-- −0.6 -->
      <g transform="translate(112.717187 294.823219)scale(0.1 -0.1)">
       <defs>
        <path d="M 2113 2584 
Q 1688 2584 1439 2293 
Q 1191 2003 1191 1497 
Q 1191 994 1439 701 
Q 1688 409 2113 409 
Q 2538 409 2786 701 
Q 3034 994 3034 1497 
Q 3034 2003 2786 2293 
Q 2538 2584 2113 2584 
z
M 3366 4563 
L 3366 3988 
Q 3128 4100 2886 4159 
Q 2644 4219 2406 4219 
Q 1781 4219 1451 3797 
Q 1122 3375 1075 2522 
Q 1259 2794 1537 2939 
Q 1816 3084 2150 3084 
Q 2853 3084 3261 2657 
Q 3669 2231 3669 1497 
Q 3669 778 3244 343 
Q 2819 -91 2113 -91 
Q 1303 -91 875 529 
Q 447 1150 447 2328 
Q 447 3434 972 4092 
Q 1497 4750 2381 4750 
Q 2619 4750 2861 4703 
Q 3103 4656 3366 4563 
z
" id="DejaVuSans-36" transform="scale(0.015625)"/>
       </defs>
       <use xlink:href="#DejaVuSans-2212"/>
       <use x="83.789062" xlink:href="#DejaVuSans-30"/>
       <use x="147.412109" xlink:href="#DejaVuSans-2e"/>
       <use x="179.199219" xlink:href="#DejaVuSans-36"/>
      </g>
     </g>
    </g>
    <g id="ytick_4">
     <g id="line2d_9">
      <g>
       <use style="stroke:#000000;stroke-width:0.8;" x="144" xlink:href="#mfca6952662" y="247.536"/>
      </g>
     </g>
     <g id="text_10">
      <!-- −0.4 -->
      <g transform="translate(112.717187 251.335219)scale(0.1 -0.1)">
       <defs>
        <path d="M 2419 4116 
L 825 1625 
L 2419 1625 
L 2419 4116 
z
M 2253 4666 
L 3047 4666 
L 3047 1625 
L 3713 1625 
L 3713 1100 
L 3047 1100 
L 3047 0 
L 2419 0 
L 2419 1100 
L 313 1100 
L 313 1709 
L 2253 4666 
z
" id="DejaVuSans-34" transform="scale(0.015625)"/>
       </defs>
       <use xlink:href="#DejaVuSans-2212"/>
       <use x="83.789062" xlink:href="#DejaVuSans-30"/>
       <use x="147.412109" xlink:href="#DejaVuSans-2e"/>
       <use x="179.199219" xlink:href="#DejaVuSans-34"/>
      </g>
     </g>
    </g>
    <g id="ytick_5">
     <g id="line2d_10">
      <g>
       <use style="stroke:#000000;stroke-width:0.8;" x="144" xlink:href="#mfca6952662" y="204.048"/>
      </g>
     </g>
     <g id="text_11">
      <!-- −0.2 -->
      <g transform="translate(112.717187 207.847219)scale(0.1 -0.1)">
       <use xlink:href="#DejaVuSans-2212"/>
       <use x="83.789062" xlink:href="#DejaVuSans-30"/>
       <use x="147.412109" xlink:href="#DejaVuSans-2e"/>
       <use x="179.199219" xlink:href="#DejaVuSans-32"/>
      </g>
     </g>
    </g>
    <g id="ytick_6">
     <g id="line2d_11">
      <g>
       <use style="stroke:#000000;stroke-width:0.8;" x="144" xlink:href="#mfca6952662" y="160.56"/>
      </g>
     </g>
     <g id="text_12">
      <!-- 0.0 -->
      <g transform="translate(121.096875 164.359219)scale(0.1 -0.1)">
       <use xlink:href="#DejaVuSans-30"/>
       <use x="63.623047" xlink:href="#DejaVuSans-2e"/>
       <use x="95.410156" xlink:href="#DejaVuSans-30"/>
      </g>
     </g>
    </g>
    <g id="ytick_7">
     <g id="line2d_12">
      <g>
       <use style="stroke:#000000;stroke-width:0.8;" x="144" xlink:href="#mfca6952662" y="117.072"/>
      </g>
     </g>
     <g id="text_13">
      <!-- 0.2 -->
      <g transform="translate(121.096875 120.871219)scale(0.1 -0.1)">
       <use xlink:href="#DejaVuSans-30"/>
       <use x="63.623047" xlink:href="#DejaVuSans-2e"/>
       <use x="95.410156" xlink:href="#DejaVuSans-32"/>
      </g>
     </g>
    </g>
    <g id="ytick_8">
     <g id="line2d_13">
      <g>
       <use style="stroke:#000000;stroke-width:0.8;" x="144" xlink:href="#mfca6952662" y="73.584"/>
      </g>
     </g>
     <g id="text_14">
      <!-- 0.4 -->
      <g transform="translate(121.096875 77.383219)scale(0.1 -0.1)">
       <use xlink:href="#DejaVuSans-30"/>
       <use x="63.623047" xlink:href="#DejaVuSans-2e"/>
       <use x="95.410156" xlink:href="#DejaVuSans-34"/>
      </g>
     </g>
    </g>
    <g id="text_15">
     <!-- $f(x, \mu)$ -->
     <g transform="translate(106.617188 229.32)rotate(-90)scale(0.1 -0.1)">
      <defs>
       <path d="M 3059 4863 
L 2969 4384 
L 2419 4384 
Q 2106 4384 1964 4261 
Q 1822 4138 1753 3809 
L 1691 3500 
L 2638 3500 
L 2553 3053 
L 1606 3053 
L 1013 0 
L 434 0 
L 1031 3053 
L 481 3053 
L 563 3500 
L 1113 3500 
L 1159 3744 
Q 1278 4363 1576 4613 
Q 1875 4863 2516 4863 
L 3059 4863 
z
" id="DejaVuSans-Oblique-66" transform="scale(0.015625)"/>
       <path d="M 1984 4856 
Q 1566 4138 1362 3434 
Q 1159 2731 1159 2009 
Q 1159 1288 1364 580 
Q 1569 -128 1984 -844 
L 1484 -844 
Q 1016 -109 783 600 
Q 550 1309 550 2009 
Q 550 2706 781 3412 
Q 1013 4119 1484 4856 
L 1984 4856 
z
" id="DejaVuSans-28" transform="scale(0.015625)"/>
       <path d="M 750 794 
L 1409 794 
L 1409 256 
L 897 -744 
L 494 -744 
L 750 256 
L 750 794 
z
" id="DejaVuSans-2c" transform="scale(0.015625)"/>
       <path d="M -84 -1331 
L 856 3500 
L 1434 3500 
L 1009 1322 
Q 997 1256 987 1175 
Q 978 1094 978 1013 
Q 978 722 1161 565 
Q 1344 409 1684 409 
Q 2147 409 2431 671 
Q 2716 934 2816 1459 
L 3213 3500 
L 3788 3500 
L 3266 809 
Q 3253 750 3248 706 
Q 3244 663 3244 628 
Q 3244 531 3283 486 
Q 3322 441 3406 441 
Q 3438 441 3492 456 
Q 3547 472 3647 513 
L 3559 50 
Q 3422 -19 3297 -55 
Q 3172 -91 3053 -91 
Q 2847 -91 2730 40 
Q 2613 172 2613 403 
Q 2438 153 2195 31 
Q 1953 -91 1625 -91 
Q 1334 -91 1117 43 
Q 900 178 831 397 
L 494 -1331 
L -84 -1331 
z
" id="DejaVuSans-Oblique-3bc" transform="scale(0.015625)"/>
       <path d="M 513 4856 
L 1013 4856 
Q 1481 4119 1714 3412 
Q 1947 2706 1947 2009 
Q 1947 1309 1714 600 
Q 1481 -109 1013 -844 
L 513 -844 
Q 928 -128 1133 580 
Q 1338 1288 1338 2009 
Q 1338 2731 1133 3434 
Q 928 4138 513 4856 
z
" id="DejaVuSans-29" transform="scale(0.015625)"/>
      </defs>
      <use transform="translate(0 0.015625)" xlink:href="#DejaVuSans-Oblique-66"/>
      <use transform="translate(35.205078 0.015625)" xlink:href="#DejaVuSans-28"/>
      <use transform="translate(74.21875 0.015625)" xlink:href="#DejaVuSans-Oblique-78"/>
      <use transform="translate(133.398438 0.015625)" xlink:href="#DejaVuSans-2c"/>
      <use transform="translate(184.667969 0.015625)" xlink:href="#DejaVuSans-Oblique-3bc"/>
      <use transform="translate(248.291016 0.015625)" xlink:href="#DejaVuSans-29"/>
     </g>
    </g>
   </g>
   <g id="line2d_14">
    <path clip-path="url(#p7571bba721)" d="M 180.372603 433 
L 183.353684 400.049775 
L 186.877895 363.356775 
L 190.402105 329.109975 
L 193.926316 297.309375 
L 196.863158 272.6775 
L 199.8 249.744375 
L 202.736842 228.51 
L 205.673684 208.974375 
L 208.610526 191.1375 
L 210.96 178.0911 
L 213.309474 166.1319 
L 215.658947 155.2599 
L 218.008421 145.4751 
L 220.357895 136.7775 
L 222.12 130.967775 
L 223.882105 125.7696 
L 225.644211 121.182975 
L 227.406316 117.2079 
L 229.168421 113.844375 
L 230.930526 111.0924 
L 232.105263 109.5975 
L 233.28 108.3744 
L 234.454737 107.4231 
L 235.629474 106.7436 
L 236.804211 106.3359 
L 237.978947 106.2 
L 239.153684 106.3359 
L 240.328421 106.7436 
L 241.503158 107.4231 
L 242.677895 108.3744 
L 243.852632 109.5975 
L 245.027368 111.0924 
L 246.202105 112.8591 
L 247.964211 116.018775 
L 249.726316 119.79 
L 251.488421 124.172775 
L 253.250526 129.1671 
L 255.012632 134.772975 
L 256.774737 140.9904 
L 259.124211 150.2316 
L 261.473684 160.56 
L 263.823158 171.9756 
L 266.172632 184.4784 
L 268.522105 198.0684 
L 271.458947 216.584775 
L 274.395789 236.7999 
L 277.332632 258.713775 
L 280.269474 282.3264 
L 283.206316 307.637775 
L 286.143158 334.6479 
L 289.667368 369.3024 
L 293.191579 406.4031 
L 295.585291 433 
L 295.585291 433 
" style="fill:none;stroke:#000000;stroke-linecap:square;stroke-width:1.5;"/>
   </g>
   <g id="line2d_15">
    <path clip-path="url(#p7571bba721)" d="M 144 160.56 
L 378.947368 160.56 
" style="fill:none;stroke:#000000;stroke-linecap:square;stroke-width:1.25;"/>
   </g>
   <g id="line2d_16">
    <path clip-path="url(#p7571bba721)" d="M 261.473684 433 
L 261.473684 -1 
" style="fill:none;stroke:#000000;stroke-linecap:square;stroke-width:1.25;"/>
   </g>
   <g id="patch_3">
    <path d="M 144 378 
L 144 51.84 
" style="fill:none;stroke:#000000;stroke-linecap:square;stroke-linejoin:miter;stroke-width:0.8;"/>
   </g>
   <g id="patch_4">
    <path d="M 378.947368 378 
L 378.947368 51.84 
" style="fill:none;stroke:#000000;stroke-linecap:square;stroke-linejoin:miter;stroke-width:0.8;"/>
   </g>
   <g id="patch_5">
    <path d="M 144 378 
L 378.947368 378 
" style="fill:none;stroke:#000000;stroke-linecap:square;stroke-linejoin:miter;stroke-width:0.8;"/>
   </g>
   <g id="patch_6">
    <path d="M 144 51.84 
L 378.947368 51.84 
" style="fill:none;stroke:#000000;stroke-linecap:square;stroke-linejoin:miter;stroke-width:0.8;"/>
   </g>
   <g id="text_16">
    <!-- $\mu = -1.0$ -->
    <g transform="translate(263.823158 95.328)scale(0.1 -0.1)">
     <defs>
      <path d="M 678 2906 
L 4684 2906 
L 4684 2381 
L 678 2381 
L 678 2906 
z
M 678 1631 
L 4684 1631 
L 4684 1100 
L 678 1100 
L 678 1631 
z
" id="DejaVuSans-3d" transform="scale(0.015625)"/>
     </defs>
     <use transform="translate(0 0.78125)" xlink:href="#DejaVuSans-Oblique-3bc"/>
     <use transform="translate(83.105469 0.78125)" xlink:href="#DejaVuSans-3d"/>
     <use transform="translate(205.859375 0.78125)" xlink:href="#DejaVuSans-2212"/>
     <use transform="translate(309.130859 0.78125)" xlink:href="#DejaVuSans-31"/>
     <use transform="translate(372.753906 0.78125)" xlink:href="#DejaVuSans-2e"/>
     <use transform="translate(404.541016 0.78125)" xlink:href="#DejaVuSans-30"/>
    </g>
   </g>
   <g id="patch_7">
    <path d="M 331.958612 160.56 
Q 323.712069 160.56 315.465526 160.56 
L 315.465526 164.06 
Q 311.965298 162.31 308.46507 160.56 
Q 311.965298 158.81 315.465526 157.06 
L 315.465526 160.56 
Q 323.712069 160.56 331.958612 160.56 
L 331.958612 160.56 
z
" style="stroke:#000000;stroke-linecap:round;"/>
   </g>
   <g id="patch_8">
    <path d="M 233.278279 160.56 
Q 234.478474 160.56 235.678669 160.56 
L 235.678669 157.06 
Q 239.178282 158.81 242.677895 160.56 
Q 239.178282 162.31 235.678669 164.06 
L 235.678669 160.56 
Q 234.478474 160.56 233.278279 160.56 
L 233.278279 160.56 
z
" style="stroke:#000000;stroke-linecap:round;"/>
   </g>
   <g id="patch_9">
    <path d="M 186.293108 160.56 
Q 182.743085 160.56 179.193062 160.56 
L 179.193062 164.06 
Q 175.694664 162.31 172.196265 160.56 
Q 175.694664 158.81 179.193062 157.06 
L 179.193062 160.56 
Q 182.743085 160.56 186.293108 160.56 
L 186.293108 160.56 
z
" style="stroke:#000000;stroke-linecap:round;"/>
   </g>
  </g>
  <g id="axes_2">
   <g id="patch_10">
    <path d="M 472.926316 378 
L 707.873684 378 
L 707.873684 51.84 
L 472.926316 51.84 
z
" style="fill:#ffffff;"/>
   </g>
   <g id="matplotlib.axis_3">
    <g id="xtick_6">
     <g id="line2d_17">
      <g>
       <use style="stroke:#000000;stroke-width:0.8;" x="496.421053" xlink:href="#m6b0052f765" y="378"/>
      </g>
     </g>
     <g id="text_17">
      <!-- −2 -->
      <g transform="translate(489.049959 392.598437)scale(0.1 -0.1)">
       <use xlink:href="#DejaVuSans-2212"/>
       <use x="83.789062" xlink:href="#DejaVuSans-32"/>
      </g>
     </g>
    </g>
    <g id="xtick_7">
     <g id="line2d_18">
      <g>
       <use style="stroke:#000000;stroke-width:0.8;" x="543.410526" xlink:href="#m6b0052f765" y="378"/>
      </g>
     </g>
     <g id="text_18">
      <!-- −1 -->
      <g transform="translate(536.039433 392.598437)scale(0.1 -0.1)">
       <use xlink:href="#DejaVuSans-2212"/>
       <use x="83.789062" xlink:href="#DejaVuSans-31"/>
      </g>
     </g>
    </g>
    <g id="xtick_8">
     <g id="line2d_19">
      <g>
       <use style="stroke:#000000;stroke-width:0.8;" x="590.4" xlink:href="#m6b0052f765" y="378"/>
      </g>
     </g>
     <g id="text_19">
      <!-- 0 -->
      <g transform="translate(587.21875 392.598437)scale(0.1 -0.1)">
       <use xlink:href="#DejaVuSans-30"/>
      </g>
     </g>
    </g>
    <g id="xtick_9">
     <g id="line2d_20">
      <g>
       <use style="stroke:#000000;stroke-width:0.8;" x="637.389474" xlink:href="#m6b0052f765" y="378"/>
      </g>
     </g>
     <g id="text_20">
      <!-- 1 -->
      <g transform="translate(634.208224 392.598437)scale(0.1 -0.1)">
       <use xlink:href="#DejaVuSans-31"/>
      </g>
     </g>
    </g>
    <g id="xtick_10">
     <g id="line2d_21">
      <g>
       <use style="stroke:#000000;stroke-width:0.8;" x="684.378947" xlink:href="#m6b0052f765" y="378"/>
      </g>
     </g>
     <g id="text_21">
      <!-- 2 -->
      <g transform="translate(681.197697 392.598437)scale(0.1 -0.1)">
       <use xlink:href="#DejaVuSans-32"/>
      </g>
     </g>
    </g>
    <g id="text_22">
     <!-- $x$ -->
     <g transform="translate(587.4 406.276563)scale(0.1 -0.1)">
      <use transform="translate(0 0.3125)" xlink:href="#DejaVuSans-Oblique-78"/>
     </g>
    </g>
   </g>
   <g id="matplotlib.axis_4">
    <g id="ytick_9">
     <g id="line2d_22">
      <g>
       <use style="stroke:#000000;stroke-width:0.8;" x="472.926316" xlink:href="#mfca6952662" y="378"/>
      </g>
     </g>
     <g id="text_23">
      <!-- −1.0 -->
      <g transform="translate(441.643503 381.799219)scale(0.1 -0.1)">
       <use xlink:href="#DejaVuSans-2212"/>
       <use x="83.789062" xlink:href="#DejaVuSans-31"/>
       <use x="147.412109" xlink:href="#DejaVuSans-2e"/>
       <use x="179.199219" xlink:href="#DejaVuSans-30"/>
      </g>
     </g>
    </g>
    <g id="ytick_10">
     <g id="line2d_23">
      <g>
       <use style="stroke:#000000;stroke-width:0.8;" x="472.926316" xlink:href="#mfca6952662" y="334.512"/>
      </g>
     </g>
     <g id="text_24">
      <!-- −0.8 -->
      <g transform="translate(441.643503 338.311219)scale(0.1 -0.1)">
       <use xlink:href="#DejaVuSans-2212"/>
       <use x="83.789062" xlink:href="#DejaVuSans-30"/>
       <use x="147.412109" xlink:href="#DejaVuSans-2e"/>
       <use x="179.199219" xlink:href="#DejaVuSans-38"/>
      </g>
     </g>
    </g>
    <g id="ytick_11">
     <g id="line2d_24">
      <g>
       <use style="stroke:#000000;stroke-width:0.8;" x="472.926316" xlink:href="#mfca6952662" y="291.024"/>
      </g>
     </g>
     <g id="text_25">
      <!-- −0.6 -->
      <g transform="translate(441.643503 294.823219)scale(0.1 -0.1)">
       <use xlink:href="#DejaVuSans-2212"/>
       <use x="83.789062" xlink:href="#DejaVuSans-30"/>
       <use x="147.412109" xlink:href="#DejaVuSans-2e"/>
       <use x="179.199219" xlink:href="#DejaVuSans-36"/>
      </g>
     </g>
    </g>
    <g id="ytick_12">
     <g id="line2d_25">
      <g>
       <use style="stroke:#000000;stroke-width:0.8;" x="472.926316" xlink:href="#mfca6952662" y="247.536"/>
      </g>
     </g>
     <g id="text_26">
      <!-- −0.4 -->
      <g transform="translate(441.643503 251.335219)scale(0.1 -0.1)">
       <use xlink:href="#DejaVuSans-2212"/>
       <use x="83.789062" xlink:href="#DejaVuSans-30"/>
       <use x="147.412109" xlink:href="#DejaVuSans-2e"/>
       <use x="179.199219" xlink:href="#DejaVuSans-34"/>
      </g>
     </g>
    </g>
    <g id="ytick_13">
     <g id="line2d_26">
      <g>
       <use style="stroke:#000000;stroke-width:0.8;" x="472.926316" xlink:href="#mfca6952662" y="204.048"/>
      </g>
     </g>
     <g id="text_27">
      <!-- −0.2 -->
      <g transform="translate(441.643503 207.847219)scale(0.1 -0.1)">
       <use xlink:href="#DejaVuSans-2212"/>
       <use x="83.789062" xlink:href="#DejaVuSans-30"/>
       <use x="147.412109" xlink:href="#DejaVuSans-2e"/>
       <use x="179.199219" xlink:href="#DejaVuSans-32"/>
      </g>
     </g>
    </g>
    <g id="ytick_14">
     <g id="line2d_27">
      <g>
       <use style="stroke:#000000;stroke-width:0.8;" x="472.926316" xlink:href="#mfca6952662" y="160.56"/>
      </g>
     </g>
     <g id="text_28">
      <!-- 0.0 -->
      <g transform="translate(450.023191 164.359219)scale(0.1 -0.1)">
       <use xlink:href="#DejaVuSans-30"/>
       <use x="63.623047" xlink:href="#DejaVuSans-2e"/>
       <use x="95.410156" xlink:href="#DejaVuSans-30"/>
      </g>
     </g>
    </g>
    <g id="ytick_15">
     <g id="line2d_28">
      <g>
       <use style="stroke:#000000;stroke-width:0.8;" x="472.926316" xlink:href="#mfca6952662" y="117.072"/>
      </g>
     </g>
     <g id="text_29">
      <!-- 0.2 -->
      <g transform="translate(450.023191 120.871219)scale(0.1 -0.1)">
       <use xlink:href="#DejaVuSans-30"/>
       <use x="63.623047" xlink:href="#DejaVuSans-2e"/>
       <use x="95.410156" xlink:href="#DejaVuSans-32"/>
      </g>
     </g>
    </g>
    <g id="ytick_16">
     <g id="line2d_29">
      <g>
       <use style="stroke:#000000;stroke-width:0.8;" x="472.926316" xlink:href="#mfca6952662" y="73.584"/>
      </g>
     </g>
     <g id="text_30">
      <!-- 0.4 -->
      <g transform="translate(450.023191 77.383219)scale(0.1 -0.1)">
       <use xlink:href="#DejaVuSans-30"/>
       <use x="63.623047" xlink:href="#DejaVuSans-2e"/>
       <use x="95.410156" xlink:href="#DejaVuSans-34"/>
      </g>
     </g>
    </g>
    <g id="text_31">
     <!-- $f(x, \mu)$ -->
     <g transform="translate(435.543503 229.32)rotate(-90)scale(0.1 -0.1)">
      <use transform="translate(0 0.015625)" xlink:href="#DejaVuSans-Oblique-66"/>
      <use transform="translate(35.205078 0.015625)" xlink:href="#DejaVuSans-28"/>
      <use transform="translate(74.21875 0.015625)" xlink:href="#DejaVuSans-Oblique-78"/>
      <use transform="translate(133.398438 0.015625)" xlink:href="#DejaVuSans-2c"/>
      <use transform="translate(184.667969 0.015625)" xlink:href="#DejaVuSans-Oblique-3bc"/>
      <use transform="translate(248.291016 0.015625)" xlink:href="#DejaVuSans-29"/>
     </g>
    </g>
   </g>
   <g id="line2d_30">
    <path clip-path="url(#p45e1388696)" d="M 537.803168 433 
L 541.061053 400.2876 
L 544.585263 367.2639 
L 547.522105 341.612775 
L 550.458947 317.6604 
L 553.395789 295.406775 
L 556.332632 274.8519 
L 559.269474 255.995775 
L 562.206316 238.8384 
L 564.555789 226.3356 
L 566.905263 214.92 
L 569.254737 204.5916 
L 571.604211 195.3504 
L 573.953684 187.1964 
L 575.715789 181.794375 
L 577.477895 177.0039 
L 579.24 172.824975 
L 581.002105 169.2576 
L 582.764211 166.301775 
L 583.938947 164.670975 
L 585.113684 163.311975 
L 586.288421 162.224775 
L 587.463158 161.409375 
L 588.637895 160.865775 
L 589.812632 160.593975 
L 590.987368 160.593975 
L 592.162105 160.865775 
L 593.336842 161.409375 
L 594.511579 162.224775 
L 595.686316 163.311975 
L 596.861053 164.670975 
L 598.035789 166.301775 
L 599.797895 169.2576 
L 601.56 172.824975 
L 603.322105 177.0039 
L 605.084211 181.794375 
L 606.846316 187.1964 
L 608.608421 193.209975 
L 610.957895 202.179375 
L 613.307368 212.235975 
L 615.656842 223.379775 
L 618.006316 235.610775 
L 620.355789 248.928975 
L 622.705263 263.334375 
L 625.642105 282.87 
L 628.578947 304.104375 
L 631.515789 327.0375 
L 634.452632 351.669375 
L 637.389474 378 
L 640.913684 411.8391 
L 642.996832 433 
L 642.996832 433 
" style="fill:none;stroke:#000000;stroke-linecap:square;stroke-width:1.5;"/>
   </g>
   <g id="line2d_31">
    <path clip-path="url(#p45e1388696)" d="M 472.926316 160.56 
L 707.873684 160.56 
" style="fill:none;stroke:#000000;stroke-linecap:square;stroke-width:1.25;"/>
   </g>
   <g id="line2d_32">
    <path clip-path="url(#p45e1388696)" d="M 590.4 433 
L 590.4 -1 
" style="fill:none;stroke:#000000;stroke-linecap:square;stroke-width:1.25;"/>
   </g>
   <g id="patch_11">
    <path d="M 472.926316 378 
L 472.926316 51.84 
" style="fill:none;stroke:#000000;stroke-linecap:square;stroke-linejoin:miter;stroke-width:0.8;"/>
   </g>
   <g id="patch_12">
    <path d="M 707.873684 378 
L 707.873684 51.84 
" style="fill:none;stroke:#000000;stroke-linecap:square;stroke-linejoin:miter;stroke-width:0.8;"/>
   </g>
   <g id="patch_13">
    <path d="M 472.926316 378 
L 707.873684 378 
" style="fill:none;stroke:#000000;stroke-linecap:square;stroke-linejoin:miter;stroke-width:0.8;"/>
   </g>
   <g id="patch_14">
    <path d="M 472.926316 51.84 
L 707.873684 51.84 
" style="fill:none;stroke:#000000;stroke-linecap:square;stroke-linejoin:miter;stroke-width:0.8;"/>
   </g>
   <g id="text_32">
    <!-- $\mu = 0.0$ -->
    <g transform="translate(592.749474 95.328)scale(0.1 -0.1)">
     <use transform="translate(0 0.78125)" xlink:href="#DejaVuSans-Oblique-3bc"/>
     <use transform="translate(83.105469 0.78125)" xlink:href="#DejaVuSans-3d"/>
     <use transform="translate(186.376953 0.78125)" xlink:href="#DejaVuSans-30"/>
     <use transform="translate(250 0.78125)" xlink:href="#DejaVuSans-2e"/>
     <use transform="translate(281.787109 0.78125)" xlink:href="#DejaVuSans-30"/>
    </g>
   </g>
   <g id="patch_15">
    <path d="M 660.884928 160.56 
Q 652.638385 160.56 644.391842 160.56 
L 644.391842 164.06 
Q 640.891614 162.31 637.391386 160.56 
Q 640.891614 158.81 644.391842 157.06 
L 644.391842 160.56 
Q 652.638385 160.56 660.884928 160.56 
L 660.884928 160.56 
z
" style="stroke:#000000;stroke-linecap:round;"/>
   </g>
   <g id="patch_16">
    <path d="M 543.411243 160.56 
Q 535.1647 160.56 526.918157 160.56 
L 526.918157 164.06 
Q 523.417929 162.31 519.917701 160.56 
Q 523.417929 158.81 526.918157 157.06 
L 526.918157 160.56 
Q 535.1647 160.56 543.411243 160.56 
L 543.411243 160.56 
z
" style="stroke:#000000;stroke-linecap:round;"/>
   </g>
  </g>
  <g id="axes_3">
   <g id="patch_17">
    <path d="M 801.852632 378 
L 1036.8 378 
L 1036.8 51.84 
L 801.852632 51.84 
z
" style="fill:#ffffff;"/>
   </g>
   <g id="matplotlib.axis_5">
    <g id="xtick_11">
     <g id="line2d_33">
      <g>
       <use style="stroke:#000000;stroke-width:0.8;" x="825.347368" xlink:href="#m6b0052f765" y="378"/>
      </g>
     </g>
     <g id="text_33">
      <!-- −2 -->
      <g transform="translate(817.976275 392.598437)scale(0.1 -0.1)">
       <use xlink:href="#DejaVuSans-2212"/>
       <use x="83.789062" xlink:href="#DejaVuSans-32"/>
      </g>
     </g>
    </g>
    <g id="xtick_12">
     <g id="line2d_34">
      <g>
       <use style="stroke:#000000;stroke-width:0.8;" x="872.336842" xlink:href="#m6b0052f765" y="378"/>
      </g>
     </g>
     <g id="text_34">
      <!-- −1 -->
      <g transform="translate(864.965748 392.598437)scale(0.1 -0.1)">
       <use xlink:href="#DejaVuSans-2212"/>
       <use x="83.789062" xlink:href="#DejaVuSans-31"/>
      </g>
     </g>
    </g>
    <g id="xtick_13">
     <g id="line2d_35">
      <g>
       <use style="stroke:#000000;stroke-width:0.8;" x="919.326316" xlink:href="#m6b0052f765" y="378"/>
      </g>
     </g>
     <g id="text_35">
      <!-- 0 -->
      <g transform="translate(916.145066 392.598437)scale(0.1 -0.1)">
       <use xlink:href="#DejaVuSans-30"/>
      </g>
     </g>
    </g>
    <g id="xtick_14">
     <g id="line2d_36">
      <g>
       <use style="stroke:#000000;stroke-width:0.8;" x="966.315789" xlink:href="#m6b0052f765" y="378"/>
      </g>
     </g>
     <g id="text_36">
      <!-- 1 -->
      <g transform="translate(963.134539 392.598437)scale(0.1 -0.1)">
       <use xlink:href="#DejaVuSans-31"/>
      </g>
     </g>
    </g>
    <g id="xtick_15">
     <g id="line2d_37">
      <g>
       <use style="stroke:#000000;stroke-width:0.8;" x="1013.305263" xlink:href="#m6b0052f765" y="378"/>
      </g>
     </g>
     <g id="text_37">
      <!-- 2 -->
      <g transform="translate(1010.124013 392.598437)scale(0.1 -0.1)">
       <use xlink:href="#DejaVuSans-32"/>
      </g>
     </g>
    </g>
    <g id="text_38">
     <!-- $x$ -->
     <g transform="translate(916.326316 406.276563)scale(0.1 -0.1)">
      <use transform="translate(0 0.3125)" xlink:href="#DejaVuSans-Oblique-78"/>
     </g>
    </g>
   </g>
   <g id="matplotlib.axis_6">
    <g id="ytick_17">
     <g id="line2d_38">
      <g>
       <use style="stroke:#000000;stroke-width:0.8;" x="801.852632" xlink:href="#mfca6952662" y="378"/>
      </g>
     </g>
     <g id="text_39">
      <!-- −1.0 -->
      <g transform="translate(770.569819 381.799219)scale(0.1 -0.1)">
       <use xlink:href="#DejaVuSans-2212"/>
       <use x="83.789062" xlink:href="#DejaVuSans-31"/>
       <use x="147.412109" xlink:href="#DejaVuSans-2e"/>
       <use x="179.199219" xlink:href="#DejaVuSans-30"/>
      </g>
     </g>
    </g>
    <g id="ytick_18">
     <g id="line2d_39">
      <g>
       <use style="stroke:#000000;stroke-width:0.8;" x="801.852632" xlink:href="#mfca6952662" y="334.512"/>
      </g>
     </g>
     <g id="text_40">
      <!-- −0.8 -->
      <g transform="translate(770.569819 338.311219)scale(0.1 -0.1)">
       <use xlink:href="#DejaVuSans-2212"/>
       <use x="83.789062" xlink:href="#DejaVuSans-30"/>
       <use x="147.412109" xlink:href="#DejaVuSans-2e"/>
       <use x="179.199219" xlink:href="#DejaVuSans-38"/>
      </g>
     </g>
    </g>
    <g id="ytick_19">
     <g id="line2d_40">
      <g>
       <use style="stroke:#000000;stroke-width:0.8;" x="801.852632" xlink:href="#mfca6952662" y="291.024"/>
      </g>
     </g>
     <g id="text_41">
      <!-- −0.6 -->
      <g transform="translate(770.569819 294.823219)scale(0.1 -0.1)">
       <use xlink:href="#DejaVuSans-2212"/>
       <use x="83.789062" xlink:href="#DejaVuSans-30"/>
       <use x="147.412109" xlink:href="#DejaVuSans-2e"/>
       <use x="179.199219" xlink:href="#DejaVuSans-36"/>
      </g>
     </g>
    </g>
    <g id="ytick_20">
     <g id="line2d_41">
      <g>
       <use style="stroke:#000000;stroke-width:0.8;" x="801.852632" xlink:href="#mfca6952662" y="247.536"/>
      </g>
     </g>
     <g id="text_42">
      <!-- −0.4 -->
      <g transform="translate(770.569819 251.335219)scale(0.1 -0.1)">
       <use xlink:href="#DejaVuSans-2212"/>
       <use x="83.789062" xlink:href="#DejaVuSans-30"/>
       <use x="147.412109" xlink:href="#DejaVuSans-2e"/>
       <use x="179.199219" xlink:href="#DejaVuSans-34"/>
      </g>
     </g>
    </g>
    <g id="ytick_21">
     <g id="line2d_42">
      <g>
       <use style="stroke:#000000;stroke-width:0.8;" x="801.852632" xlink:href="#mfca6952662" y="204.048"/>
      </g>
     </g>
     <g id="text_43">
      <!-- −0.2 -->
      <g transform="translate(770.569819 207.847219)scale(0.1 -0.1)">
       <use xlink:href="#DejaVuSans-2212"/>
       <use x="83.789062" xlink:href="#DejaVuSans-30"/>
       <use x="147.412109" xlink:href="#DejaVuSans-2e"/>
       <use x="179.199219" xlink:href="#DejaVuSans-32"/>
      </g>
     </g>
    </g>
    <g id="ytick_22">
     <g id="line2d_43">
      <g>
       <use style="stroke:#000000;stroke-width:0.8;" x="801.852632" xlink:href="#mfca6952662" y="160.56"/>
      </g>
     </g>
     <g id="text_44">
      <!-- 0.0 -->
      <g transform="translate(778.949507 164.359219)scale(0.1 -0.1)">
       <use xlink:href="#DejaVuSans-30"/>
       <use x="63.623047" xlink:href="#DejaVuSans-2e"/>
       <use x="95.410156" xlink:href="#DejaVuSans-30"/>
      </g>
     </g>
    </g>
    <g id="ytick_23">
     <g id="line2d_44">
      <g>
       <use style="stroke:#000000;stroke-width:0.8;" x="801.852632" xlink:href="#mfca6952662" y="117.072"/>
      </g>
     </g>
     <g id="text_45">
      <!-- 0.2 -->
      <g transform="translate(778.949507 120.871219)scale(0.1 -0.1)">
       <use xlink:href="#DejaVuSans-30"/>
       <use x="63.623047" xlink:href="#DejaVuSans-2e"/>
       <use x="95.410156" xlink:href="#DejaVuSans-32"/>
      </g>
     </g>
    </g>
    <g id="ytick_24">
     <g id="line2d_45">
      <g>
       <use style="stroke:#000000;stroke-width:0.8;" x="801.852632" xlink:href="#mfca6952662" y="73.584"/>
      </g>
     </g>
     <g id="text_46">
      <!-- 0.4 -->
      <g transform="translate(778.949507 77.383219)scale(0.1 -0.1)">
       <use xlink:href="#DejaVuSans-30"/>
       <use x="63.623047" xlink:href="#DejaVuSans-2e"/>
       <use x="95.410156" xlink:href="#DejaVuSans-34"/>
      </g>
     </g>
    </g>
    <g id="text_47">
     <!-- $f(x, \mu)$ -->
     <g transform="translate(764.469819 229.32)rotate(-90)scale(0.1 -0.1)">
      <use transform="translate(0 0.015625)" xlink:href="#DejaVuSans-Oblique-66"/>
      <use transform="translate(35.205078 0.015625)" xlink:href="#DejaVuSans-28"/>
      <use transform="translate(74.21875 0.015625)" xlink:href="#DejaVuSans-Oblique-78"/>
      <use transform="translate(133.398438 0.015625)" xlink:href="#DejaVuSans-2c"/>
      <use transform="translate(184.667969 0.015625)" xlink:href="#DejaVuSans-Oblique-3bc"/>
      <use transform="translate(248.291016 0.015625)" xlink:href="#DejaVuSans-29"/>
     </g>
    </g>
   </g>
   <g id="line2d_46">
    <path clip-path="url(#pe19f1230e7)" d="M 885.214709 433 
L 888.195789 400.049775 
L 891.72 363.356775 
L 895.244211 329.109975 
L 898.768421 297.309375 
L 901.705263 272.6775 
L 904.642105 249.744375 
L 907.578947 228.51 
L 910.515789 208.974375 
L 913.452632 191.1375 
L 915.802105 178.0911 
L 918.151579 166.1319 
L 920.501053 155.2599 
L 922.850526 145.4751 
L 925.2 136.7775 
L 926.962105 130.967775 
L 928.724211 125.7696 
L 930.486316 121.182975 
L 932.248421 117.2079 
L 934.010526 113.844375 
L 935.772632 111.0924 
L 936.947368 109.5975 
L 938.122105 108.3744 
L 939.296842 107.4231 
L 940.471579 106.7436 
L 941.646316 106.3359 
L 942.821053 106.2 
L 943.995789 106.3359 
L 945.170526 106.7436 
L 946.345263 107.4231 
L 947.52 108.3744 
L 948.694737 109.5975 
L 949.869474 111.0924 
L 951.044211 112.8591 
L 952.806316 116.018775 
L 954.568421 119.79 
L 956.330526 124.172775 
L 958.092632 129.1671 
L 959.854737 134.772975 
L 961.616842 140.9904 
L 963.966316 150.2316 
L 966.315789 160.56 
L 968.665263 171.9756 
L 971.014737 184.4784 
L 973.364211 198.0684 
L 976.301053 216.584775 
L 979.237895 236.7999 
L 982.174737 258.713775 
L 985.111579 282.3264 
L 988.048421 307.637775 
L 990.985263 334.6479 
L 994.509474 369.3024 
L 998.033684 406.4031 
L 1000.427397 433 
L 1000.427397 433 
" style="fill:none;stroke:#000000;stroke-linecap:square;stroke-width:1.5;"/>
   </g>
   <g id="line2d_47">
    <path clip-path="url(#pe19f1230e7)" d="M 801.852632 160.56 
L 1036.8 160.56 
" style="fill:none;stroke:#000000;stroke-linecap:square;stroke-width:1.25;"/>
   </g>
   <g id="line2d_48">
    <path clip-path="url(#pe19f1230e7)" d="M 919.326316 433 
L 919.326316 -1 
" style="fill:none;stroke:#000000;stroke-linecap:square;stroke-width:1.25;"/>
   </g>
   <g id="patch_18">
    <path d="M 801.852632 378 
L 801.852632 51.84 
" style="fill:none;stroke:#000000;stroke-linecap:square;stroke-linejoin:miter;stroke-width:0.8;"/>
   </g>
   <g id="patch_19">
    <path d="M 1036.8 378 
L 1036.8 51.84 
" style="fill:none;stroke:#000000;stroke-linecap:square;stroke-linejoin:miter;stroke-width:0.8;"/>
   </g>
   <g id="patch_20">
    <path d="M 801.852632 378 
L 1036.8 378 
" style="fill:none;stroke:#000000;stroke-linecap:square;stroke-linejoin:miter;stroke-width:0.8;"/>
   </g>
   <g id="patch_21">
    <path d="M 801.852632 51.84 
L 1036.8 51.84 
" style="fill:none;stroke:#000000;stroke-linecap:square;stroke-linejoin:miter;stroke-width:0.8;"/>
   </g>
   <g id="text_48">
    <!-- $\mu = 1.0$ -->
    <g transform="translate(921.675789 95.328)scale(0.1 -0.1)">
     <use transform="translate(0 0.78125)" xlink:href="#DejaVuSans-Oblique-3bc"/>
     <use transform="translate(83.105469 0.78125)" xlink:href="#DejaVuSans-3d"/>
     <use transform="translate(186.376953 0.78125)" xlink:href="#DejaVuSans-31"/>
     <use transform="translate(250 0.78125)" xlink:href="#DejaVuSans-2e"/>
     <use transform="translate(281.787109 0.78125)" xlink:href="#DejaVuSans-30"/>
    </g>
   </g>
   <g id="patch_22">
    <path d="M 1008.608897 160.56 
Q 1005.058874 160.56 1001.508852 160.56 
L 1001.508852 164.06 
Q 998.010453 162.31 994.512055 160.56 
Q 998.010453 158.81 1001.508852 157.06 
L 1001.508852 160.56 
Q 1005.058874 160.56 1008.608897 160.56 
L 1008.608897 160.56 
z
" style="stroke:#000000;stroke-linecap:round;"/>
   </g>
   <g id="patch_23">
    <path d="M 938.120384 160.56 
Q 939.32058 160.56 940.520775 160.56 
L 940.520775 157.06 
Q 944.020387 158.81 947.52 160.56 
Q 944.020387 162.31 940.520775 164.06 
L 940.520775 160.56 
Q 939.32058 160.56 938.120384 160.56 
L 938.120384 160.56 
z
" style="stroke:#000000;stroke-linecap:round;"/>
   </g>
   <g id="patch_24">
    <path d="M 872.337559 160.56 
Q 864.091016 160.56 855.844473 160.56 
L 855.844473 164.06 
Q 852.344245 162.31 848.844017 160.56 
Q 852.344245 158.81 855.844473 157.06 
L 855.844473 160.56 
Q 864.091016 160.56 872.337559 160.56 
L 872.337559 160.56 
z
" style="stroke:#000000;stroke-linecap:round;"/>
   </g>
  </g>
 </g>
 <defs>
  <clipPath id="p7571bba721">
   <rect height="326.16" width="234.947368" x="144" y="51.84"/>
  </clipPath>
  <clipPath id="p45e1388696">
   <rect height="326.16" width="234.947368" x="472.926316" y="51.84"/>
  </clipPath>
  <clipPath id="pe19f1230e7">
   <rect height="326.16" width="234.947368" x="801.852632" y="51.84"/>
  </clipPath>
 </defs>
</svg>
