<?xml version="1.0" encoding="utf-8" standalone="no"?>
<!DOCTYPE svg PUBLIC "-//W3C//DTD SVG 1.1//EN"
  "http://www.w3.org/Graphics/SVG/1.1/DTD/svg11.dtd">
<svg height="432pt" version="1.1" viewBox="0 0 1152 432" width="1152pt" xmlns="http://www.w3.org/2000/svg" xmlns:xlink="http://www.w3.org/1999/xlink">
 <metadata>
  <rdf:RDF xmlns:cc="http://creativecommons.org/ns#" xmlns:dc="http://purl.org/dc/elements/1.1/" xmlns:rdf="http://www.w3.org/1999/02/22-rdf-syntax-ns#">
   <cc:Work>
    <dc:type rdf:resource="http://purl.org/dc/dcmitype/StillImage"/>
    <dc:date>2021-06-27T11:38:35.303751</dc:date>
    <dc:format>image/svg+xml</dc:format>
    <dc:creator>
     <cc:Agent>
      <dc:title>Matplotlib v3.4.2, https://matplotlib.org/</dc:title>
     </cc:Agent>
    </dc:creator>
   </cc:Work>
  </rdf:RDF>
 </metadata>
 <defs>
  <style type="text/css">*{stroke-linecap:butt;stroke-linejoin:round;}</style>
 </defs>
 <g id="figure_1">
  <g id="patch_1">
   <path d="M 0 432 
L 1152 432 
L 1152 0 
L 0 0 
z
" style="fill:none;"/>
  </g>
  <g id="axes_1">
   <g id="patch_2">
    <path d="M 144 378 
L 378.947368 378 
L 378.947368 51.84 
L 144 51.84 
z
" style="fill:#ffffff;"/>
   </g>
   <g id="PathCollection_1">
    <defs>
     <path d="M 0 1.5 
C 0.397805 1.5 0.77937 1.341951 1.06066 1.06066 
C 1.341951 0.77937 1.5 0.397805 1.5 0 
C 1.5 -0.397805 1.341951 -0.77937 1.06066 -1.06066 
C 0.77937 -1.341951 0.397805 -1.5 0 -1.5 
C -0.397805 -1.5 -0.77937 -1.341951 -1.06066 -1.06066 
C -1.341951 -0.77937 -1.5 -0.397805 -1.5 0 
C -1.5 0.397805 -1.341951 0.77937 -1.06066 1.06066 
C -0.77937 1.341951 -0.397805 1.5 0 1.5 
z
" id="mcdb794237a" style="stroke:#000000;"/>
    </defs>
    <g clip-path="url(#p8ccc3c5c1f)">
     <use style="stroke:#000000;" x="261.473684" xlink:href="#mcdb794237a" y="214.92"/>
     <use style="stroke:#000000;" x="245.810526" xlink:href="#mcdb794237a" y="236.664"/>
     <use style="stroke:#000000;" x="228.581053" xlink:href="#mcdb794237a" y="260.5824"/>
     <use style="stroke:#000000;" x="206.010442" xlink:href="#mcdb794237a" y="291.915504"/>
     <use style="stroke:#000000;" x="170.70775" xlink:href="#mcdb794237a" y="340.923612"/>
     <use style="stroke:#000000;" x="102.446931" xlink:href="#mcdb794237a" y="435.685043"/>
     <use style="stroke:#000000;" x="-1" xlink:href="#mcdb794237a" y="579.292742"/>
    </g>
   </g>
   <g id="Quiver_1">
    <path clip-path="url(#p8ccc3c5c1f)" d="M 262.354737 214.92 
L 262.354737 228.734526 
L 264.116842 227.853474 
L 261.473684 236.664 
L 258.830526 227.853474 
L 260.592632 228.734526 
L 260.592632 214.92 
L 262.354737 214.92 
"/>
   </g>
   <g id="Quiver_2">
    <path clip-path="url(#p8ccc3c5c1f)" d="M 261.473684 237.545053 
L 253.74 237.545053 
L 254.621053 239.307158 
L 245.810526 236.664 
L 254.621053 234.020842 
L 253.74 235.782947 
L 261.473684 235.782947 
L 261.473684 237.545053 
"/>
   </g>
   <g id="Quiver_3">
    <path clip-path="url(#p8ccc3c5c1f)" d="M 246.691579 236.664 
L 246.691579 252.652926 
L 248.453684 251.771874 
L 245.810526 260.5824 
L 243.167368 251.771874 
L 244.929474 252.652926 
L 244.929474 236.664 
L 246.691579 236.664 
"/>
   </g>
   <g id="Quiver_4">
    <path clip-path="url(#p8ccc3c5c1f)" d="M 245.810526 261.463453 
L 236.510526 261.463453 
L 237.391579 263.225558 
L 228.581053 260.5824 
L 237.391579 257.939242 
L 236.510526 259.701347 
L 245.810526 259.701347 
L 245.810526 261.463453 
"/>
   </g>
   <g id="Quiver_5">
    <path clip-path="url(#p8ccc3c5c1f)" d="M 229.462105 260.5824 
L 229.462105 283.98603 
L 231.224211 283.104978 
L 228.581053 291.915504 
L 225.937895 283.104978 
L 227.7 283.98603 
L 227.7 260.5824 
L 229.462105 260.5824 
"/>
   </g>
   <g id="Quiver_6">
    <path clip-path="url(#p8ccc3c5c1f)" d="M 228.581053 292.796557 
L 213.939916 292.796557 
L 214.820968 294.558662 
L 206.010442 291.915504 
L 214.820968 289.272346 
L 213.939916 291.034451 
L 228.581053 291.034451 
L 228.581053 292.796557 
"/>
   </g>
   <g id="Quiver_7">
    <path clip-path="url(#p8ccc3c5c1f)" d="M 206.891495 291.915504 
L 206.891495 332.994138 
L 208.6536 332.113086 
L 206.010442 340.923612 
L 203.367284 332.113086 
L 205.129389 332.994138 
L 205.129389 291.915504 
L 206.891495 291.915504 
"/>
   </g>
   <g id="Quiver_8">
    <path clip-path="url(#p8ccc3c5c1f)" d="M 206.010442 341.804665 
L 178.637224 341.804665 
L 179.518276 343.56677 
L 170.70775 340.923612 
L 179.518276 338.280454 
L 178.637224 340.042559 
L 206.010442 340.042559 
L 206.010442 341.804665 
"/>
   </g>
   <g id="Quiver_9">
    <path clip-path="url(#p8ccc3c5c1f)" d="M 171.588803 340.923612 
L 171.588803 427.755569 
L 173.350908 426.874517 
L 170.70775 435.685043 
L 168.064592 426.874517 
L 169.826698 427.755569 
L 169.826698 340.923612 
L 171.588803 340.923612 
"/>
   </g>
   <g id="Quiver_10">
    <path clip-path="url(#p8ccc3c5c1f)" d="M 170.70775 436.566096 
L 110.376404 436.566096 
L 111.257457 438.328201 
L 102.446931 435.685043 
L 111.257457 433.041885 
L 110.376404 434.80399 
L 170.70775 434.80399 
L 170.70775 436.566096 
"/>
   </g>
   <g id="Quiver_11">
    <path clip-path="url(#p8ccc3c5c1f)" d="M 103.327983 435.685043 
L 103.327983 673.640501 
L 105.090089 672.759449 
L 102.446931 681.569975 
L 99.803773 672.759449 
L 101.565878 673.640501 
L 101.565878 435.685043 
L 103.327983 435.685043 
"/>
   </g>
   <g id="Quiver_12">
    <path clip-path="url(#p8ccc3c5c1f)" d="M 102.446931 682.451028 
L -66.745308 682.451028 
L -65.864255 684.213133 
L -74.674782 681.569975 
L -65.864255 678.926817 
L -66.745308 680.688923 
L 102.446931 680.688923 
L 102.446931 682.451028 
"/>
   </g>
   <g id="Quiver_13">
    <path clip-path="url(#p8ccc3c5c1f)" d="M -73.793729 681.569975 
L -73.793729 1696.866286 
L -72.031624 1695.985234 
L -74.674782 1704.79576 
L -77.31794 1695.985234 
L -75.555834 1696.866286 
L -75.555834 681.569975 
L -73.793729 681.569975 
"/>
   </g>
   <g id="Quiver_14">
    <path clip-path="url(#p8ccc3c5c1f)" d="M -74.674782 1705.676813 
L -803.819767 1705.676813 
L -802.938714 1707.438918 
L -811.74924 1704.79576 
L -802.938714 1702.152602 
L -803.819767 1703.914707 
L -74.674782 1703.914707 
L -74.674782 1705.676813 
"/>
   </g>
   <g id="PathCollection_2">
    <g clip-path="url(#p8ccc3c5c1f)">
     <use style="stroke:#000000;" x="417.01034" xlink:href="#mcdb794237a" y="-1"/>
     <use style="stroke:#000000;" x="-1" xlink:href="#mcdb794237a" y="579.292742"/>
    </g>
   </g>
   <g id="Quiver_15">
    <path clip-path="url(#p8ccc3c5c1f)" d="M 1045.512632 -872.28 
L 1045.512632 4577.534526 
L 1047.274737 4576.653474 
L 1044.631579 4585.464 
L 1041.988421 4576.653474 
L 1043.750526 4577.534526 
L 1043.750526 -872.28 
L 1045.512632 -872.28 
"/>
   </g>
   <g id="Quiver_16">
    <path clip-path="url(#p8ccc3c5c1f)" d="M 1044.631579 4586.345053 
L -2878.891579 4586.345053 
L -2878.010526 4588.107158 
L -2886.821053 4585.464 
L -2878.010526 4582.820842 
L -2878.891579 4584.582947 
L 1044.631579 4584.582947 
L 1044.631579 4586.345053 
"/>
   </g>
   <g id="Quiver_17">
    <path clip-path="url(#p8ccc3c5c1f)" d="M -2885.94 4585.464 
L -2885.94 92447.212926 
L -2884.177895 92446.331874 
L -2886.821053 92455.1424 
L -2889.464211 92446.331874 
L -2887.702105 92447.212926 
L -2887.702105 4585.464 
L -2885.94 4585.464 
"/>
   </g>
   <g id="Quiver_18">
    <path clip-path="url(#p8ccc3c5c1f)" d="M -2886.821053 92456.023453 
L -66175.278947 92456.023453 
L -66174.397895 92457.785558 
L -66183.208421 92455.1424 
L -66174.397895 92452.499242 
L -66175.278947 92454.261347 
L -2886.821053 92454.261347 
L -2886.821053 92456.023453 
"/>
   </g>
   <g id="Quiver_19">
    <path clip-path="url(#p8ccc3c5c1f)" d="M -66182.327368 92455.1424 
L -66182.327368 207928.543453 
L -66180.565263 207927.6624 
L -66183.208421 207936.472926 
L -66185.851579 207927.6624 
L -66184.089474 207928.543453 
L -66184.089474 92455.1424 
L -66182.327368 92455.1424 
"/>
   </g>
   <g id="Quiver_20">
    <path clip-path="url(#p8ccc3c5c1f)" d="M -66183.208421 39221702.511757 
L -181656.609474 39221702.511757 
L -181655.728421 39221704.273862 
L -181664.538947 39221701.630704 
L -181655.728421 39221698.987546 
L -181656.609474 39221700.749651 
L -66183.208421 39221700.749651 
L -66183.208421 39221702.511757 
"/>
   </g>
   <g id="Quiver_21">
    <path clip-path="url(#p8ccc3c5c1f)" d="M -28252696.5864 39221701.630704 
L -28252696.5864 39337175.031757 
L -28252694.824295 39337174.150704 
L -28252697.467453 39337182.96123 
L -28252700.110611 39337174.150704 
L -28252698.348505 39337175.031757 
L -28252698.348505 39221701.630704 
L -28252696.5864 39221701.630704 
"/>
   </g>
   <g id="Quiver_22">
    <path clip-path="url(#p8ccc3c5c1f)" d="M -28252697.467453 7074749577675.005859 
L -28368170.868505 7074749577675.005859 
L -28368169.987453 7074749577676.768555 
L -28368178.797979 7074749577674.125 
L -28368169.987453 7074749577671.481445 
L -28368170.868505 7074749577673.244141 
L -28252697.467453 7074749577673.244141 
L -28252697.467453 7074749577675.005859 
"/>
   </g>
   <g id="Quiver_23">
    <path clip-path="url(#p8ccc3c5c1f)" d="M -5096252745206.110352 7074749577674.125 
L -5096252745206.110352 7074749693147.526367 
L -5096252745204.347656 7074749693146.644531 
L -5096252745206.991211 7074749693155.455078 
L -5096252745209.634766 7074749693146.644531 
L -5096252745207.87207 7074749693147.526367 
L -5096252745207.87207 7074749577674.125 
L -5096252745206.110352 7074749577674.125 
"/>
   </g>
   <g id="Quiver_24">
    <path clip-path="url(#p8ccc3c5c1f)" d="M -5096252745206.991211 230188013177416890449920 
L -5096252860680.392578 230188013177416890449920 
L -5096252860679.510742 230188013177416890449920 
L -5096252860688.321289 230188013177416890449920 
L -5096252860679.510742 230188013177416890449920 
L -5096252860680.392578 230188013177416890449920 
L -5096252745206.991211 230188013177416890449920 
L -5096252745206.991211 230188013177416890449920 
"/>
   </g>
   <g id="Quiver_25">
    <path clip-path="url(#p8ccc3c5c1f)" d="M -165814532554895420030976 230188013177416890449920 
L -165814532554895420030976 230188013177416890449920 
L -165814532554895420030976 230188013177416890449920 
L -165814532554895420030976 230188013177416890449920 
L -165814532554895420030976 230188013177416890449920 
L -165814532554895420030976 230188013177416890449920 
L -165814532554895420030976 230188013177416890449920 
L -165814532554895420030976 230188013177416890449920 
"/>
   </g>
   <g id="Quiver_26">
    <path clip-path="url(#p8ccc3c5c1f)" d="M -165814532554895420030976 243683413404004142979665633130270684883189760 
L -165814532554895420030976 243683413404004142979665633130270684883189760 
L -165814532554895420030976 243683413404004142979665633130270684883189760 
L -165814532554895420030976 243683413404004142979665633130270684883189760 
L -165814532554895420030976 243683413404004142979665633130270684883189760 
L -165814532554895420030976 243683413404004142979665633130270684883189760 
L -165814532554895420030976 243683413404004142979665633130270684883189760 
L -165814532554895420030976 243683413404004142979665633130270684883189760 
"/>
   </g>
   <g id="Quiver_27">
    <path clip-path="url(#p8ccc3c5c1f)" d="M -175535861868807474213557405742713638618136576 243683413404004142979665633130270684883189760 
L -175535861868807474213557405742713638618136576 243683413404004142979665633130270684883189760 
L -175535861868807474213557405742713638618136576 243683413404004142979665633130270684883189760 
L -175535861868807474213557405742713638618136576 243683413404004142979665633130270684883189760 
L -175535861868807474213557405742713638618136576 243683413404004142979665633130270684883189760 
L -175535861868807474213557405742713638618136576 243683413404004142979665633130270684883189760 
L -175535861868807474213557405742713638618136576 243683413404004142979665633130270684883189760 
L -175535861868807474213557405742713638618136576 243683413404004142979665633130270684883189760 
"/>
   </g>
   <g id="Quiver_28">
    <path clip-path="url(#p8ccc3c5c1f)" d="M -175535861868807474213557405742713638618136576 273094214349828866086701894419451639368907068550962649244082607425776686840982083207168 
L -175535861868807474213557405742713638618136576 273094214349828866086701894419451639368907068550962649244082607425776686840982083207168 
L -175535861868807474213557405742713638618136576 273094214349828866086701894419451639368907068550962649244082607425776686840982083207168 
L -175535861868807474213557405742713638618136576 273094214349828866086701894419451639368907068550962649244082607425776686840982083207168 
L -175535861868807474213557405742713638618136576 273094214349828866086701894419451639368907068550962649244082607425776686840982083207168 
L -175535861868807474213557405742713638618136576 273094214349828866086701894419451639368907068550962649244082607425776686840982083207168 
L -175535861868807474213557405742713638618136576 273094214349828866086701894419451639368907068550962649244082607425776686840982083207168 
L -175535861868807474213557405742713638618136576 273094214349828866086701894419451639368907068550962649244082607425776686840982083207168 
"/>
   </g>
   <g id="matplotlib.axis_1">
    <g id="xtick_1">
     <g id="line2d_1">
      <defs>
       <path d="M 0 0 
L 0 3.5 
" id="m77456c7f6b" style="stroke:#000000;stroke-width:0.8;"/>
      </defs>
      <g>
       <use style="stroke:#000000;stroke-width:0.8;" x="144" xlink:href="#m77456c7f6b" y="378"/>
      </g>
     </g>
     <g id="text_1">
      <!-- −0.75 -->
      <g transform="translate(128.677344 392.598437)scale(0.1 -0.1)">
       <defs>
        <path d="M 678 2272 
L 4684 2272 
L 4684 1741 
L 678 1741 
L 678 2272 
z
" id="DejaVuSans-2212" transform="scale(0.015625)"/>
        <path d="M 2034 4250 
Q 1547 4250 1301 3770 
Q 1056 3291 1056 2328 
Q 1056 1369 1301 889 
Q 1547 409 2034 409 
Q 2525 409 2770 889 
Q 3016 1369 3016 2328 
Q 3016 3291 2770 3770 
Q 2525 4250 2034 4250 
z
M 2034 4750 
Q 2819 4750 3233 4129 
Q 3647 3509 3647 2328 
Q 3647 1150 3233 529 
Q 2819 -91 2034 -91 
Q 1250 -91 836 529 
Q 422 1150 422 2328 
Q 422 3509 836 4129 
Q 1250 4750 2034 4750 
z
" id="DejaVuSans-30" transform="scale(0.015625)"/>
        <path d="M 684 794 
L 1344 794 
L 1344 0 
L 684 0 
L 684 794 
z
" id="DejaVuSans-2e" transform="scale(0.015625)"/>
        <path d="M 525 4666 
L 3525 4666 
L 3525 4397 
L 1831 0 
L 1172 0 
L 2766 4134 
L 525 4134 
L 525 4666 
z
" id="DejaVuSans-37" transform="scale(0.015625)"/>
        <path d="M 691 4666 
L 3169 4666 
L 3169 4134 
L 1269 4134 
L 1269 2991 
Q 1406 3038 1543 3061 
Q 1681 3084 1819 3084 
Q 2600 3084 3056 2656 
Q 3513 2228 3513 1497 
Q 3513 744 3044 326 
Q 2575 -91 1722 -91 
Q 1428 -91 1123 -41 
Q 819 9 494 109 
L 494 744 
Q 775 591 1075 516 
Q 1375 441 1709 441 
Q 2250 441 2565 725 
Q 2881 1009 2881 1497 
Q 2881 1984 2565 2268 
Q 2250 2553 1709 2553 
Q 1456 2553 1204 2497 
Q 953 2441 691 2322 
L 691 4666 
z
" id="DejaVuSans-35" transform="scale(0.015625)"/>
       </defs>
       <use xlink:href="#DejaVuSans-2212"/>
       <use x="83.789062" xlink:href="#DejaVuSans-30"/>
       <use x="147.412109" xlink:href="#DejaVuSans-2e"/>
       <use x="179.199219" xlink:href="#DejaVuSans-37"/>
       <use x="242.822266" xlink:href="#DejaVuSans-35"/>
      </g>
     </g>
    </g>
    <g id="xtick_2">
     <g id="line2d_2">
      <g>
       <use style="stroke:#000000;stroke-width:0.8;" x="183.157895" xlink:href="#m77456c7f6b" y="378"/>
      </g>
     </g>
     <g id="text_2">
      <!-- −0.50 -->
      <g transform="translate(167.835238 392.598437)scale(0.1 -0.1)">
       <use xlink:href="#DejaVuSans-2212"/>
       <use x="83.789062" xlink:href="#DejaVuSans-30"/>
       <use x="147.412109" xlink:href="#DejaVuSans-2e"/>
       <use x="179.199219" xlink:href="#DejaVuSans-35"/>
       <use x="242.822266" xlink:href="#DejaVuSans-30"/>
      </g>
     </g>
    </g>
    <g id="xtick_3">
     <g id="line2d_3">
      <g>
       <use style="stroke:#000000;stroke-width:0.8;" x="222.315789" xlink:href="#m77456c7f6b" y="378"/>
      </g>
     </g>
     <g id="text_3">
      <!-- −0.25 -->
      <g transform="translate(206.993133 392.598437)scale(0.1 -0.1)">
       <defs>
        <path d="M 1228 531 
L 3431 531 
L 3431 0 
L 469 0 
L 469 531 
Q 828 903 1448 1529 
Q 2069 2156 2228 2338 
Q 2531 2678 2651 2914 
Q 2772 3150 2772 3378 
Q 2772 3750 2511 3984 
Q 2250 4219 1831 4219 
Q 1534 4219 1204 4116 
Q 875 4013 500 3803 
L 500 4441 
Q 881 4594 1212 4672 
Q 1544 4750 1819 4750 
Q 2544 4750 2975 4387 
Q 3406 4025 3406 3419 
Q 3406 3131 3298 2873 
Q 3191 2616 2906 2266 
Q 2828 2175 2409 1742 
Q 1991 1309 1228 531 
z
" id="DejaVuSans-32" transform="scale(0.015625)"/>
       </defs>
       <use xlink:href="#DejaVuSans-2212"/>
       <use x="83.789062" xlink:href="#DejaVuSans-30"/>
       <use x="147.412109" xlink:href="#DejaVuSans-2e"/>
       <use x="179.199219" xlink:href="#DejaVuSans-32"/>
       <use x="242.822266" xlink:href="#DejaVuSans-35"/>
      </g>
     </g>
    </g>
    <g id="xtick_4">
     <g id="line2d_4">
      <g>
       <use style="stroke:#000000;stroke-width:0.8;" x="261.473684" xlink:href="#m77456c7f6b" y="378"/>
      </g>
     </g>
     <g id="text_4">
      <!-- 0.00 -->
      <g transform="translate(250.340872 392.598437)scale(0.1 -0.1)">
       <use xlink:href="#DejaVuSans-30"/>
       <use x="63.623047" xlink:href="#DejaVuSans-2e"/>
       <use x="95.410156" xlink:href="#DejaVuSans-30"/>
       <use x="159.033203" xlink:href="#DejaVuSans-30"/>
      </g>
     </g>
    </g>
    <g id="xtick_5">
     <g id="line2d_5">
      <g>
       <use style="stroke:#000000;stroke-width:0.8;" x="300.631579" xlink:href="#m77456c7f6b" y="378"/>
      </g>
     </g>
     <g id="text_5">
      <!-- 0.25 -->
      <g transform="translate(289.498766 392.598437)scale(0.1 -0.1)">
       <use xlink:href="#DejaVuSans-30"/>
       <use x="63.623047" xlink:href="#DejaVuSans-2e"/>
       <use x="95.410156" xlink:href="#DejaVuSans-32"/>
       <use x="159.033203" xlink:href="#DejaVuSans-35"/>
      </g>
     </g>
    </g>
    <g id="xtick_6">
     <g id="line2d_6">
      <g>
       <use style="stroke:#000000;stroke-width:0.8;" x="339.789474" xlink:href="#m77456c7f6b" y="378"/>
      </g>
     </g>
     <g id="text_6">
      <!-- 0.50 -->
      <g transform="translate(328.656661 392.598437)scale(0.1 -0.1)">
       <use xlink:href="#DejaVuSans-30"/>
       <use x="63.623047" xlink:href="#DejaVuSans-2e"/>
       <use x="95.410156" xlink:href="#DejaVuSans-35"/>
       <use x="159.033203" xlink:href="#DejaVuSans-30"/>
      </g>
     </g>
    </g>
    <g id="xtick_7">
     <g id="line2d_7">
      <g>
       <use style="stroke:#000000;stroke-width:0.8;" x="378.947368" xlink:href="#m77456c7f6b" y="378"/>
      </g>
     </g>
     <g id="text_7">
      <!-- 0.75 -->
      <g transform="translate(367.814556 392.598437)scale(0.1 -0.1)">
       <use xlink:href="#DejaVuSans-30"/>
       <use x="63.623047" xlink:href="#DejaVuSans-2e"/>
       <use x="95.410156" xlink:href="#DejaVuSans-37"/>
       <use x="159.033203" xlink:href="#DejaVuSans-35"/>
      </g>
     </g>
    </g>
    <g id="text_8">
     <!-- $x$ -->
     <g transform="translate(258.473684 406.276563)scale(0.1 -0.1)">
      <defs>
       <path d="M 3841 3500 
L 2234 1784 
L 3219 0 
L 2559 0 
L 1819 1388 
L 531 0 
L -166 0 
L 1556 1844 
L 641 3500 
L 1300 3500 
L 1972 2234 
L 3144 3500 
L 3841 3500 
z
" id="DejaVuSans-Oblique-78" transform="scale(0.015625)"/>
      </defs>
      <use transform="translate(0 0.3125)" xlink:href="#DejaVuSans-Oblique-78"/>
     </g>
    </g>
   </g>
   <g id="matplotlib.axis_2">
    <g id="ytick_1">
     <g id="line2d_8">
      <defs>
       <path d="M 0 0 
L -3.5 0 
" id="mc57347536b" style="stroke:#000000;stroke-width:0.8;"/>
      </defs>
      <g>
       <use style="stroke:#000000;stroke-width:0.8;" x="144" xlink:href="#mc57347536b" y="345.384"/>
      </g>
     </g>
     <g id="text_9">
      <!-- −0.6 -->
      <g transform="translate(112.717187 349.183219)scale(0.1 -0.1)">
       <defs>
        <path d="M 2113 2584 
Q 1688 2584 1439 2293 
Q 1191 2003 1191 1497 
Q 1191 994 1439 701 
Q 1688 409 2113 409 
Q 2538 409 2786 701 
Q 3034 994 3034 1497 
Q 3034 2003 2786 2293 
Q 2538 2584 2113 2584 
z
M 3366 4563 
L 3366 3988 
Q 3128 4100 2886 4159 
Q 2644 4219 2406 4219 
Q 1781 4219 1451 3797 
Q 1122 3375 1075 2522 
Q 1259 2794 1537 2939 
Q 1816 3084 2150 3084 
Q 2853 3084 3261 2657 
Q 3669 2231 3669 1497 
Q 3669 778 3244 343 
Q 2819 -91 2113 -91 
Q 1303 -91 875 529 
Q 447 1150 447 2328 
Q 447 3434 972 4092 
Q 1497 4750 2381 4750 
Q 2619 4750 2861 4703 
Q 3103 4656 3366 4563 
z
" id="DejaVuSans-36" transform="scale(0.015625)"/>
       </defs>
       <use xlink:href="#DejaVuSans-2212"/>
       <use x="83.789062" xlink:href="#DejaVuSans-30"/>
       <use x="147.412109" xlink:href="#DejaVuSans-2e"/>
       <use x="179.199219" xlink:href="#DejaVuSans-36"/>
      </g>
     </g>
    </g>
    <g id="ytick_2">
     <g id="line2d_9">
      <g>
       <use style="stroke:#000000;stroke-width:0.8;" x="144" xlink:href="#mc57347536b" y="301.896"/>
      </g>
     </g>
     <g id="text_10">
      <!-- −0.4 -->
      <g transform="translate(112.717187 305.695219)scale(0.1 -0.1)">
       <defs>
        <path d="M 2419 4116 
L 825 1625 
L 2419 1625 
L 2419 4116 
z
M 2253 4666 
L 3047 4666 
L 3047 1625 
L 3713 1625 
L 3713 1100 
L 3047 1100 
L 3047 0 
L 2419 0 
L 2419 1100 
L 313 1100 
L 313 1709 
L 2253 4666 
z
" id="DejaVuSans-34" transform="scale(0.015625)"/>
       </defs>
       <use xlink:href="#DejaVuSans-2212"/>
       <use x="83.789062" xlink:href="#DejaVuSans-30"/>
       <use x="147.412109" xlink:href="#DejaVuSans-2e"/>
       <use x="179.199219" xlink:href="#DejaVuSans-34"/>
      </g>
     </g>
    </g>
    <g id="ytick_3">
     <g id="line2d_10">
      <g>
       <use style="stroke:#000000;stroke-width:0.8;" x="144" xlink:href="#mc57347536b" y="258.408"/>
      </g>
     </g>
     <g id="text_11">
      <!-- −0.2 -->
      <g transform="translate(112.717187 262.207219)scale(0.1 -0.1)">
       <use xlink:href="#DejaVuSans-2212"/>
       <use x="83.789062" xlink:href="#DejaVuSans-30"/>
       <use x="147.412109" xlink:href="#DejaVuSans-2e"/>
       <use x="179.199219" xlink:href="#DejaVuSans-32"/>
      </g>
     </g>
    </g>
    <g id="ytick_4">
     <g id="line2d_11">
      <g>
       <use style="stroke:#000000;stroke-width:0.8;" x="144" xlink:href="#mc57347536b" y="214.92"/>
      </g>
     </g>
     <g id="text_12">
      <!-- 0.0 -->
      <g transform="translate(121.096875 218.719219)scale(0.1 -0.1)">
       <use xlink:href="#DejaVuSans-30"/>
       <use x="63.623047" xlink:href="#DejaVuSans-2e"/>
       <use x="95.410156" xlink:href="#DejaVuSans-30"/>
      </g>
     </g>
    </g>
    <g id="ytick_5">
     <g id="line2d_12">
      <g>
       <use style="stroke:#000000;stroke-width:0.8;" x="144" xlink:href="#mc57347536b" y="171.432"/>
      </g>
     </g>
     <g id="text_13">
      <!-- 0.2 -->
      <g transform="translate(121.096875 175.231219)scale(0.1 -0.1)">
       <use xlink:href="#DejaVuSans-30"/>
       <use x="63.623047" xlink:href="#DejaVuSans-2e"/>
       <use x="95.410156" xlink:href="#DejaVuSans-32"/>
      </g>
     </g>
    </g>
    <g id="ytick_6">
     <g id="line2d_13">
      <g>
       <use style="stroke:#000000;stroke-width:0.8;" x="144" xlink:href="#mc57347536b" y="127.944"/>
      </g>
     </g>
     <g id="text_14">
      <!-- 0.4 -->
      <g transform="translate(121.096875 131.743219)scale(0.1 -0.1)">
       <use xlink:href="#DejaVuSans-30"/>
       <use x="63.623047" xlink:href="#DejaVuSans-2e"/>
       <use x="95.410156" xlink:href="#DejaVuSans-34"/>
      </g>
     </g>
    </g>
    <g id="ytick_7">
     <g id="line2d_14">
      <g>
       <use style="stroke:#000000;stroke-width:0.8;" x="144" xlink:href="#mc57347536b" y="84.456"/>
      </g>
     </g>
     <g id="text_15">
      <!-- 0.6 -->
      <g transform="translate(121.096875 88.255219)scale(0.1 -0.1)">
       <use xlink:href="#DejaVuSans-30"/>
       <use x="63.623047" xlink:href="#DejaVuSans-2e"/>
       <use x="95.410156" xlink:href="#DejaVuSans-36"/>
      </g>
     </g>
    </g>
    <g id="text_16">
     <!-- $f(x, \mu)$ -->
     <g transform="translate(106.617188 229.32)rotate(-90)scale(0.1 -0.1)">
      <defs>
       <path d="M 3059 4863 
L 2969 4384 
L 2419 4384 
Q 2106 4384 1964 4261 
Q 1822 4138 1753 3809 
L 1691 3500 
L 2638 3500 
L 2553 3053 
L 1606 3053 
L 1013 0 
L 434 0 
L 1031 3053 
L 481 3053 
L 563 3500 
L 1113 3500 
L 1159 3744 
Q 1278 4363 1576 4613 
Q 1875 4863 2516 4863 
L 3059 4863 
z
" id="DejaVuSans-Oblique-66" transform="scale(0.015625)"/>
       <path d="M 1984 4856 
Q 1566 4138 1362 3434 
Q 1159 2731 1159 2009 
Q 1159 1288 1364 580 
Q 1569 -128 1984 -844 
L 1484 -844 
Q 1016 -109 783 600 
Q 550 1309 550 2009 
Q 550 2706 781 3412 
Q 1013 4119 1484 4856 
L 1984 4856 
z
" id="DejaVuSans-28" transform="scale(0.015625)"/>
       <path d="M 750 794 
L 1409 794 
L 1409 256 
L 897 -744 
L 494 -744 
L 750 256 
L 750 794 
z
" id="DejaVuSans-2c" transform="scale(0.015625)"/>
       <path d="M -84 -1331 
L 856 3500 
L 1434 3500 
L 1009 1322 
Q 997 1256 987 1175 
Q 978 1094 978 1013 
Q 978 722 1161 565 
Q 1344 409 1684 409 
Q 2147 409 2431 671 
Q 2716 934 2816 1459 
L 3213 3500 
L 3788 3500 
L 3266 809 
Q 3253 750 3248 706 
Q 3244 663 3244 628 
Q 3244 531 3283 486 
Q 3322 441 3406 441 
Q 3438 441 3492 456 
Q 3547 472 3647 513 
L 3559 50 
Q 3422 -19 3297 -55 
Q 3172 -91 3053 -91 
Q 2847 -91 2730 40 
Q 2613 172 2613 403 
Q 2438 153 2195 31 
Q 1953 -91 1625 -91 
Q 1334 -91 1117 43 
Q 900 178 831 397 
L 494 -1331 
L -84 -1331 
z
" id="DejaVuSans-Oblique-3bc" transform="scale(0.015625)"/>
       <path d="M 513 4856 
L 1013 4856 
Q 1481 4119 1714 3412 
Q 1947 2706 1947 2009 
Q 1947 1309 1714 600 
Q 1481 -109 1013 -844 
L 513 -844 
Q 928 -128 1133 580 
Q 1338 1288 1338 2009 
Q 1338 2731 1133 3434 
Q 928 4138 513 4856 
z
" id="DejaVuSans-29" transform="scale(0.015625)"/>
      </defs>
      <use transform="translate(0 0.015625)" xlink:href="#DejaVuSans-Oblique-66"/>
      <use transform="translate(35.205078 0.015625)" xlink:href="#DejaVuSans-28"/>
      <use transform="translate(74.21875 0.015625)" xlink:href="#DejaVuSans-Oblique-78"/>
      <use transform="translate(133.398438 0.015625)" xlink:href="#DejaVuSans-2c"/>
      <use transform="translate(184.667969 0.015625)" xlink:href="#DejaVuSans-Oblique-3bc"/>
      <use transform="translate(248.291016 0.015625)" xlink:href="#DejaVuSans-29"/>
     </g>
    </g>
   </g>
   <g id="line2d_15">
    <path clip-path="url(#p8ccc3c5c1f)" d="M 171.607712 433 
L 176.892632 417.487104 
L 183.157895 399.744 
L 189.423158 382.696704 
L 195.688421 366.345216 
L 201.953684 350.689536 
L 208.218947 335.729664 
L 214.484211 321.4656 
L 220.749474 307.897344 
L 225.448421 298.177776 
L 230.147368 288.8496 
L 234.846316 279.912816 
L 239.545263 271.367424 
L 244.244211 263.213424 
L 248.943158 255.450816 
L 253.642105 248.0796 
L 258.341053 241.099776 
L 263.04 234.511344 
L 267.738947 228.314304 
L 272.437895 222.508656 
L 277.136842 217.0944 
L 281.835789 212.071536 
L 286.534737 207.440064 
L 291.233684 203.199984 
L 295.932632 199.351296 
L 300.631579 195.894 
L 305.330526 192.828096 
L 308.463158 191.0016 
L 311.595789 189.349056 
L 314.728421 187.870464 
L 317.861053 186.565824 
L 320.993684 185.435136 
L 324.126316 184.4784 
L 327.258947 183.695616 
L 330.391579 183.086784 
L 333.524211 182.651904 
L 336.656842 182.390976 
L 339.789474 182.304 
L 342.922105 182.390976 
L 346.054737 182.651904 
L 349.187368 183.086784 
L 352.32 183.695616 
L 355.452632 184.4784 
L 358.585263 185.435136 
L 361.717895 186.565824 
L 364.850526 187.870464 
L 367.983158 189.349056 
L 371.115789 191.0016 
L 374.248421 192.828096 
L 378.947368 195.894 
L 378.947368 195.894 
" style="fill:none;stroke:#000000;stroke-linecap:square;stroke-width:1.5;"/>
   </g>
   <g id="line2d_16">
    <path clip-path="url(#p8ccc3c5c1f)" d="M 144 378 
L 378.947368 51.84 
L 378.947368 51.84 
" style="fill:none;stroke:#000000;stroke-linecap:square;stroke-width:1.5;"/>
   </g>
   <g id="patch_3">
    <path d="M 144 378 
L 144 51.84 
" style="fill:none;stroke:#000000;stroke-linecap:square;stroke-linejoin:miter;stroke-width:0.8;"/>
   </g>
   <g id="patch_4">
    <path d="M 378.947368 378 
L 378.947368 51.84 
" style="fill:none;stroke:#000000;stroke-linecap:square;stroke-linejoin:miter;stroke-width:0.8;"/>
   </g>
   <g id="patch_5">
    <path d="M 144 378 
L 378.947368 378 
" style="fill:none;stroke:#000000;stroke-linecap:square;stroke-linejoin:miter;stroke-width:0.8;"/>
   </g>
   <g id="patch_6">
    <path d="M 144 51.84 
L 378.947368 51.84 
" style="fill:none;stroke:#000000;stroke-linecap:square;stroke-linejoin:miter;stroke-width:0.8;"/>
   </g>
   <g id="text_17">
    <!-- $\mu = -0.1$ -->
    <g transform="translate(183.157895 84.456)scale(0.1 -0.1)">
     <defs>
      <path d="M 678 2906 
L 4684 2906 
L 4684 2381 
L 678 2381 
L 678 2906 
z
M 678 1631 
L 4684 1631 
L 4684 1100 
L 678 1100 
L 678 1631 
z
" id="DejaVuSans-3d" transform="scale(0.015625)"/>
      <path d="M 794 531 
L 1825 531 
L 1825 4091 
L 703 3866 
L 703 4441 
L 1819 4666 
L 2450 4666 
L 2450 531 
L 3481 531 
L 3481 0 
L 794 0 
L 794 531 
z
" id="DejaVuSans-31" transform="scale(0.015625)"/>
     </defs>
     <use transform="translate(0 0.78125)" xlink:href="#DejaVuSans-Oblique-3bc"/>
     <use transform="translate(83.105469 0.78125)" xlink:href="#DejaVuSans-3d"/>
     <use transform="translate(205.859375 0.78125)" xlink:href="#DejaVuSans-2212"/>
     <use transform="translate(309.130859 0.78125)" xlink:href="#DejaVuSans-30"/>
     <use transform="translate(372.753906 0.78125)" xlink:href="#DejaVuSans-2e"/>
     <use transform="translate(404.541016 0.78125)" xlink:href="#DejaVuSans-31"/>
    </g>
   </g>
  </g>
  <g id="axes_2">
   <g id="patch_7">
    <path d="M 472.926316 378 
L 707.873684 378 
L 707.873684 51.84 
L 472.926316 51.84 
z
" style="fill:#ffffff;"/>
   </g>
   <g id="PathCollection_3">
    <g clip-path="url(#p814d5cfb5d)">
     <use style="stroke:#000000;" x="668.715789" xlink:href="#mcdb794237a" y="106.2"/>
     <use style="stroke:#000000;" x="629.557895" xlink:href="#mcdb794237a" y="160.56"/>
     <use style="stroke:#000000;" x="619.768421" xlink:href="#mcdb794237a" y="174.15"/>
     <use style="stroke:#000000;" x="614.261842" xlink:href="#mcdb794237a" y="181.794375"/>
     <use style="stroke:#000000;" x="610.62664" xlink:href="#mcdb794237a" y="186.840857"/>
     <use style="stroke:#000000;" x="608.01467" xlink:href="#mcdb794237a" y="190.466861"/>
     <use style="stroke:#000000;" x="606.033737" xlink:href="#mcdb794237a" y="193.216842"/>
     <use style="stroke:#000000;" x="604.4733" xlink:href="#mcdb794237a" y="195.383082"/>
    </g>
   </g>
   <g id="Quiver_29">
    <path clip-path="url(#p814d5cfb5d)" d="M 669.596842 106.2 
L 669.596842 152.630526 
L 671.358947 151.749474 
L 668.715789 160.56 
L 666.072632 151.749474 
L 667.834737 152.630526 
L 667.834737 106.2 
L 669.596842 106.2 
"/>
   </g>
   <g id="Quiver_30">
    <path clip-path="url(#p814d5cfb5d)" d="M 668.715789 161.441053 
L 637.487368 161.441053 
L 638.368421 163.203158 
L 629.557895 160.56 
L 638.368421 157.916842 
L 637.487368 159.678947 
L 668.715789 159.678947 
L 668.715789 161.441053 
"/>
   </g>
   <g id="Quiver_31">
    <path clip-path="url(#p814d5cfb5d)" d="M 630.438947 160.56 
L 630.438947 166.220526 
L 632.201053 165.339474 
L 629.557895 174.15 
L 626.914737 165.339474 
L 628.676842 166.220526 
L 628.676842 160.56 
L 630.438947 160.56 
"/>
   </g>
   <g id="Quiver_32">
    <path clip-path="url(#p814d5cfb5d)" d="M 629.557895 175.031053 
L 627.697895 175.031053 
L 628.578947 176.793158 
L 619.768421 174.15 
L 628.578947 171.506842 
L 627.697895 173.268947 
L 629.557895 173.268947 
L 629.557895 175.031053 
"/>
   </g>
   <g id="Quiver_33">
    <path clip-path="url(#p814d5cfb5d)" d="M 620.532859 174.15 
L 620.532859 174.914437 
L 622.061734 174.15 
L 619.768421 181.794375 
L 617.475109 174.15 
L 619.003984 174.914437 
L 619.003984 174.15 
L 620.532859 174.15 
"/>
   </g>
   <g id="Quiver_34">
    <path clip-path="url(#p814d5cfb5d)" d="M 619.768421 182.345033 
L 619.217763 182.345033 
L 619.768421 183.446349 
L 614.261842 181.794375 
L 619.768421 180.142401 
L 619.217763 181.243717 
L 619.768421 181.243717 
L 619.768421 182.345033 
"/>
   </g>
   <g id="Quiver_35">
    <path clip-path="url(#p814d5cfb5d)" d="M 614.76649 181.794375 
L 614.76649 182.299023 
L 615.775787 181.794375 
L 614.261842 186.840857 
L 612.747898 181.794375 
L 613.757194 182.299023 
L 613.757194 181.794375 
L 614.76649 181.794375 
"/>
   </g>
   <g id="Quiver_36">
    <path clip-path="url(#p814d5cfb5d)" d="M 614.261842 187.204377 
L 613.898322 187.204377 
L 614.261842 187.931418 
L 610.62664 186.840857 
L 614.261842 185.750296 
L 613.898322 186.477337 
L 614.261842 186.477337 
L 614.261842 187.204377 
"/>
   </g>
   <g id="Quiver_37">
    <path clip-path="url(#p814d5cfb5d)" d="M 610.98924 186.840857 
L 610.98924 187.203457 
L 611.714441 186.840857 
L 610.62664 190.466861 
L 609.538838 186.840857 
L 610.264039 187.203457 
L 610.264039 186.840857 
L 610.98924 186.840857 
"/>
   </g>
   <g id="Quiver_38">
    <path clip-path="url(#p814d5cfb5d)" d="M 610.62664 190.728058 
L 610.365443 190.728058 
L 610.62664 191.250452 
L 608.01467 190.466861 
L 610.62664 189.68327 
L 610.365443 190.205664 
L 610.62664 190.205664 
L 610.62664 190.728058 
"/>
   </g>
   <g id="Quiver_39">
    <path clip-path="url(#p814d5cfb5d)" d="M 608.289668 190.466861 
L 608.289668 190.741859 
L 608.839664 190.466861 
L 608.01467 193.216842 
L 607.189675 190.466861 
L 607.739672 190.741859 
L 607.739672 190.466861 
L 608.289668 190.466861 
"/>
   </g>
   <g id="Quiver_40">
    <path clip-path="url(#p814d5cfb5d)" d="M 608.01467 193.414936 
L 607.816577 193.414936 
L 608.01467 193.811122 
L 606.033737 193.216842 
L 608.01467 192.622563 
L 607.816577 193.018749 
L 608.01467 193.018749 
L 608.01467 193.414936 
"/>
   </g>
   <g id="Quiver_41">
    <path clip-path="url(#p814d5cfb5d)" d="M 606.250361 193.216842 
L 606.250361 193.433466 
L 606.683609 193.216842 
L 606.033737 195.383082 
L 605.383866 193.216842 
L 605.817113 193.433466 
L 605.817113 193.216842 
L 606.250361 193.216842 
"/>
   </g>
   <g id="Quiver_42">
    <path clip-path="url(#p814d5cfb5d)" d="M 605.152685 195.383082 
L 605.593211 196.146096 
L 606.474264 196.146096 
L 606.91479 195.383082 
L 606.474264 194.620068 
L 605.593211 194.620068 
L 605.152685 195.383082 
L 605.593211 196.146096 
"/>
   </g>
   <g id="PathCollection_4">
    <g clip-path="url(#p814d5cfb5d)">
     <use style="stroke:#000000;" x="551.242105" xlink:href="#mcdb794237a" y="269.28"/>
     <use style="stroke:#000000;" x="541.452632" xlink:href="#mcdb794237a" y="282.87"/>
     <use style="stroke:#000000;" x="526.156579" xlink:href="#mcdb794237a" y="304.104375"/>
     <use style="stroke:#000000;" x="499.806738" xlink:href="#mcdb794237a" y="340.683904"/>
     <use style="stroke:#000000;" x="447.409009" xlink:href="#mcdb794237a" y="413.423784"/>
     <use style="stroke:#000000;" x="316.870687" xlink:href="#mcdb794237a" y="594.640451"/>
     <use style="stroke:#000000;" x="-1" xlink:href="#mcdb794237a" y="1035.916742"/>
    </g>
   </g>
   <g id="Quiver_43">
    <path clip-path="url(#p814d5cfb5d)" d="M 552.123158 269.28 
L 552.123158 274.940526 
L 553.885263 274.059474 
L 551.242105 282.87 
L 548.598947 274.059474 
L 550.361053 274.940526 
L 550.361053 269.28 
L 552.123158 269.28 
"/>
   </g>
   <g id="Quiver_44">
    <path clip-path="url(#p814d5cfb5d)" d="M 551.242105 283.751053 
L 549.382105 283.751053 
L 550.263158 285.513158 
L 541.452632 282.87 
L 550.263158 280.226842 
L 549.382105 281.988947 
L 551.242105 281.988947 
L 551.242105 283.751053 
"/>
   </g>
   <g id="Quiver_45">
    <path clip-path="url(#p814d5cfb5d)" d="M 542.333684 282.87 
L 542.333684 296.174901 
L 544.095789 295.293849 
L 541.452632 304.104375 
L 538.809474 295.293849 
L 540.571579 296.174901 
L 540.571579 282.87 
L 542.333684 282.87 
"/>
   </g>
   <g id="Quiver_46">
    <path clip-path="url(#p814d5cfb5d)" d="M 541.452632 304.985428 
L 534.086053 304.985428 
L 534.967105 306.747533 
L 526.156579 304.104375 
L 534.967105 301.461217 
L 534.086053 303.223322 
L 541.452632 303.223322 
L 541.452632 304.985428 
"/>
   </g>
   <g id="Quiver_47">
    <path clip-path="url(#p814d5cfb5d)" d="M 527.037632 304.104375 
L 527.037632 332.75443 
L 528.799737 331.873377 
L 526.156579 340.683904 
L 523.513421 331.873377 
L 525.275526 332.75443 
L 525.275526 304.104375 
L 527.037632 304.104375 
"/>
   </g>
   <g id="Quiver_48">
    <path clip-path="url(#p814d5cfb5d)" d="M 526.156579 341.564956 
L 507.736212 341.564956 
L 508.617265 343.327062 
L 499.806738 340.683904 
L 508.617265 338.040746 
L 507.736212 339.802851 
L 526.156579 339.802851 
L 526.156579 341.564956 
"/>
   </g>
   <g id="Quiver_49">
    <path clip-path="url(#p814d5cfb5d)" d="M 500.687791 340.683904 
L 500.687791 405.49431 
L 502.449896 404.613257 
L 499.806738 413.423784 
L 497.16358 404.613257 
L 498.925686 405.49431 
L 498.925686 340.683904 
L 500.687791 340.683904 
"/>
   </g>
   <g id="Quiver_50">
    <path clip-path="url(#p814d5cfb5d)" d="M 499.806738 414.304836 
L 455.338483 414.304836 
L 456.219535 416.066942 
L 447.409009 413.423784 
L 456.219535 410.780626 
L 455.338483 412.542731 
L 499.806738 412.542731 
L 499.806738 414.304836 
"/>
   </g>
   <g id="Quiver_51">
    <path clip-path="url(#p814d5cfb5d)" d="M 448.290062 413.423784 
L 448.290062 586.710978 
L 450.052167 585.829925 
L 447.409009 594.640451 
L 444.765851 585.829925 
L 446.527956 586.710978 
L 446.527956 413.423784 
L 448.290062 413.423784 
"/>
   </g>
   <g id="Quiver_52">
    <path clip-path="url(#p814d5cfb5d)" d="M 447.409009 595.521504 
L 324.800161 595.521504 
L 325.681213 597.283609 
L 316.870687 594.640451 
L 325.681213 591.997293 
L 324.800161 593.759399 
L 447.409009 593.759399 
L 447.409009 595.521504 
"/>
   </g>
   <g id="Quiver_53">
    <path clip-path="url(#p814d5cfb5d)" d="M 317.75174 594.640451 
L 317.75174 1249.825497 
L 319.513845 1248.944444 
L 316.870687 1257.754971 
L 314.227529 1248.944444 
L 315.989634 1249.825497 
L 315.989634 594.640451 
L 317.75174 594.640451 
"/>
   </g>
   <g id="Quiver_54">
    <path clip-path="url(#p814d5cfb5d)" d="M 316.870687 1258.636023 
L -152.870343 1258.636023 
L -151.98929 1260.398129 
L -160.799816 1257.754971 
L -151.98929 1255.111813 
L -152.870343 1256.873918 
L 316.870687 1256.873918 
L 316.870687 1258.636023 
"/>
   </g>
   <g id="Quiver_55">
    <path clip-path="url(#p814d5cfb5d)" d="M -159.918764 1257.754971 
L -159.918764 6251.227153 
L -158.156658 6250.3461 
L -160.799816 6259.156626 
L -163.442974 6250.3461 
L -161.680869 6251.227153 
L -161.680869 1257.754971 
L -159.918764 1257.754971 
"/>
   </g>
   <g id="Quiver_56">
    <path clip-path="url(#p814d5cfb5d)" d="M -160.799816 6260.037679 
L -3755.599547 6260.037679 
L -3754.718495 6261.799784 
L -3763.529021 6259.156626 
L -3754.718495 6256.513469 
L -3755.599547 6258.275574 
L -160.799816 6258.275574 
L -160.799816 6260.037679 
"/>
   </g>
   <g id="matplotlib.axis_3">
    <g id="xtick_8">
     <g id="line2d_17">
      <g>
       <use style="stroke:#000000;stroke-width:0.8;" x="472.926316" xlink:href="#m77456c7f6b" y="378"/>
      </g>
     </g>
     <g id="text_18">
      <!-- −0.75 -->
      <g transform="translate(457.60366 392.598437)scale(0.1 -0.1)">
       <use xlink:href="#DejaVuSans-2212"/>
       <use x="83.789062" xlink:href="#DejaVuSans-30"/>
       <use x="147.412109" xlink:href="#DejaVuSans-2e"/>
       <use x="179.199219" xlink:href="#DejaVuSans-37"/>
       <use x="242.822266" xlink:href="#DejaVuSans-35"/>
      </g>
     </g>
    </g>
    <g id="xtick_9">
     <g id="line2d_18">
      <g>
       <use style="stroke:#000000;stroke-width:0.8;" x="512.084211" xlink:href="#m77456c7f6b" y="378"/>
      </g>
     </g>
     <g id="text_19">
      <!-- −0.50 -->
      <g transform="translate(496.761554 392.598437)scale(0.1 -0.1)">
       <use xlink:href="#DejaVuSans-2212"/>
       <use x="83.789062" xlink:href="#DejaVuSans-30"/>
       <use x="147.412109" xlink:href="#DejaVuSans-2e"/>
       <use x="179.199219" xlink:href="#DejaVuSans-35"/>
       <use x="242.822266" xlink:href="#DejaVuSans-30"/>
      </g>
     </g>
    </g>
    <g id="xtick_10">
     <g id="line2d_19">
      <g>
       <use style="stroke:#000000;stroke-width:0.8;" x="551.242105" xlink:href="#m77456c7f6b" y="378"/>
      </g>
     </g>
     <g id="text_20">
      <!-- −0.25 -->
      <g transform="translate(535.919449 392.598437)scale(0.1 -0.1)">
       <use xlink:href="#DejaVuSans-2212"/>
       <use x="83.789062" xlink:href="#DejaVuSans-30"/>
       <use x="147.412109" xlink:href="#DejaVuSans-2e"/>
       <use x="179.199219" xlink:href="#DejaVuSans-32"/>
       <use x="242.822266" xlink:href="#DejaVuSans-35"/>
      </g>
     </g>
    </g>
    <g id="xtick_11">
     <g id="line2d_20">
      <g>
       <use style="stroke:#000000;stroke-width:0.8;" x="590.4" xlink:href="#m77456c7f6b" y="378"/>
      </g>
     </g>
     <g id="text_21">
      <!-- 0.00 -->
      <g transform="translate(579.267188 392.598437)scale(0.1 -0.1)">
       <use xlink:href="#DejaVuSans-30"/>
       <use x="63.623047" xlink:href="#DejaVuSans-2e"/>
       <use x="95.410156" xlink:href="#DejaVuSans-30"/>
       <use x="159.033203" xlink:href="#DejaVuSans-30"/>
      </g>
     </g>
    </g>
    <g id="xtick_12">
     <g id="line2d_21">
      <g>
       <use style="stroke:#000000;stroke-width:0.8;" x="629.557895" xlink:href="#m77456c7f6b" y="378"/>
      </g>
     </g>
     <g id="text_22">
      <!-- 0.25 -->
      <g transform="translate(618.425082 392.598437)scale(0.1 -0.1)">
       <use xlink:href="#DejaVuSans-30"/>
       <use x="63.623047" xlink:href="#DejaVuSans-2e"/>
       <use x="95.410156" xlink:href="#DejaVuSans-32"/>
       <use x="159.033203" xlink:href="#DejaVuSans-35"/>
      </g>
     </g>
    </g>
    <g id="xtick_13">
     <g id="line2d_22">
      <g>
       <use style="stroke:#000000;stroke-width:0.8;" x="668.715789" xlink:href="#m77456c7f6b" y="378"/>
      </g>
     </g>
     <g id="text_23">
      <!-- 0.50 -->
      <g transform="translate(657.582977 392.598437)scale(0.1 -0.1)">
       <use xlink:href="#DejaVuSans-30"/>
       <use x="63.623047" xlink:href="#DejaVuSans-2e"/>
       <use x="95.410156" xlink:href="#DejaVuSans-35"/>
       <use x="159.033203" xlink:href="#DejaVuSans-30"/>
      </g>
     </g>
    </g>
    <g id="xtick_14">
     <g id="line2d_23">
      <g>
       <use style="stroke:#000000;stroke-width:0.8;" x="707.873684" xlink:href="#m77456c7f6b" y="378"/>
      </g>
     </g>
     <g id="text_24">
      <!-- 0.75 -->
      <g transform="translate(696.740872 392.598437)scale(0.1 -0.1)">
       <use xlink:href="#DejaVuSans-30"/>
       <use x="63.623047" xlink:href="#DejaVuSans-2e"/>
       <use x="95.410156" xlink:href="#DejaVuSans-37"/>
       <use x="159.033203" xlink:href="#DejaVuSans-35"/>
      </g>
     </g>
    </g>
    <g id="text_25">
     <!-- $x$ -->
     <g transform="translate(587.4 406.276563)scale(0.1 -0.1)">
      <use transform="translate(0 0.3125)" xlink:href="#DejaVuSans-Oblique-78"/>
     </g>
    </g>
   </g>
   <g id="matplotlib.axis_4">
    <g id="ytick_8">
     <g id="line2d_24">
      <g>
       <use style="stroke:#000000;stroke-width:0.8;" x="472.926316" xlink:href="#mc57347536b" y="345.384"/>
      </g>
     </g>
     <g id="text_26">
      <!-- −0.6 -->
      <g transform="translate(441.643503 349.183219)scale(0.1 -0.1)">
       <use xlink:href="#DejaVuSans-2212"/>
       <use x="83.789062" xlink:href="#DejaVuSans-30"/>
       <use x="147.412109" xlink:href="#DejaVuSans-2e"/>
       <use x="179.199219" xlink:href="#DejaVuSans-36"/>
      </g>
     </g>
    </g>
    <g id="ytick_9">
     <g id="line2d_25">
      <g>
       <use style="stroke:#000000;stroke-width:0.8;" x="472.926316" xlink:href="#mc57347536b" y="301.896"/>
      </g>
     </g>
     <g id="text_27">
      <!-- −0.4 -->
      <g transform="translate(441.643503 305.695219)scale(0.1 -0.1)">
       <use xlink:href="#DejaVuSans-2212"/>
       <use x="83.789062" xlink:href="#DejaVuSans-30"/>
       <use x="147.412109" xlink:href="#DejaVuSans-2e"/>
       <use x="179.199219" xlink:href="#DejaVuSans-34"/>
      </g>
     </g>
    </g>
    <g id="ytick_10">
     <g id="line2d_26">
      <g>
       <use style="stroke:#000000;stroke-width:0.8;" x="472.926316" xlink:href="#mc57347536b" y="258.408"/>
      </g>
     </g>
     <g id="text_28">
      <!-- −0.2 -->
      <g transform="translate(441.643503 262.207219)scale(0.1 -0.1)">
       <use xlink:href="#DejaVuSans-2212"/>
       <use x="83.789062" xlink:href="#DejaVuSans-30"/>
       <use x="147.412109" xlink:href="#DejaVuSans-2e"/>
       <use x="179.199219" xlink:href="#DejaVuSans-32"/>
      </g>
     </g>
    </g>
    <g id="ytick_11">
     <g id="line2d_27">
      <g>
       <use style="stroke:#000000;stroke-width:0.8;" x="472.926316" xlink:href="#mc57347536b" y="214.92"/>
      </g>
     </g>
     <g id="text_29">
      <!-- 0.0 -->
      <g transform="translate(450.023191 218.719219)scale(0.1 -0.1)">
       <use xlink:href="#DejaVuSans-30"/>
       <use x="63.623047" xlink:href="#DejaVuSans-2e"/>
       <use x="95.410156" xlink:href="#DejaVuSans-30"/>
      </g>
     </g>
    </g>
    <g id="ytick_12">
     <g id="line2d_28">
      <g>
       <use style="stroke:#000000;stroke-width:0.8;" x="472.926316" xlink:href="#mc57347536b" y="171.432"/>
      </g>
     </g>
     <g id="text_30">
      <!-- 0.2 -->
      <g transform="translate(450.023191 175.231219)scale(0.1 -0.1)">
       <use xlink:href="#DejaVuSans-30"/>
       <use x="63.623047" xlink:href="#DejaVuSans-2e"/>
       <use x="95.410156" xlink:href="#DejaVuSans-32"/>
      </g>
     </g>
    </g>
    <g id="ytick_13">
     <g id="line2d_29">
      <g>
       <use style="stroke:#000000;stroke-width:0.8;" x="472.926316" xlink:href="#mc57347536b" y="127.944"/>
      </g>
     </g>
     <g id="text_31">
      <!-- 0.4 -->
      <g transform="translate(450.023191 131.743219)scale(0.1 -0.1)">
       <use xlink:href="#DejaVuSans-30"/>
       <use x="63.623047" xlink:href="#DejaVuSans-2e"/>
       <use x="95.410156" xlink:href="#DejaVuSans-34"/>
      </g>
     </g>
    </g>
    <g id="ytick_14">
     <g id="line2d_30">
      <g>
       <use style="stroke:#000000;stroke-width:0.8;" x="472.926316" xlink:href="#mc57347536b" y="84.456"/>
      </g>
     </g>
     <g id="text_32">
      <!-- 0.6 -->
      <g transform="translate(450.023191 88.255219)scale(0.1 -0.1)">
       <use xlink:href="#DejaVuSans-30"/>
       <use x="63.623047" xlink:href="#DejaVuSans-2e"/>
       <use x="95.410156" xlink:href="#DejaVuSans-36"/>
      </g>
     </g>
    </g>
    <g id="text_33">
     <!-- $f(x, \mu)$ -->
     <g transform="translate(435.543503 229.32)rotate(-90)scale(0.1 -0.1)">
      <use transform="translate(0 0.015625)" xlink:href="#DejaVuSans-Oblique-66"/>
      <use transform="translate(35.205078 0.015625)" xlink:href="#DejaVuSans-28"/>
      <use transform="translate(74.21875 0.015625)" xlink:href="#DejaVuSans-Oblique-78"/>
      <use transform="translate(133.398438 0.015625)" xlink:href="#DejaVuSans-2c"/>
      <use transform="translate(184.667969 0.015625)" xlink:href="#DejaVuSans-Oblique-3bc"/>
      <use transform="translate(248.291016 0.015625)" xlink:href="#DejaVuSans-29"/>
     </g>
    </g>
   </g>
   <g id="line2d_31">
    <path clip-path="url(#p814d5cfb5d)" d="M 493.390734 433 
L 499.553684 414.182016 
L 505.818947 395.743104 
L 512.084211 378 
L 518.349474 360.952704 
L 524.614737 344.601216 
L 530.88 328.945536 
L 537.145263 313.985664 
L 543.410526 299.7216 
L 549.675789 286.153344 
L 554.374737 276.433776 
L 559.073684 267.1056 
L 563.772632 258.168816 
L 568.471579 249.623424 
L 573.170526 241.469424 
L 577.869474 233.706816 
L 582.568421 226.3356 
L 587.267368 219.355776 
L 591.966316 212.767344 
L 596.665263 206.570304 
L 601.364211 200.764656 
L 606.063158 195.3504 
L 610.762105 190.327536 
L 615.461053 185.696064 
L 620.16 181.455984 
L 624.858947 177.607296 
L 629.557895 174.15 
L 634.256842 171.084096 
L 637.389474 169.2576 
L 640.522105 167.605056 
L 643.654737 166.126464 
L 646.787368 164.821824 
L 649.92 163.691136 
L 653.052632 162.7344 
L 656.185263 161.951616 
L 659.317895 161.342784 
L 662.450526 160.907904 
L 665.583158 160.646976 
L 668.715789 160.56 
L 671.848421 160.646976 
L 674.981053 160.907904 
L 678.113684 161.342784 
L 681.246316 161.951616 
L 684.378947 162.7344 
L 687.511579 163.691136 
L 690.644211 164.821824 
L 693.776842 166.126464 
L 696.909474 167.605056 
L 700.042105 169.2576 
L 703.174737 171.084096 
L 707.873684 174.15 
L 707.873684 174.15 
" style="fill:none;stroke:#000000;stroke-linecap:square;stroke-width:1.5;"/>
   </g>
   <g id="line2d_32">
    <path clip-path="url(#p814d5cfb5d)" d="M 472.926316 378 
L 707.873684 51.84 
L 707.873684 51.84 
" style="fill:none;stroke:#000000;stroke-linecap:square;stroke-width:1.5;"/>
   </g>
   <g id="patch_8">
    <path d="M 472.926316 378 
L 472.926316 51.84 
" style="fill:none;stroke:#000000;stroke-linecap:square;stroke-linejoin:miter;stroke-width:0.8;"/>
   </g>
   <g id="patch_9">
    <path d="M 707.873684 378 
L 707.873684 51.84 
" style="fill:none;stroke:#000000;stroke-linecap:square;stroke-linejoin:miter;stroke-width:0.8;"/>
   </g>
   <g id="patch_10">
    <path d="M 472.926316 378 
L 707.873684 378 
" style="fill:none;stroke:#000000;stroke-linecap:square;stroke-linejoin:miter;stroke-width:0.8;"/>
   </g>
   <g id="patch_11">
    <path d="M 472.926316 51.84 
L 707.873684 51.84 
" style="fill:none;stroke:#000000;stroke-linecap:square;stroke-linejoin:miter;stroke-width:0.8;"/>
   </g>
   <g id="text_34">
    <!-- $\mu = 0.0$ -->
    <g transform="translate(512.084211 84.456)scale(0.1 -0.1)">
     <use transform="translate(0 0.78125)" xlink:href="#DejaVuSans-Oblique-3bc"/>
     <use transform="translate(83.105469 0.78125)" xlink:href="#DejaVuSans-3d"/>
     <use transform="translate(186.376953 0.78125)" xlink:href="#DejaVuSans-30"/>
     <use transform="translate(250 0.78125)" xlink:href="#DejaVuSans-2e"/>
     <use transform="translate(281.787109 0.78125)" xlink:href="#DejaVuSans-30"/>
    </g>
   </g>
  </g>
  <g id="axes_3">
   <g id="patch_12">
    <path d="M 801.852632 378 
L 1036.8 378 
L 1036.8 51.84 
L 801.852632 51.84 
z
" style="fill:#ffffff;"/>
   </g>
   <g id="PathCollection_5">
    <g clip-path="url(#p63371dcced)">
     <use style="stroke:#000000;" x="997.642105" xlink:href="#mcdb794237a" y="106.2"/>
     <use style="stroke:#000000;" x="974.147368" xlink:href="#mcdb794237a" y="138.816"/>
     <use style="stroke:#000000;" x="970.623158" xlink:href="#mcdb794237a" y="143.7084"/>
     <use style="stroke:#000000;" x="969.4866" xlink:href="#mcdb794237a" y="145.286199"/>
     <use style="stroke:#000000;" x="969.08624" xlink:href="#mcdb794237a" y="145.841989"/>
     <use style="stroke:#000000;" x="968.941283" xlink:href="#mcdb794237a" y="146.043222"/>
     <use style="stroke:#000000;" x="968.888293" xlink:href="#mcdb794237a" y="146.116784"/>
     <use style="stroke:#000000;" x="968.868856" xlink:href="#mcdb794237a" y="146.143767"/>
    </g>
   </g>
   <g id="Quiver_57">
    <path clip-path="url(#p63371dcced)" d="M 998.523158 106.2 
L 998.523158 130.886526 
L 1000.285263 130.005474 
L 997.642105 138.816 
L 994.998947 130.005474 
L 996.761053 130.886526 
L 996.761053 106.2 
L 998.523158 106.2 
"/>
   </g>
   <g id="Quiver_58">
    <path clip-path="url(#p63371dcced)" d="M 997.642105 139.697053 
L 982.076842 139.697053 
L 982.957895 141.459158 
L 974.147368 138.816 
L 982.957895 136.172842 
L 982.076842 137.934947 
L 997.642105 137.934947 
L 997.642105 139.697053 
"/>
   </g>
   <g id="Quiver_59">
    <path clip-path="url(#p63371dcced)" d="M 974.636608 138.816 
L 974.636608 139.30524 
L 975.615088 138.816 
L 974.147368 143.7084 
L 972.679648 138.816 
L 973.658128 139.30524 
L 973.658128 138.816 
L 974.636608 138.816 
"/>
   </g>
   <g id="Quiver_60">
    <path clip-path="url(#p63371dcced)" d="M 974.147368 144.060821 
L 973.794947 144.060821 
L 974.147368 144.765663 
L 970.623158 143.7084 
L 974.147368 142.651137 
L 973.794947 143.355979 
L 974.147368 143.355979 
L 974.147368 144.060821 
"/>
   </g>
   <g id="Quiver_61">
    <path clip-path="url(#p63371dcced)" d="M 970.623158 144.589453 
L 971.386172 144.148926 
L 971.386172 143.267874 
L 970.623158 142.827347 
L 969.860144 143.267874 
L 969.860144 144.148926 
L 970.623158 144.589453 
L 971.386172 144.148926 
"/>
   </g>
   <g id="Quiver_62">
    <path clip-path="url(#p63371dcced)" d="M 969.742105 145.286199 
L 970.182632 146.049213 
L 971.063684 146.049213 
L 971.504211 145.286199 
L 971.063684 144.523185 
L 970.182632 144.523185 
L 969.742105 145.286199 
L 970.182632 146.049213 
"/>
   </g>
   <g id="Quiver_63">
    <path clip-path="url(#p63371dcced)" d="M 969.4866 146.167252 
L 970.249614 145.726725 
L 970.249614 144.845673 
L 969.4866 144.405146 
L 968.723586 144.845673 
L 968.723586 145.726725 
L 969.4866 146.167252 
L 970.249614 145.726725 
"/>
   </g>
   <g id="Quiver_64">
    <path clip-path="url(#p63371dcced)" d="M 968.605547 145.841989 
L 969.046074 146.605003 
L 969.927126 146.605003 
L 970.367653 145.841989 
L 969.927126 145.078975 
L 969.046074 145.078975 
L 968.605547 145.841989 
L 969.046074 146.605003 
"/>
   </g>
   <g id="Quiver_65">
    <path clip-path="url(#p63371dcced)" d="M 969.08624 146.723041 
L 969.849254 146.282515 
L 969.849254 145.401462 
L 969.08624 144.960936 
L 968.323226 145.401462 
L 968.323226 146.282515 
L 969.08624 146.723041 
L 969.849254 146.282515 
"/>
   </g>
   <g id="Quiver_66">
    <path clip-path="url(#p63371dcced)" d="M 968.205188 146.043222 
L 968.645714 146.806236 
L 969.526767 146.806236 
L 969.967293 146.043222 
L 969.526767 145.280209 
L 968.645714 145.280209 
L 968.205188 146.043222 
L 968.645714 146.806236 
"/>
   </g>
   <g id="Quiver_67">
    <path clip-path="url(#p63371dcced)" d="M 968.941283 146.924275 
L 969.704297 146.483749 
L 969.704297 145.602696 
L 968.941283 145.16217 
L 968.178269 145.602696 
L 968.178269 146.483749 
L 968.941283 146.924275 
L 969.704297 146.483749 
"/>
   </g>
   <g id="Quiver_68">
    <path clip-path="url(#p63371dcced)" d="M 968.06023 146.116784 
L 968.500756 146.879798 
L 969.381809 146.879798 
L 969.822335 146.116784 
L 969.381809 145.35377 
L 968.500756 145.35377 
L 968.06023 146.116784 
L 968.500756 146.879798 
"/>
   </g>
   <g id="Quiver_69">
    <path clip-path="url(#p63371dcced)" d="M 968.888293 146.997836 
L 969.651307 146.55731 
L 969.651307 145.676257 
L 968.888293 145.235731 
L 968.12528 145.676257 
L 968.12528 146.55731 
L 968.888293 146.997836 
L 969.651307 146.55731 
"/>
   </g>
   <g id="Quiver_70">
    <path clip-path="url(#p63371dcced)" d="M 968.007241 146.143767 
L 968.447767 146.906781 
L 969.32882 146.906781 
L 969.769346 146.143767 
L 969.32882 145.380753 
L 968.447767 145.380753 
L 968.007241 146.143767 
L 968.447767 146.906781 
"/>
   </g>
   <g id="PathCollection_6">
    <g clip-path="url(#p63371dcced)">
     <use style="stroke:#000000;" x="880.168421" xlink:href="#mcdb794237a" y="269.28"/>
     <use style="stroke:#000000;" x="886.042105" xlink:href="#mcdb794237a" y="261.126"/>
     <use style="stroke:#000000;" x="894.632368" xlink:href="#mcdb794237a" y="249.200775"/>
     <use style="stroke:#000000;" x="906.402371" xlink:href="#mcdb794237a" y="232.861353"/>
     <use style="stroke:#000000;" x="920.999152" xlink:href="#mcdb794237a" y="212.597726"/>
     <use style="stroke:#000000;" x="936.644444" xlink:href="#mcdb794237a" y="190.878528"/>
     <use style="stroke:#000000;" x="950.392805" xlink:href="#mcdb794237a" y="171.792697"/>
     <use style="stroke:#000000;" x="959.8942" xlink:href="#mcdb794237a" y="158.602617"/>
    </g>
   </g>
   <g id="Quiver_71">
    <path clip-path="url(#p63371dcced)" d="M 879.353021 269.28 
L 879.353021 268.4646 
L 877.722221 269.28 
L 880.168421 261.126 
L 882.614621 269.28 
L 880.983821 268.4646 
L 880.983821 269.28 
L 879.353021 269.28 
"/>
   </g>
   <g id="Quiver_72">
    <path clip-path="url(#p63371dcced)" d="M 880.168421 260.538632 
L 880.755789 260.538632 
L 880.168421 259.363895 
L 886.042105 261.126 
L 880.168421 262.888105 
L 880.755789 261.713368 
L 880.168421 261.713368 
L 880.168421 260.538632 
"/>
   </g>
   <g id="Quiver_73">
    <path clip-path="url(#p63371dcced)" d="M 885.161053 261.126 
L 885.161053 257.130249 
L 883.398947 258.011301 
L 886.042105 249.200775 
L 888.685263 258.011301 
L 886.923158 257.130249 
L 886.923158 261.126 
L 885.161053 261.126 
"/>
   </g>
   <g id="Quiver_74">
    <path clip-path="url(#p63371dcced)" d="M 886.042105 248.341749 
L 886.901132 248.341749 
L 886.042105 246.623696 
L 894.632368 249.200775 
L 886.042105 251.777854 
L 886.901132 250.059801 
L 886.042105 250.059801 
L 886.042105 248.341749 
"/>
   </g>
   <g id="Quiver_75">
    <path clip-path="url(#p63371dcced)" d="M 893.751316 249.200775 
L 893.751316 240.790827 
L 891.989211 241.67188 
L 894.632368 232.861353 
L 897.275526 241.67188 
L 895.513421 240.790827 
L 895.513421 249.200775 
L 893.751316 249.200775 
"/>
   </g>
   <g id="Quiver_76">
    <path clip-path="url(#p63371dcced)" d="M 894.632368 231.980301 
L 898.472897 231.980301 
L 897.591845 230.218196 
L 906.402371 232.861353 
L 897.591845 235.504511 
L 898.472897 233.742406 
L 894.632368 233.742406 
L 894.632368 231.980301 
"/>
   </g>
   <g id="Quiver_77">
    <path clip-path="url(#p63371dcced)" d="M 905.521319 232.861353 
L 905.521319 220.527199 
L 903.759213 221.408252 
L 906.402371 212.597726 
L 909.045529 221.408252 
L 907.283424 220.527199 
L 907.283424 232.861353 
L 905.521319 232.861353 
"/>
   </g>
   <g id="Quiver_78">
    <path clip-path="url(#p63371dcced)" d="M 906.402371 211.716673 
L 913.069678 211.716673 
L 912.188626 209.954568 
L 920.999152 212.597726 
L 912.188626 215.240884 
L 913.069678 213.478778 
L 906.402371 213.478778 
L 906.402371 211.716673 
"/>
   </g>
   <g id="Quiver_79">
    <path clip-path="url(#p63371dcced)" d="M 920.118099 212.597726 
L 920.118099 198.808002 
L 918.355994 199.689054 
L 920.999152 190.878528 
L 923.64231 199.689054 
L 921.880205 198.808002 
L 921.880205 212.597726 
L 920.118099 212.597726 
"/>
   </g>
   <g id="Quiver_80">
    <path clip-path="url(#p63371dcced)" d="M 920.999152 189.997475 
L 928.71497 189.997475 
L 927.833917 188.23537 
L 936.644444 190.878528 
L 927.833917 193.521686 
L 928.71497 191.75958 
L 920.999152 191.75958 
L 920.999152 189.997475 
"/>
   </g>
   <g id="Quiver_81">
    <path clip-path="url(#p63371dcced)" d="M 935.763391 190.878528 
L 935.763391 179.722171 
L 934.001286 180.603224 
L 936.644444 171.792697 
L 939.287602 180.603224 
L 937.525496 179.722171 
L 937.525496 190.878528 
L 935.763391 190.878528 
"/>
   </g>
   <g id="Quiver_82">
    <path clip-path="url(#p63371dcced)" d="M 936.644444 170.911645 
L 942.463332 170.911645 
L 941.582279 169.149539 
L 950.392805 171.792697 
L 941.582279 174.435855 
L 942.463332 172.67375 
L 936.644444 172.67375 
L 936.644444 170.911645 
"/>
   </g>
   <g id="Quiver_83">
    <path clip-path="url(#p63371dcced)" d="M 949.511753 171.792697 
L 949.511753 166.53209 
L 947.749648 167.413143 
L 950.392805 158.602617 
L 953.035963 167.413143 
L 951.273858 166.53209 
L 951.273858 171.792697 
L 949.511753 171.792697 
"/>
   </g>
   <g id="Quiver_84">
    <path clip-path="url(#p63371dcced)" d="M 950.392805 157.721564 
L 951.964726 157.721564 
L 951.083673 155.959459 
L 959.8942 158.602617 
L 951.083673 161.245775 
L 951.964726 159.483669 
L 950.392805 159.483669 
L 950.392805 157.721564 
"/>
   </g>
   <g id="PathCollection_7">
    <g clip-path="url(#p63371dcced)">
     <use style="stroke:#000000;" x="841.010526" xlink:href="#mcdb794237a" y="323.64"/>
     <use style="stroke:#000000;" x="817.515789" xlink:href="#mcdb794237a" y="356.256"/>
     <use style="stroke:#000000;" x="767.002105" xlink:href="#mcdb794237a" y="426.3804"/>
     <use style="stroke:#000000;" x="634.529968" xlink:href="#mcdb794237a" y="610.281639"/>
     <use style="stroke:#000000;" x="132.360388" xlink:href="#mcdb794237a" y="1307.40641"/>
     <use style="stroke:#000000;" x="-1" xlink:href="#mcdb794237a" y="1492.540742"/>
    </g>
   </g>
   <g id="Quiver_85">
    <path clip-path="url(#p63371dcced)" d="M 841.891579 323.64 
L 841.891579 348.326526 
L 843.653684 347.445474 
L 841.010526 356.256 
L 838.367368 347.445474 
L 840.129474 348.326526 
L 840.129474 323.64 
L 841.891579 323.64 
"/>
   </g>
   <g id="Quiver_86">
    <path clip-path="url(#p63371dcced)" d="M 841.010526 357.137053 
L 825.445263 357.137053 
L 826.326316 358.899158 
L 817.515789 356.256 
L 826.326316 353.612842 
L 825.445263 355.374947 
L 841.010526 355.374947 
L 841.010526 357.137053 
"/>
   </g>
   <g id="Quiver_87">
    <path clip-path="url(#p63371dcced)" d="M 818.396842 356.256 
L 818.396842 418.450926 
L 820.158947 417.569874 
L 817.515789 426.3804 
L 814.872632 417.569874 
L 816.634737 418.450926 
L 816.634737 356.256 
L 818.396842 356.256 
"/>
   </g>
   <g id="Quiver_88">
    <path clip-path="url(#p63371dcced)" d="M 817.515789 427.261453 
L 774.931579 427.261453 
L 775.812632 429.023558 
L 767.002105 426.3804 
L 775.812632 423.737242 
L 774.931579 425.499347 
L 817.515789 425.499347 
L 817.515789 427.261453 
"/>
   </g>
   <g id="Quiver_89">
    <path clip-path="url(#p63371dcced)" d="M 767.883158 426.3804 
L 767.883158 602.352165 
L 769.645263 601.471113 
L 767.002105 610.281639 
L 764.358947 601.471113 
L 766.121053 602.352165 
L 766.121053 426.3804 
L 767.883158 426.3804 
"/>
   </g>
   <g id="Quiver_90">
    <path clip-path="url(#p63371dcced)" d="M 767.002105 611.162692 
L 642.459442 611.162692 
L 643.340495 612.924797 
L 634.529968 610.281639 
L 643.340495 607.638481 
L 642.459442 609.400586 
L 767.002105 609.400586 
L 767.002105 611.162692 
"/>
   </g>
   <g id="Quiver_91">
    <path clip-path="url(#p63371dcced)" d="M 635.411021 610.281639 
L 635.411021 1299.476936 
L 637.173126 1298.595884 
L 634.529968 1307.40641 
L 631.886811 1298.595884 
L 633.648916 1299.476936 
L 633.648916 610.281639 
L 635.411021 610.281639 
"/>
   </g>
   <g id="Quiver_92">
    <path clip-path="url(#p63371dcced)" d="M 634.529968 1308.287463 
L 140.289861 1308.287463 
L 141.170914 1310.049568 
L 132.360388 1307.40641 
L 141.170914 1304.763252 
L 140.289861 1306.525357 
L 634.529968 1306.525357 
L 634.529968 1308.287463 
"/>
   </g>
   <g id="Quiver_93">
    <path clip-path="url(#p63371dcced)" d="M 133.24144 1307.40641 
L 133.24144 6766.725561 
L 135.003546 6765.844508 
L 132.360388 6774.655035 
L 129.71723 6765.844508 
L 131.479335 6766.725561 
L 131.479335 1307.40641 
L 133.24144 1307.40641 
"/>
   </g>
   <g id="Quiver_94">
    <path clip-path="url(#p63371dcced)" d="M 132.360388 6775.536087 
L -3798.009369 6775.536087 
L -3797.128316 6777.298193 
L -3805.938842 6774.655035 
L -3797.128316 6772.011877 
L -3798.009369 6773.773982 
L 132.360388 6773.773982 
L 132.360388 6775.536087 
"/>
   </g>
   <g id="Quiver_95">
    <path clip-path="url(#p63371dcced)" d="M -3805.05779 6774.655035 
L -3805.05779 122248.056087 
L -3803.295684 122247.175035 
L -3805.938842 122255.985561 
L -3808.582 122247.175035 
L -3806.819895 122248.056087 
L -3806.819895 6774.655035 
L -3805.05779 6774.655035 
"/>
   </g>
   <g id="Quiver_96">
    <path clip-path="url(#p63371dcced)" d="M -3805.938842 204648.032918 
L -119279.339895 204648.032918 
L -119278.458842 204649.795023 
L -119287.269369 204647.151866 
L -119278.458842 204644.508708 
L -119279.339895 204646.270813 
L -3805.938842 204646.270813 
L -3805.938842 204648.032918 
"/>
   </g>
   <g id="Quiver_97">
    <path clip-path="url(#p63371dcced)" d="M -146341.305071 204647.151866 
L -146341.305071 320120.552918 
L -146339.542966 320119.671866 
L -146342.186124 320128.482392 
L -146344.829282 320119.671866 
L -146343.067176 320120.552918 
L -146343.067176 204647.151866 
L -146341.305071 204647.151866 
"/>
   </g>
   <g id="Quiver_98">
    <path clip-path="url(#p63371dcced)" d="M -146342.186124 192407245.059821 
L -261815.587176 192407245.059821 
L -261814.706124 192407246.821926 
L -261823.51665 192407244.178768 
L -261814.706124 192407241.53561 
L -261815.587176 192407243.297715 
L -146342.186124 192407243.297715 
L -146342.186124 192407245.059821 
"/>
   </g>
   <g id="matplotlib.axis_5">
    <g id="xtick_15">
     <g id="line2d_33">
      <g>
       <use style="stroke:#000000;stroke-width:0.8;" x="801.852632" xlink:href="#m77456c7f6b" y="378"/>
      </g>
     </g>
     <g id="text_35">
      <!-- −0.75 -->
      <g transform="translate(786.529975 392.598437)scale(0.1 -0.1)">
       <use xlink:href="#DejaVuSans-2212"/>
       <use x="83.789062" xlink:href="#DejaVuSans-30"/>
       <use x="147.412109" xlink:href="#DejaVuSans-2e"/>
       <use x="179.199219" xlink:href="#DejaVuSans-37"/>
       <use x="242.822266" xlink:href="#DejaVuSans-35"/>
      </g>
     </g>
    </g>
    <g id="xtick_16">
     <g id="line2d_34">
      <g>
       <use style="stroke:#000000;stroke-width:0.8;" x="841.010526" xlink:href="#m77456c7f6b" y="378"/>
      </g>
     </g>
     <g id="text_36">
      <!-- −0.50 -->
      <g transform="translate(825.68787 392.598437)scale(0.1 -0.1)">
       <use xlink:href="#DejaVuSans-2212"/>
       <use x="83.789062" xlink:href="#DejaVuSans-30"/>
       <use x="147.412109" xlink:href="#DejaVuSans-2e"/>
       <use x="179.199219" xlink:href="#DejaVuSans-35"/>
       <use x="242.822266" xlink:href="#DejaVuSans-30"/>
      </g>
     </g>
    </g>
    <g id="xtick_17">
     <g id="line2d_35">
      <g>
       <use style="stroke:#000000;stroke-width:0.8;" x="880.168421" xlink:href="#m77456c7f6b" y="378"/>
      </g>
     </g>
     <g id="text_37">
      <!-- −0.25 -->
      <g transform="translate(864.845765 392.598437)scale(0.1 -0.1)">
       <use xlink:href="#DejaVuSans-2212"/>
       <use x="83.789062" xlink:href="#DejaVuSans-30"/>
       <use x="147.412109" xlink:href="#DejaVuSans-2e"/>
       <use x="179.199219" xlink:href="#DejaVuSans-32"/>
       <use x="242.822266" xlink:href="#DejaVuSans-35"/>
      </g>
     </g>
    </g>
    <g id="xtick_18">
     <g id="line2d_36">
      <g>
       <use style="stroke:#000000;stroke-width:0.8;" x="919.326316" xlink:href="#m77456c7f6b" y="378"/>
      </g>
     </g>
     <g id="text_38">
      <!-- 0.00 -->
      <g transform="translate(908.193503 392.598437)scale(0.1 -0.1)">
       <use xlink:href="#DejaVuSans-30"/>
       <use x="63.623047" xlink:href="#DejaVuSans-2e"/>
       <use x="95.410156" xlink:href="#DejaVuSans-30"/>
       <use x="159.033203" xlink:href="#DejaVuSans-30"/>
      </g>
     </g>
    </g>
    <g id="xtick_19">
     <g id="line2d_37">
      <g>
       <use style="stroke:#000000;stroke-width:0.8;" x="958.484211" xlink:href="#m77456c7f6b" y="378"/>
      </g>
     </g>
     <g id="text_39">
      <!-- 0.25 -->
      <g transform="translate(947.351398 392.598437)scale(0.1 -0.1)">
       <use xlink:href="#DejaVuSans-30"/>
       <use x="63.623047" xlink:href="#DejaVuSans-2e"/>
       <use x="95.410156" xlink:href="#DejaVuSans-32"/>
       <use x="159.033203" xlink:href="#DejaVuSans-35"/>
      </g>
     </g>
    </g>
    <g id="xtick_20">
     <g id="line2d_38">
      <g>
       <use style="stroke:#000000;stroke-width:0.8;" x="997.642105" xlink:href="#m77456c7f6b" y="378"/>
      </g>
     </g>
     <g id="text_40">
      <!-- 0.50 -->
      <g transform="translate(986.509293 392.598437)scale(0.1 -0.1)">
       <use xlink:href="#DejaVuSans-30"/>
       <use x="63.623047" xlink:href="#DejaVuSans-2e"/>
       <use x="95.410156" xlink:href="#DejaVuSans-35"/>
       <use x="159.033203" xlink:href="#DejaVuSans-30"/>
      </g>
     </g>
    </g>
    <g id="xtick_21">
     <g id="line2d_39">
      <g>
       <use style="stroke:#000000;stroke-width:0.8;" x="1036.8" xlink:href="#m77456c7f6b" y="378"/>
      </g>
     </g>
     <g id="text_41">
      <!-- 0.75 -->
      <g transform="translate(1025.667188 392.598437)scale(0.1 -0.1)">
       <use xlink:href="#DejaVuSans-30"/>
       <use x="63.623047" xlink:href="#DejaVuSans-2e"/>
       <use x="95.410156" xlink:href="#DejaVuSans-37"/>
       <use x="159.033203" xlink:href="#DejaVuSans-35"/>
      </g>
     </g>
    </g>
    <g id="text_42">
     <!-- $x$ -->
     <g transform="translate(916.326316 406.276563)scale(0.1 -0.1)">
      <use transform="translate(0 0.3125)" xlink:href="#DejaVuSans-Oblique-78"/>
     </g>
    </g>
   </g>
   <g id="matplotlib.axis_6">
    <g id="ytick_15">
     <g id="line2d_40">
      <g>
       <use style="stroke:#000000;stroke-width:0.8;" x="801.852632" xlink:href="#mc57347536b" y="345.384"/>
      </g>
     </g>
     <g id="text_43">
      <!-- −0.6 -->
      <g transform="translate(770.569819 349.183219)scale(0.1 -0.1)">
       <use xlink:href="#DejaVuSans-2212"/>
       <use x="83.789062" xlink:href="#DejaVuSans-30"/>
       <use x="147.412109" xlink:href="#DejaVuSans-2e"/>
       <use x="179.199219" xlink:href="#DejaVuSans-36"/>
      </g>
     </g>
    </g>
    <g id="ytick_16">
     <g id="line2d_41">
      <g>
       <use style="stroke:#000000;stroke-width:0.8;" x="801.852632" xlink:href="#mc57347536b" y="301.896"/>
      </g>
     </g>
     <g id="text_44">
      <!-- −0.4 -->
      <g transform="translate(770.569819 305.695219)scale(0.1 -0.1)">
       <use xlink:href="#DejaVuSans-2212"/>
       <use x="83.789062" xlink:href="#DejaVuSans-30"/>
       <use x="147.412109" xlink:href="#DejaVuSans-2e"/>
       <use x="179.199219" xlink:href="#DejaVuSans-34"/>
      </g>
     </g>
    </g>
    <g id="ytick_17">
     <g id="line2d_42">
      <g>
       <use style="stroke:#000000;stroke-width:0.8;" x="801.852632" xlink:href="#mc57347536b" y="258.408"/>
      </g>
     </g>
     <g id="text_45">
      <!-- −0.2 -->
      <g transform="translate(770.569819 262.207219)scale(0.1 -0.1)">
       <use xlink:href="#DejaVuSans-2212"/>
       <use x="83.789062" xlink:href="#DejaVuSans-30"/>
       <use x="147.412109" xlink:href="#DejaVuSans-2e"/>
       <use x="179.199219" xlink:href="#DejaVuSans-32"/>
      </g>
     </g>
    </g>
    <g id="ytick_18">
     <g id="line2d_43">
      <g>
       <use style="stroke:#000000;stroke-width:0.8;" x="801.852632" xlink:href="#mc57347536b" y="214.92"/>
      </g>
     </g>
     <g id="text_46">
      <!-- 0.0 -->
      <g transform="translate(778.949507 218.719219)scale(0.1 -0.1)">
       <use xlink:href="#DejaVuSans-30"/>
       <use x="63.623047" xlink:href="#DejaVuSans-2e"/>
       <use x="95.410156" xlink:href="#DejaVuSans-30"/>
      </g>
     </g>
    </g>
    <g id="ytick_19">
     <g id="line2d_44">
      <g>
       <use style="stroke:#000000;stroke-width:0.8;" x="801.852632" xlink:href="#mc57347536b" y="171.432"/>
      </g>
     </g>
     <g id="text_47">
      <!-- 0.2 -->
      <g transform="translate(778.949507 175.231219)scale(0.1 -0.1)">
       <use xlink:href="#DejaVuSans-30"/>
       <use x="63.623047" xlink:href="#DejaVuSans-2e"/>
       <use x="95.410156" xlink:href="#DejaVuSans-32"/>
      </g>
     </g>
    </g>
    <g id="ytick_20">
     <g id="line2d_45">
      <g>
       <use style="stroke:#000000;stroke-width:0.8;" x="801.852632" xlink:href="#mc57347536b" y="127.944"/>
      </g>
     </g>
     <g id="text_48">
      <!-- 0.4 -->
      <g transform="translate(778.949507 131.743219)scale(0.1 -0.1)">
       <use xlink:href="#DejaVuSans-30"/>
       <use x="63.623047" xlink:href="#DejaVuSans-2e"/>
       <use x="95.410156" xlink:href="#DejaVuSans-34"/>
      </g>
     </g>
    </g>
    <g id="ytick_21">
     <g id="line2d_46">
      <g>
       <use style="stroke:#000000;stroke-width:0.8;" x="801.852632" xlink:href="#mc57347536b" y="84.456"/>
      </g>
     </g>
     <g id="text_49">
      <!-- 0.6 -->
      <g transform="translate(778.949507 88.255219)scale(0.1 -0.1)">
       <use xlink:href="#DejaVuSans-30"/>
       <use x="63.623047" xlink:href="#DejaVuSans-2e"/>
       <use x="95.410156" xlink:href="#DejaVuSans-36"/>
      </g>
     </g>
    </g>
    <g id="text_50">
     <!-- $f(x, \mu)$ -->
     <g transform="translate(764.469819 229.32)rotate(-90)scale(0.1 -0.1)">
      <use transform="translate(0 0.015625)" xlink:href="#DejaVuSans-Oblique-66"/>
      <use transform="translate(35.205078 0.015625)" xlink:href="#DejaVuSans-28"/>
      <use transform="translate(74.21875 0.015625)" xlink:href="#DejaVuSans-Oblique-78"/>
      <use transform="translate(133.398438 0.015625)" xlink:href="#DejaVuSans-2c"/>
      <use transform="translate(184.667969 0.015625)" xlink:href="#DejaVuSans-Oblique-3bc"/>
      <use transform="translate(248.291016 0.015625)" xlink:href="#DejaVuSans-29"/>
     </g>
    </g>
   </g>
   <g id="line2d_47">
    <path clip-path="url(#p63371dcced)" d="M 815.455826 433 
L 820.648421 416.465136 
L 826.913684 397.156464 
L 833.178947 378.5436 
L 839.444211 360.626544 
L 845.709474 343.405296 
L 851.974737 326.879856 
L 858.24 311.050224 
L 864.505263 295.9164 
L 870.770526 281.478384 
L 877.035789 267.736176 
L 881.734737 257.886144 
L 886.433684 248.427504 
L 891.132632 239.360256 
L 895.831579 230.6844 
L 900.530526 222.399936 
L 905.229474 214.506864 
L 909.928421 207.005184 
L 914.627368 199.894896 
L 919.326316 193.176 
L 924.025263 186.848496 
L 928.724211 180.912384 
L 933.423158 175.367664 
L 938.122105 170.214336 
L 942.821053 165.4524 
L 947.52 161.081856 
L 952.218947 157.102704 
L 956.917895 153.514944 
L 961.616842 150.318576 
L 966.315789 147.5136 
L 969.448421 145.861056 
L 972.581053 144.382464 
L 975.713684 143.077824 
L 978.846316 141.947136 
L 981.978947 140.9904 
L 985.111579 140.207616 
L 988.244211 139.598784 
L 991.376842 139.163904 
L 994.509474 138.902976 
L 997.642105 138.816 
L 1000.774737 138.902976 
L 1003.907368 139.163904 
L 1007.04 139.598784 
L 1010.172632 140.207616 
L 1013.305263 140.9904 
L 1016.437895 141.947136 
L 1019.570526 143.077824 
L 1022.703158 144.382464 
L 1025.835789 145.861056 
L 1028.968421 147.5136 
L 1032.101053 149.340096 
L 1036.8 152.406 
L 1036.8 152.406 
" style="fill:none;stroke:#000000;stroke-linecap:square;stroke-width:1.5;"/>
   </g>
   <g id="line2d_48">
    <path clip-path="url(#p63371dcced)" d="M 801.852632 378 
L 1036.8 51.84 
L 1036.8 51.84 
" style="fill:none;stroke:#000000;stroke-linecap:square;stroke-width:1.5;"/>
   </g>
   <g id="patch_13">
    <path d="M 801.852632 378 
L 801.852632 51.84 
" style="fill:none;stroke:#000000;stroke-linecap:square;stroke-linejoin:miter;stroke-width:0.8;"/>
   </g>
   <g id="patch_14">
    <path d="M 1036.8 378 
L 1036.8 51.84 
" style="fill:none;stroke:#000000;stroke-linecap:square;stroke-linejoin:miter;stroke-width:0.8;"/>
   </g>
   <g id="patch_15">
    <path d="M 801.852632 378 
L 1036.8 378 
" style="fill:none;stroke:#000000;stroke-linecap:square;stroke-linejoin:miter;stroke-width:0.8;"/>
   </g>
   <g id="patch_16">
    <path d="M 801.852632 51.84 
L 1036.8 51.84 
" style="fill:none;stroke:#000000;stroke-linecap:square;stroke-linejoin:miter;stroke-width:0.8;"/>
   </g>
   <g id="text_51">
    <!-- $\mu = 0.1$ -->
    <g transform="translate(841.010526 84.456)scale(0.1 -0.1)">
     <use transform="translate(0 0.78125)" xlink:href="#DejaVuSans-Oblique-3bc"/>
     <use transform="translate(83.105469 0.78125)" xlink:href="#DejaVuSans-3d"/>
     <use transform="translate(186.376953 0.78125)" xlink:href="#DejaVuSans-30"/>
     <use transform="translate(250 0.78125)" xlink:href="#DejaVuSans-2e"/>
     <use transform="translate(281.787109 0.78125)" xlink:href="#DejaVuSans-31"/>
    </g>
   </g>
  </g>
 </g>
 <defs>
  <clipPath id="p8ccc3c5c1f">
   <rect height="326.16" width="234.947368" x="144" y="51.84"/>
  </clipPath>
  <clipPath id="p814d5cfb5d">
   <rect height="326.16" width="234.947368" x="472.926316" y="51.84"/>
  </clipPath>
  <clipPath id="p63371dcced">
   <rect height="326.16" width="234.947368" x="801.852632" y="51.84"/>
  </clipPath>
 </defs>
</svg>
