<?xml version="1.0" encoding="utf-8" standalone="no"?>
<!DOCTYPE svg PUBLIC "-//W3C//DTD SVG 1.1//EN"
  "http://www.w3.org/Graphics/SVG/1.1/DTD/svg11.dtd">
<svg height="432pt" version="1.1" viewBox="0 0 1152 432" width="1152pt" xmlns="http://www.w3.org/2000/svg" xmlns:xlink="http://www.w3.org/1999/xlink">
 <metadata>
  <rdf:RDF xmlns:cc="http://creativecommons.org/ns#" xmlns:dc="http://purl.org/dc/elements/1.1/" xmlns:rdf="http://www.w3.org/1999/02/22-rdf-syntax-ns#">
   <cc:Work>
    <dc:type rdf:resource="http://purl.org/dc/dcmitype/StillImage"/>
    <dc:date>2021-06-27T12:07:30.550780</dc:date>
    <dc:format>image/svg+xml</dc:format>
    <dc:creator>
     <cc:Agent>
      <dc:title>Matplotlib v3.4.2, https://matplotlib.org/</dc:title>
     </cc:Agent>
    </dc:creator>
   </cc:Work>
  </rdf:RDF>
 </metadata>
 <defs>
  <style type="text/css">*{stroke-linecap:butt;stroke-linejoin:round;}</style>
 </defs>
 <g id="figure_1">
  <g id="patch_1">
   <path d="M 0 432 
L 1152 432 
L 1152 0 
L 0 0 
z
" style="fill:none;"/>
  </g>
  <g id="axes_1">
   <g id="patch_2">
    <path d="M 144 378 
L 378.947368 378 
L 378.947368 51.84 
L 144 51.84 
z
" style="fill:#ffffff;"/>
   </g>
   <g id="PathCollection_1">
    <defs>
     <path d="M 0 1.5 
C 0.397805 1.5 0.77937 1.341951 1.06066 1.06066 
C 1.341951 0.77937 1.5 0.397805 1.5 0 
C 1.5 -0.397805 1.341951 -0.77937 1.06066 -1.06066 
C 0.77937 -1.341951 0.397805 -1.5 0 -1.5 
C -0.397805 -1.5 -0.77937 -1.341951 -1.06066 -1.06066 
C -1.341951 -0.77937 -1.5 -0.397805 -1.5 0 
C -1.5 0.397805 -1.341951 0.77937 -1.06066 1.06066 
C -0.77937 1.341951 -0.397805 1.5 0 1.5 
z
" id="m5fb66d90fc" style="stroke:#000000;"/>
    </defs>
    <g clip-path="url(#p55206b9338)">
     <use style="stroke:#000000;" x="300.631579" xlink:href="#m5fb66d90fc" y="160.56"/>
     <use style="stroke:#000000;" x="271.263158" xlink:href="#m5fb66d90fc" y="201.33"/>
     <use style="stroke:#000000;" x="265.756579" xlink:href="#m5fb66d90fc" y="208.974375"/>
     <use style="stroke:#000000;" x="263.498021" xlink:href="#m5fb66d90fc" y="212.109763"/>
     <use style="stroke:#000000;" x="262.45969" xlink:href="#m5fb66d90fc" y="213.551202"/>
     <use style="stroke:#000000;" x="261.96048" xlink:href="#m5fb66d90fc" y="214.244217"/>
     <use style="stroke:#000000;" x="261.715569" xlink:href="#m5fb66d90fc" y="214.584209"/>
     <use style="stroke:#000000;" x="261.594253" xlink:href="#m5fb66d90fc" y="214.752623"/>
    </g>
   </g>
   <g id="Quiver_1">
    <path clip-path="url(#p55206b9338)" d="M 301.512632 160.56 
L 301.512632 193.400526 
L 303.274737 192.519474 
L 300.631579 201.33 
L 297.988421 192.519474 
L 299.750526 193.400526 
L 299.750526 160.56 
L 301.512632 160.56 
"/>
   </g>
   <g id="Quiver_2">
    <path clip-path="url(#p55206b9338)" d="M 300.631579 202.211053 
L 279.192632 202.211053 
L 280.073684 203.973158 
L 271.263158 201.33 
L 280.073684 198.686842 
L 279.192632 200.448947 
L 300.631579 200.448947 
L 300.631579 202.211053 
"/>
   </g>
   <g id="Quiver_3">
    <path clip-path="url(#p55206b9338)" d="M 272.027595 201.33 
L 272.027595 202.094437 
L 273.55647 201.33 
L 271.263158 208.974375 
L 268.969845 201.33 
L 270.49872 202.094437 
L 270.49872 201.33 
L 272.027595 201.33 
"/>
   </g>
   <g id="Quiver_4">
    <path clip-path="url(#p55206b9338)" d="M 271.263158 209.525033 
L 270.7125 209.525033 
L 271.263158 210.626349 
L 265.756579 208.974375 
L 271.263158 207.322401 
L 270.7125 208.423717 
L 271.263158 208.423717 
L 271.263158 209.525033 
"/>
   </g>
   <g id="Quiver_5">
    <path clip-path="url(#p55206b9338)" d="M 266.070118 208.974375 
L 266.070118 209.287914 
L 266.697195 208.974375 
L 265.756579 212.109763 
L 264.815962 208.974375 
L 265.44304 209.287914 
L 265.44304 208.974375 
L 266.070118 208.974375 
"/>
   </g>
   <g id="Quiver_6">
    <path clip-path="url(#p55206b9338)" d="M 265.756579 212.335619 
L 265.530723 212.335619 
L 265.756579 212.787331 
L 263.498021 212.109763 
L 265.756579 211.432196 
L 265.530723 211.883907 
L 265.756579 211.883907 
L 265.756579 212.335619 
"/>
   </g>
   <g id="Quiver_7">
    <path clip-path="url(#p55206b9338)" d="M 263.498021 212.990816 
L 264.261035 212.550289 
L 264.261035 211.669237 
L 263.498021 211.228711 
L 262.735007 211.669237 
L 262.735007 212.550289 
L 263.498021 212.990816 
L 264.261035 212.550289 
"/>
   </g>
   <g id="Quiver_8">
    <path clip-path="url(#p55206b9338)" d="M 262.616969 213.551202 
L 263.057495 214.314216 
L 263.938547 214.314216 
L 264.379074 213.551202 
L 263.938547 212.788188 
L 263.057495 212.788188 
L 262.616969 213.551202 
L 263.057495 214.314216 
"/>
   </g>
   <g id="Quiver_9">
    <path clip-path="url(#p55206b9338)" d="M 262.45969 214.432254 
L 263.222704 213.991728 
L 263.222704 213.110675 
L 262.45969 212.670149 
L 261.696676 213.110675 
L 261.696676 213.991728 
L 262.45969 214.432254 
L 263.222704 213.991728 
"/>
   </g>
   <g id="Quiver_10">
    <path clip-path="url(#p55206b9338)" d="M 261.578637 214.244217 
L 262.019163 215.007231 
L 262.900216 215.007231 
L 263.340742 214.244217 
L 262.900216 213.481204 
L 262.019163 213.481204 
L 261.578637 214.244217 
L 262.019163 215.007231 
"/>
   </g>
   <g id="Quiver_11">
    <path clip-path="url(#p55206b9338)" d="M 261.96048 215.12527 
L 262.723494 214.684744 
L 262.723494 213.803691 
L 261.96048 213.363165 
L 261.197466 213.803691 
L 261.197466 214.684744 
L 261.96048 215.12527 
L 262.723494 214.684744 
"/>
   </g>
   <g id="Quiver_12">
    <path clip-path="url(#p55206b9338)" d="M 261.079427 214.584209 
L 261.519954 215.347223 
L 262.401006 215.347223 
L 262.841533 214.584209 
L 262.401006 213.821195 
L 261.519954 213.821195 
L 261.079427 214.584209 
L 261.519954 215.347223 
"/>
   </g>
   <g id="Quiver_13">
    <path clip-path="url(#p55206b9338)" d="M 261.715569 215.465262 
L 262.478583 215.024735 
L 262.478583 214.143683 
L 261.715569 213.703156 
L 260.952555 214.143683 
L 260.952555 215.024735 
L 261.715569 215.465262 
L 262.478583 215.024735 
"/>
   </g>
   <g id="Quiver_14">
    <path clip-path="url(#p55206b9338)" d="M 260.834517 214.752623 
L 261.275043 215.515637 
L 262.156096 215.515637 
L 262.596622 214.752623 
L 262.156096 213.989609 
L 261.275043 213.989609 
L 260.834517 214.752623 
L 261.275043 215.515637 
"/>
   </g>
   <g id="PathCollection_2">
    <g clip-path="url(#p55206b9338)">
     <use style="stroke:#000000;" x="222.315789" xlink:href="#m5fb66d90fc" y="269.28"/>
     <use style="stroke:#000000;" x="232.105263" xlink:href="#m5fb66d90fc" y="255.69"/>
     <use style="stroke:#000000;" x="241.282895" xlink:href="#m5fb66d90fc" y="242.949375"/>
     <use style="stroke:#000000;" x="248.775571" xlink:href="#m5fb66d90fc" y="232.547849"/>
     <use style="stroke:#000000;" x="254.095192" xlink:href="#m5fb66d90fc" y="225.163013"/>
     <use style="stroke:#000000;" x="257.436857" xlink:href="#m5fb66d90fc" y="220.524027"/>
     <use style="stroke:#000000;" x="259.351231" xlink:href="#m5fb66d90fc" y="217.866445"/>
     <use style="stroke:#000000;" x="260.383697" xlink:href="#m5fb66d90fc" y="216.433149"/>
    </g>
   </g>
   <g id="Quiver_15">
    <path clip-path="url(#p55206b9338)" d="M 221.434737 269.28 
L 221.434737 263.619474 
L 219.672632 264.500526 
L 222.315789 255.69 
L 224.958947 264.500526 
L 223.196842 263.619474 
L 223.196842 269.28 
L 221.434737 269.28 
"/>
   </g>
   <g id="Quiver_16">
    <path clip-path="url(#p55206b9338)" d="M 222.315789 254.808947 
L 224.175789 254.808947 
L 223.294737 253.046842 
L 232.105263 255.69 
L 223.294737 258.333158 
L 224.175789 256.571053 
L 222.315789 256.571053 
L 222.315789 254.808947 
"/>
   </g>
   <g id="Quiver_17">
    <path clip-path="url(#p55206b9338)" d="M 231.224211 255.69 
L 231.224211 250.878849 
L 229.462105 251.759901 
L 232.105263 242.949375 
L 234.748421 251.759901 
L 232.986316 250.878849 
L 232.986316 255.69 
L 231.224211 255.69 
"/>
   </g>
   <g id="Quiver_18">
    <path clip-path="url(#p55206b9338)" d="M 232.105263 242.068322 
L 233.353421 242.068322 
L 232.472368 240.306217 
L 241.282895 242.949375 
L 232.472368 245.592533 
L 233.353421 243.830428 
L 232.105263 243.830428 
L 232.105263 242.068322 
"/>
   </g>
   <g id="Quiver_19">
    <path clip-path="url(#p55206b9338)" d="M 240.401842 242.949375 
L 240.401842 240.477323 
L 238.639737 241.358375 
L 241.282895 232.547849 
L 243.926053 241.358375 
L 242.163947 240.477323 
L 242.163947 242.949375 
L 240.401842 242.949375 
"/>
   </g>
   <g id="Quiver_20">
    <path clip-path="url(#p55206b9338)" d="M 241.282895 231.798582 
L 242.032162 231.798582 
L 241.282895 230.300046 
L 248.775571 232.547849 
L 241.282895 234.795652 
L 242.032162 233.297117 
L 241.282895 233.297117 
L 241.282895 231.798582 
"/>
   </g>
   <g id="Quiver_21">
    <path clip-path="url(#p55206b9338)" d="M 248.037087 232.547849 
L 248.037087 231.809366 
L 246.56012 232.547849 
L 248.775571 225.163013 
L 250.991021 232.547849 
L 249.514054 231.809366 
L 249.514054 232.547849 
L 248.037087 232.547849 
"/>
   </g>
   <g id="Quiver_22">
    <path clip-path="url(#p55206b9338)" d="M 248.775571 224.631051 
L 249.307533 224.631051 
L 248.775571 223.567127 
L 254.095192 225.163013 
L 248.775571 226.7589 
L 249.307533 225.694975 
L 248.775571 225.694975 
L 248.775571 224.631051 
"/>
   </g>
   <g id="Quiver_23">
    <path clip-path="url(#p55206b9338)" d="M 253.631293 225.163013 
L 253.631293 224.699115 
L 252.703496 225.163013 
L 254.095192 220.524027 
L 255.486888 225.163013 
L 254.559091 224.699115 
L 254.559091 225.163013 
L 253.631293 225.163013 
"/>
   </g>
   <g id="Quiver_24">
    <path clip-path="url(#p55206b9338)" d="M 254.095192 220.189861 
L 254.429358 220.189861 
L 254.095192 219.521528 
L 257.436857 220.524027 
L 254.095192 221.526527 
L 254.429358 220.858194 
L 254.095192 220.858194 
L 254.095192 220.189861 
"/>
   </g>
   <g id="Quiver_25">
    <path clip-path="url(#p55206b9338)" d="M 257.171099 220.524027 
L 257.171099 220.258269 
L 256.639582 220.524027 
L 257.436857 217.866445 
L 258.234132 220.524027 
L 257.702615 220.258269 
L 257.702615 220.524027 
L 257.171099 220.524027 
"/>
   </g>
   <g id="Quiver_26">
    <path clip-path="url(#p55206b9338)" d="M 257.436857 217.675008 
L 257.628295 217.675008 
L 257.436857 217.292133 
L 259.351231 217.866445 
L 257.436857 218.440757 
L 257.628295 218.057882 
L 257.436857 218.057882 
L 257.436857 217.675008 
"/>
   </g>
   <g id="Quiver_27">
    <path clip-path="url(#p55206b9338)" d="M 259.351231 216.985392 
L 258.588217 217.425919 
L 258.588217 218.306971 
L 259.351231 218.747498 
L 260.114245 218.306971 
L 260.114245 217.425919 
L 259.351231 216.985392 
L 258.588217 217.425919 
"/>
   </g>
   <g id="Quiver_28">
    <path clip-path="url(#p55206b9338)" d="M 260.232283 216.433149 
L 259.791757 215.670135 
L 258.910704 215.670135 
L 258.470178 216.433149 
L 258.910704 217.196163 
L 259.791757 217.196163 
L 260.232283 216.433149 
L 259.791757 215.670135 
"/>
   </g>
   <g id="PathCollection_3">
    <g clip-path="url(#p55206b9338)">
     <use style="stroke:#000000;" x="167.494737" xlink:href="#m5fb66d90fc" y="345.384"/>
     <use style="stroke:#000000;" x="158.096842" xlink:href="#m5fb66d90fc" y="358.4304"/>
     <use style="stroke:#000000;" x="141.556547" xlink:href="#m5fb66d90fc" y="381.392064"/>
     <use style="stroke:#000000;" x="109.706556" xlink:href="#m5fb66d90fc" y="425.607044"/>
     <use style="stroke:#000000;" x="38.536369" xlink:href="#m5fb66d90fc" y="524.407335"/>
     <use style="stroke:#000000;" x="-1" xlink:href="#m5fb66d90fc" y="579.292742"/>
    </g>
   </g>
   <g id="Quiver_29">
    <path clip-path="url(#p55206b9338)" d="M 168.375789 345.384 
L 168.375789 350.500926 
L 170.137895 349.619874 
L 167.494737 358.4304 
L 164.851579 349.619874 
L 166.613684 350.500926 
L 166.613684 345.384 
L 168.375789 345.384 
"/>
   </g>
   <g id="Quiver_30">
    <path clip-path="url(#p55206b9338)" d="M 167.494737 359.311453 
L 166.026316 359.311453 
L 166.907368 361.073558 
L 158.096842 358.4304 
L 166.907368 355.787242 
L 166.026316 357.549347 
L 167.494737 357.549347 
L 167.494737 359.311453 
"/>
   </g>
   <g id="Quiver_31">
    <path clip-path="url(#p55206b9338)" d="M 158.977895 358.4304 
L 158.977895 373.46259 
L 160.74 372.581538 
L 158.096842 381.392064 
L 155.453684 372.581538 
L 157.215789 373.46259 
L 157.215789 358.4304 
L 158.977895 358.4304 
"/>
   </g>
   <g id="Quiver_32">
    <path clip-path="url(#p55206b9338)" d="M 158.096842 382.273117 
L 149.486021 382.273117 
L 150.367074 384.035222 
L 141.556547 381.392064 
L 150.367074 378.748906 
L 149.486021 380.511011 
L 158.096842 380.511011 
L 158.096842 382.273117 
"/>
   </g>
   <g id="Quiver_33">
    <path clip-path="url(#p55206b9338)" d="M 142.4376 381.392064 
L 142.4376 417.677571 
L 144.199705 416.796518 
L 141.556547 425.607044 
L 138.913389 416.796518 
L 140.675495 417.677571 
L 140.675495 381.392064 
L 142.4376 381.392064 
"/>
   </g>
   <g id="Quiver_34">
    <path clip-path="url(#p55206b9338)" d="M 141.556547 426.488097 
L 117.63603 426.488097 
L 118.517082 428.250202 
L 109.706556 425.607044 
L 118.517082 422.963886 
L 117.63603 424.725992 
L 141.556547 424.725992 
L 141.556547 426.488097 
"/>
   </g>
   <g id="Quiver_35">
    <path clip-path="url(#p55206b9338)" d="M 110.587608 425.607044 
L 110.587608 516.477861 
L 112.349714 515.596808 
L 109.706556 524.407335 
L 107.063398 515.596808 
L 108.825503 516.477861 
L 108.825503 425.607044 
L 110.587608 425.607044 
"/>
   </g>
   <g id="Quiver_36">
    <path clip-path="url(#p55206b9338)" d="M 109.706556 525.288387 
L 46.465842 525.288387 
L 47.346895 527.050493 
L 38.536369 524.407335 
L 47.346895 521.764177 
L 46.465842 523.526282 
L 109.706556 523.526282 
L 109.706556 525.288387 
"/>
   </g>
   <g id="Quiver_37">
    <path clip-path="url(#p55206b9338)" d="M 39.417421 524.407335 
L 39.417421 802.234609 
L 41.179527 801.353556 
L 38.536369 810.164083 
L 35.893211 801.353556 
L 37.655316 802.234609 
L 37.655316 524.407335 
L 39.417421 524.407335 
"/>
   </g>
   <g id="Quiver_38">
    <path clip-path="url(#p55206b9338)" d="M 38.536369 811.045135 
L -159.37729 811.045135 
L -158.496237 812.80724 
L -167.306763 810.164083 
L -158.496237 807.520925 
L -159.37729 809.28303 
L 38.536369 809.28303 
L 38.536369 811.045135 
"/>
   </g>
   <g id="Quiver_39">
    <path clip-path="url(#p55206b9338)" d="M -166.425711 810.164083 
L -166.425711 2134.098944 
L -164.663605 2133.217892 
L -167.306763 2142.028418 
L -169.949921 2133.217892 
L -168.187816 2134.098944 
L -168.187816 810.164083 
L -166.425711 810.164083 
"/>
   </g>
   <g id="Quiver_40">
    <path clip-path="url(#p55206b9338)" d="M -167.306763 2142.909471 
L -1118.777648 2142.909471 
L -1117.896595 2144.671576 
L -1126.707121 2142.028418 
L -1117.896595 2139.38526 
L -1118.777648 2141.147366 
L -167.306763 2141.147366 
L -167.306763 2142.909471 
"/>
   </g>
   <g id="Quiver_41">
    <path clip-path="url(#p55206b9338)" d="M -1125.826069 2142.028418 
L -1125.826069 18249.954482 
L -1124.063963 18249.073429 
L -1126.707121 18257.883955 
L -1129.350279 18249.073429 
L -1127.588174 18249.954482 
L -1127.588174 2142.028418 
L -1125.826069 2142.028418 
"/>
   </g>
   <g id="Quiver_42">
    <path clip-path="url(#p55206b9338)" d="M -1126.707121 18258.765008 
L -12727.735976 18258.765008 
L -12726.854923 18260.527113 
L -12735.665449 18257.883955 
L -12726.854923 18255.240797 
L -12727.735976 18257.002903 
L -1126.707121 18257.002903 
L -1126.707121 18258.765008 
"/>
   </g>
   <g id="matplotlib.axis_1">
    <g id="xtick_1">
     <g id="line2d_1">
      <defs>
       <path d="M 0 0 
L 0 3.5 
" id="m448000eef7" style="stroke:#000000;stroke-width:0.8;"/>
      </defs>
      <g>
       <use style="stroke:#000000;stroke-width:0.8;" x="144" xlink:href="#m448000eef7" y="378"/>
      </g>
     </g>
     <g id="text_1">
      <!-- −0.75 -->
      <g transform="translate(128.677344 392.598437)scale(0.1 -0.1)">
       <defs>
        <path d="M 678 2272 
L 4684 2272 
L 4684 1741 
L 678 1741 
L 678 2272 
z
" id="DejaVuSans-2212" transform="scale(0.015625)"/>
        <path d="M 2034 4250 
Q 1547 4250 1301 3770 
Q 1056 3291 1056 2328 
Q 1056 1369 1301 889 
Q 1547 409 2034 409 
Q 2525 409 2770 889 
Q 3016 1369 3016 2328 
Q 3016 3291 2770 3770 
Q 2525 4250 2034 4250 
z
M 2034 4750 
Q 2819 4750 3233 4129 
Q 3647 3509 3647 2328 
Q 3647 1150 3233 529 
Q 2819 -91 2034 -91 
Q 1250 -91 836 529 
Q 422 1150 422 2328 
Q 422 3509 836 4129 
Q 1250 4750 2034 4750 
z
" id="DejaVuSans-30" transform="scale(0.015625)"/>
        <path d="M 684 794 
L 1344 794 
L 1344 0 
L 684 0 
L 684 794 
z
" id="DejaVuSans-2e" transform="scale(0.015625)"/>
        <path d="M 525 4666 
L 3525 4666 
L 3525 4397 
L 1831 0 
L 1172 0 
L 2766 4134 
L 525 4134 
L 525 4666 
z
" id="DejaVuSans-37" transform="scale(0.015625)"/>
        <path d="M 691 4666 
L 3169 4666 
L 3169 4134 
L 1269 4134 
L 1269 2991 
Q 1406 3038 1543 3061 
Q 1681 3084 1819 3084 
Q 2600 3084 3056 2656 
Q 3513 2228 3513 1497 
Q 3513 744 3044 326 
Q 2575 -91 1722 -91 
Q 1428 -91 1123 -41 
Q 819 9 494 109 
L 494 744 
Q 775 591 1075 516 
Q 1375 441 1709 441 
Q 2250 441 2565 725 
Q 2881 1009 2881 1497 
Q 2881 1984 2565 2268 
Q 2250 2553 1709 2553 
Q 1456 2553 1204 2497 
Q 953 2441 691 2322 
L 691 4666 
z
" id="DejaVuSans-35" transform="scale(0.015625)"/>
       </defs>
       <use xlink:href="#DejaVuSans-2212"/>
       <use x="83.789062" xlink:href="#DejaVuSans-30"/>
       <use x="147.412109" xlink:href="#DejaVuSans-2e"/>
       <use x="179.199219" xlink:href="#DejaVuSans-37"/>
       <use x="242.822266" xlink:href="#DejaVuSans-35"/>
      </g>
     </g>
    </g>
    <g id="xtick_2">
     <g id="line2d_2">
      <g>
       <use style="stroke:#000000;stroke-width:0.8;" x="183.157895" xlink:href="#m448000eef7" y="378"/>
      </g>
     </g>
     <g id="text_2">
      <!-- −0.50 -->
      <g transform="translate(167.835238 392.598437)scale(0.1 -0.1)">
       <use xlink:href="#DejaVuSans-2212"/>
       <use x="83.789062" xlink:href="#DejaVuSans-30"/>
       <use x="147.412109" xlink:href="#DejaVuSans-2e"/>
       <use x="179.199219" xlink:href="#DejaVuSans-35"/>
       <use x="242.822266" xlink:href="#DejaVuSans-30"/>
      </g>
     </g>
    </g>
    <g id="xtick_3">
     <g id="line2d_3">
      <g>
       <use style="stroke:#000000;stroke-width:0.8;" x="222.315789" xlink:href="#m448000eef7" y="378"/>
      </g>
     </g>
     <g id="text_3">
      <!-- −0.25 -->
      <g transform="translate(206.993133 392.598437)scale(0.1 -0.1)">
       <defs>
        <path d="M 1228 531 
L 3431 531 
L 3431 0 
L 469 0 
L 469 531 
Q 828 903 1448 1529 
Q 2069 2156 2228 2338 
Q 2531 2678 2651 2914 
Q 2772 3150 2772 3378 
Q 2772 3750 2511 3984 
Q 2250 4219 1831 4219 
Q 1534 4219 1204 4116 
Q 875 4013 500 3803 
L 500 4441 
Q 881 4594 1212 4672 
Q 1544 4750 1819 4750 
Q 2544 4750 2975 4387 
Q 3406 4025 3406 3419 
Q 3406 3131 3298 2873 
Q 3191 2616 2906 2266 
Q 2828 2175 2409 1742 
Q 1991 1309 1228 531 
z
" id="DejaVuSans-32" transform="scale(0.015625)"/>
       </defs>
       <use xlink:href="#DejaVuSans-2212"/>
       <use x="83.789062" xlink:href="#DejaVuSans-30"/>
       <use x="147.412109" xlink:href="#DejaVuSans-2e"/>
       <use x="179.199219" xlink:href="#DejaVuSans-32"/>
       <use x="242.822266" xlink:href="#DejaVuSans-35"/>
      </g>
     </g>
    </g>
    <g id="xtick_4">
     <g id="line2d_4">
      <g>
       <use style="stroke:#000000;stroke-width:0.8;" x="261.473684" xlink:href="#m448000eef7" y="378"/>
      </g>
     </g>
     <g id="text_4">
      <!-- 0.00 -->
      <g transform="translate(250.340872 392.598437)scale(0.1 -0.1)">
       <use xlink:href="#DejaVuSans-30"/>
       <use x="63.623047" xlink:href="#DejaVuSans-2e"/>
       <use x="95.410156" xlink:href="#DejaVuSans-30"/>
       <use x="159.033203" xlink:href="#DejaVuSans-30"/>
      </g>
     </g>
    </g>
    <g id="xtick_5">
     <g id="line2d_5">
      <g>
       <use style="stroke:#000000;stroke-width:0.8;" x="300.631579" xlink:href="#m448000eef7" y="378"/>
      </g>
     </g>
     <g id="text_5">
      <!-- 0.25 -->
      <g transform="translate(289.498766 392.598437)scale(0.1 -0.1)">
       <use xlink:href="#DejaVuSans-30"/>
       <use x="63.623047" xlink:href="#DejaVuSans-2e"/>
       <use x="95.410156" xlink:href="#DejaVuSans-32"/>
       <use x="159.033203" xlink:href="#DejaVuSans-35"/>
      </g>
     </g>
    </g>
    <g id="xtick_6">
     <g id="line2d_6">
      <g>
       <use style="stroke:#000000;stroke-width:0.8;" x="339.789474" xlink:href="#m448000eef7" y="378"/>
      </g>
     </g>
     <g id="text_6">
      <!-- 0.50 -->
      <g transform="translate(328.656661 392.598437)scale(0.1 -0.1)">
       <use xlink:href="#DejaVuSans-30"/>
       <use x="63.623047" xlink:href="#DejaVuSans-2e"/>
       <use x="95.410156" xlink:href="#DejaVuSans-35"/>
       <use x="159.033203" xlink:href="#DejaVuSans-30"/>
      </g>
     </g>
    </g>
    <g id="xtick_7">
     <g id="line2d_7">
      <g>
       <use style="stroke:#000000;stroke-width:0.8;" x="378.947368" xlink:href="#m448000eef7" y="378"/>
      </g>
     </g>
     <g id="text_7">
      <!-- 0.75 -->
      <g transform="translate(367.814556 392.598437)scale(0.1 -0.1)">
       <use xlink:href="#DejaVuSans-30"/>
       <use x="63.623047" xlink:href="#DejaVuSans-2e"/>
       <use x="95.410156" xlink:href="#DejaVuSans-37"/>
       <use x="159.033203" xlink:href="#DejaVuSans-35"/>
      </g>
     </g>
    </g>
    <g id="text_8">
     <!-- $x$ -->
     <g transform="translate(258.473684 406.276563)scale(0.1 -0.1)">
      <defs>
       <path d="M 3841 3500 
L 2234 1784 
L 3219 0 
L 2559 0 
L 1819 1388 
L 531 0 
L -166 0 
L 1556 1844 
L 641 3500 
L 1300 3500 
L 1972 2234 
L 3144 3500 
L 3841 3500 
z
" id="DejaVuSans-Oblique-78" transform="scale(0.015625)"/>
      </defs>
      <use transform="translate(0 0.3125)" xlink:href="#DejaVuSans-Oblique-78"/>
     </g>
    </g>
   </g>
   <g id="matplotlib.axis_2">
    <g id="ytick_1">
     <g id="line2d_8">
      <defs>
       <path d="M 0 0 
L -3.5 0 
" id="m7ee92563d9" style="stroke:#000000;stroke-width:0.8;"/>
      </defs>
      <g>
       <use style="stroke:#000000;stroke-width:0.8;" x="144" xlink:href="#m7ee92563d9" y="345.384"/>
      </g>
     </g>
     <g id="text_9">
      <!-- −0.6 -->
      <g transform="translate(112.717187 349.183219)scale(0.1 -0.1)">
       <defs>
        <path d="M 2113 2584 
Q 1688 2584 1439 2293 
Q 1191 2003 1191 1497 
Q 1191 994 1439 701 
Q 1688 409 2113 409 
Q 2538 409 2786 701 
Q 3034 994 3034 1497 
Q 3034 2003 2786 2293 
Q 2538 2584 2113 2584 
z
M 3366 4563 
L 3366 3988 
Q 3128 4100 2886 4159 
Q 2644 4219 2406 4219 
Q 1781 4219 1451 3797 
Q 1122 3375 1075 2522 
Q 1259 2794 1537 2939 
Q 1816 3084 2150 3084 
Q 2853 3084 3261 2657 
Q 3669 2231 3669 1497 
Q 3669 778 3244 343 
Q 2819 -91 2113 -91 
Q 1303 -91 875 529 
Q 447 1150 447 2328 
Q 447 3434 972 4092 
Q 1497 4750 2381 4750 
Q 2619 4750 2861 4703 
Q 3103 4656 3366 4563 
z
" id="DejaVuSans-36" transform="scale(0.015625)"/>
       </defs>
       <use xlink:href="#DejaVuSans-2212"/>
       <use x="83.789062" xlink:href="#DejaVuSans-30"/>
       <use x="147.412109" xlink:href="#DejaVuSans-2e"/>
       <use x="179.199219" xlink:href="#DejaVuSans-36"/>
      </g>
     </g>
    </g>
    <g id="ytick_2">
     <g id="line2d_9">
      <g>
       <use style="stroke:#000000;stroke-width:0.8;" x="144" xlink:href="#m7ee92563d9" y="301.896"/>
      </g>
     </g>
     <g id="text_10">
      <!-- −0.4 -->
      <g transform="translate(112.717187 305.695219)scale(0.1 -0.1)">
       <defs>
        <path d="M 2419 4116 
L 825 1625 
L 2419 1625 
L 2419 4116 
z
M 2253 4666 
L 3047 4666 
L 3047 1625 
L 3713 1625 
L 3713 1100 
L 3047 1100 
L 3047 0 
L 2419 0 
L 2419 1100 
L 313 1100 
L 313 1709 
L 2253 4666 
z
" id="DejaVuSans-34" transform="scale(0.015625)"/>
       </defs>
       <use xlink:href="#DejaVuSans-2212"/>
       <use x="83.789062" xlink:href="#DejaVuSans-30"/>
       <use x="147.412109" xlink:href="#DejaVuSans-2e"/>
       <use x="179.199219" xlink:href="#DejaVuSans-34"/>
      </g>
     </g>
    </g>
    <g id="ytick_3">
     <g id="line2d_10">
      <g>
       <use style="stroke:#000000;stroke-width:0.8;" x="144" xlink:href="#m7ee92563d9" y="258.408"/>
      </g>
     </g>
     <g id="text_11">
      <!-- −0.2 -->
      <g transform="translate(112.717187 262.207219)scale(0.1 -0.1)">
       <use xlink:href="#DejaVuSans-2212"/>
       <use x="83.789062" xlink:href="#DejaVuSans-30"/>
       <use x="147.412109" xlink:href="#DejaVuSans-2e"/>
       <use x="179.199219" xlink:href="#DejaVuSans-32"/>
      </g>
     </g>
    </g>
    <g id="ytick_4">
     <g id="line2d_11">
      <g>
       <use style="stroke:#000000;stroke-width:0.8;" x="144" xlink:href="#m7ee92563d9" y="214.92"/>
      </g>
     </g>
     <g id="text_12">
      <!-- 0.0 -->
      <g transform="translate(121.096875 218.719219)scale(0.1 -0.1)">
       <use xlink:href="#DejaVuSans-30"/>
       <use x="63.623047" xlink:href="#DejaVuSans-2e"/>
       <use x="95.410156" xlink:href="#DejaVuSans-30"/>
      </g>
     </g>
    </g>
    <g id="ytick_5">
     <g id="line2d_12">
      <g>
       <use style="stroke:#000000;stroke-width:0.8;" x="144" xlink:href="#m7ee92563d9" y="171.432"/>
      </g>
     </g>
     <g id="text_13">
      <!-- 0.2 -->
      <g transform="translate(121.096875 175.231219)scale(0.1 -0.1)">
       <use xlink:href="#DejaVuSans-30"/>
       <use x="63.623047" xlink:href="#DejaVuSans-2e"/>
       <use x="95.410156" xlink:href="#DejaVuSans-32"/>
      </g>
     </g>
    </g>
    <g id="ytick_6">
     <g id="line2d_13">
      <g>
       <use style="stroke:#000000;stroke-width:0.8;" x="144" xlink:href="#m7ee92563d9" y="127.944"/>
      </g>
     </g>
     <g id="text_14">
      <!-- 0.4 -->
      <g transform="translate(121.096875 131.743219)scale(0.1 -0.1)">
       <use xlink:href="#DejaVuSans-30"/>
       <use x="63.623047" xlink:href="#DejaVuSans-2e"/>
       <use x="95.410156" xlink:href="#DejaVuSans-34"/>
      </g>
     </g>
    </g>
    <g id="ytick_7">
     <g id="line2d_14">
      <g>
       <use style="stroke:#000000;stroke-width:0.8;" x="144" xlink:href="#m7ee92563d9" y="84.456"/>
      </g>
     </g>
     <g id="text_15">
      <!-- 0.6 -->
      <g transform="translate(121.096875 88.255219)scale(0.1 -0.1)">
       <use xlink:href="#DejaVuSans-30"/>
       <use x="63.623047" xlink:href="#DejaVuSans-2e"/>
       <use x="95.410156" xlink:href="#DejaVuSans-36"/>
      </g>
     </g>
    </g>
    <g id="text_16">
     <!-- $f(x, \mu)$ -->
     <g transform="translate(106.617188 229.32)rotate(-90)scale(0.1 -0.1)">
      <defs>
       <path d="M 3059 4863 
L 2969 4384 
L 2419 4384 
Q 2106 4384 1964 4261 
Q 1822 4138 1753 3809 
L 1691 3500 
L 2638 3500 
L 2553 3053 
L 1606 3053 
L 1013 0 
L 434 0 
L 1031 3053 
L 481 3053 
L 563 3500 
L 1113 3500 
L 1159 3744 
Q 1278 4363 1576 4613 
Q 1875 4863 2516 4863 
L 3059 4863 
z
" id="DejaVuSans-Oblique-66" transform="scale(0.015625)"/>
       <path d="M 1984 4856 
Q 1566 4138 1362 3434 
Q 1159 2731 1159 2009 
Q 1159 1288 1364 580 
Q 1569 -128 1984 -844 
L 1484 -844 
Q 1016 -109 783 600 
Q 550 1309 550 2009 
Q 550 2706 781 3412 
Q 1013 4119 1484 4856 
L 1984 4856 
z
" id="DejaVuSans-28" transform="scale(0.015625)"/>
       <path d="M 750 794 
L 1409 794 
L 1409 256 
L 897 -744 
L 494 -744 
L 750 256 
L 750 794 
z
" id="DejaVuSans-2c" transform="scale(0.015625)"/>
       <path d="M -84 -1331 
L 856 3500 
L 1434 3500 
L 1009 1322 
Q 997 1256 987 1175 
Q 978 1094 978 1013 
Q 978 722 1161 565 
Q 1344 409 1684 409 
Q 2147 409 2431 671 
Q 2716 934 2816 1459 
L 3213 3500 
L 3788 3500 
L 3266 809 
Q 3253 750 3248 706 
Q 3244 663 3244 628 
Q 3244 531 3283 486 
Q 3322 441 3406 441 
Q 3438 441 3492 456 
Q 3547 472 3647 513 
L 3559 50 
Q 3422 -19 3297 -55 
Q 3172 -91 3053 -91 
Q 2847 -91 2730 40 
Q 2613 172 2613 403 
Q 2438 153 2195 31 
Q 1953 -91 1625 -91 
Q 1334 -91 1117 43 
Q 900 178 831 397 
L 494 -1331 
L -84 -1331 
z
" id="DejaVuSans-Oblique-3bc" transform="scale(0.015625)"/>
       <path d="M 513 4856 
L 1013 4856 
Q 1481 4119 1714 3412 
Q 1947 2706 1947 2009 
Q 1947 1309 1714 600 
Q 1481 -109 1013 -844 
L 513 -844 
Q 928 -128 1133 580 
Q 1338 1288 1338 2009 
Q 1338 2731 1133 3434 
Q 928 4138 513 4856 
z
" id="DejaVuSans-29" transform="scale(0.015625)"/>
      </defs>
      <use transform="translate(0 0.015625)" xlink:href="#DejaVuSans-Oblique-66"/>
      <use transform="translate(35.205078 0.015625)" xlink:href="#DejaVuSans-28"/>
      <use transform="translate(74.21875 0.015625)" xlink:href="#DejaVuSans-Oblique-78"/>
      <use transform="translate(133.398438 0.015625)" xlink:href="#DejaVuSans-2c"/>
      <use transform="translate(184.667969 0.015625)" xlink:href="#DejaVuSans-Oblique-3bc"/>
      <use transform="translate(248.291016 0.015625)" xlink:href="#DejaVuSans-29"/>
     </g>
    </g>
   </g>
   <g id="line2d_15">
    <path clip-path="url(#p55206b9338)" d="M 144 418.77 
L 150.265263 401.722704 
L 156.530526 385.371216 
L 162.795789 369.715536 
L 169.061053 354.755664 
L 175.326316 340.4916 
L 181.591579 326.923344 
L 186.290526 317.203776 
L 190.989474 307.8756 
L 195.688421 298.938816 
L 200.387368 290.393424 
L 205.086316 282.239424 
L 209.785263 274.476816 
L 214.484211 267.1056 
L 219.183158 260.125776 
L 223.882105 253.537344 
L 228.581053 247.340304 
L 233.28 241.534656 
L 237.978947 236.1204 
L 242.677895 231.097536 
L 247.376842 226.466064 
L 252.075789 222.225984 
L 256.774737 218.377296 
L 261.473684 214.92 
L 266.172632 211.854096 
L 269.305263 210.0276 
L 272.437895 208.375056 
L 275.570526 206.896464 
L 278.703158 205.591824 
L 281.835789 204.461136 
L 284.968421 203.5044 
L 288.101053 202.721616 
L 291.233684 202.112784 
L 294.366316 201.677904 
L 297.498947 201.416976 
L 300.631579 201.33 
L 303.764211 201.416976 
L 306.896842 201.677904 
L 310.029474 202.112784 
L 313.162105 202.721616 
L 316.294737 203.5044 
L 319.427368 204.461136 
L 322.56 205.591824 
L 325.692632 206.896464 
L 328.825263 208.375056 
L 331.957895 210.0276 
L 335.090526 211.854096 
L 339.789474 214.92 
L 344.488421 218.377296 
L 349.187368 222.225984 
L 353.886316 226.466064 
L 358.585263 231.097536 
L 363.284211 236.1204 
L 367.983158 241.534656 
L 372.682105 247.340304 
L 377.381053 253.537344 
L 378.947368 255.69 
L 378.947368 255.69 
" style="fill:none;stroke:#000000;stroke-linecap:square;stroke-width:1.5;"/>
   </g>
   <g id="line2d_16">
    <path clip-path="url(#p55206b9338)" d="M 144 378 
L 378.947368 51.84 
L 378.947368 51.84 
" style="fill:none;stroke:#000000;stroke-linecap:square;stroke-width:1.5;"/>
   </g>
   <g id="patch_3">
    <path d="M 144 378 
L 144 51.84 
" style="fill:none;stroke:#000000;stroke-linecap:square;stroke-linejoin:miter;stroke-width:0.8;"/>
   </g>
   <g id="patch_4">
    <path d="M 378.947368 378 
L 378.947368 51.84 
" style="fill:none;stroke:#000000;stroke-linecap:square;stroke-linejoin:miter;stroke-width:0.8;"/>
   </g>
   <g id="patch_5">
    <path d="M 144 378 
L 378.947368 378 
" style="fill:none;stroke:#000000;stroke-linecap:square;stroke-linejoin:miter;stroke-width:0.8;"/>
   </g>
   <g id="patch_6">
    <path d="M 144 51.84 
L 378.947368 51.84 
" style="fill:none;stroke:#000000;stroke-linecap:square;stroke-linejoin:miter;stroke-width:0.8;"/>
   </g>
   <g id="text_17">
    <!-- $\mu = -0.5$ -->
    <g transform="translate(183.157895 84.456)scale(0.1 -0.1)">
     <defs>
      <path d="M 678 2906 
L 4684 2906 
L 4684 2381 
L 678 2381 
L 678 2906 
z
M 678 1631 
L 4684 1631 
L 4684 1100 
L 678 1100 
L 678 1631 
z
" id="DejaVuSans-3d" transform="scale(0.015625)"/>
     </defs>
     <use transform="translate(0 0.78125)" xlink:href="#DejaVuSans-Oblique-3bc"/>
     <use transform="translate(83.105469 0.78125)" xlink:href="#DejaVuSans-3d"/>
     <use transform="translate(205.859375 0.78125)" xlink:href="#DejaVuSans-2212"/>
     <use transform="translate(309.130859 0.78125)" xlink:href="#DejaVuSans-30"/>
     <use transform="translate(372.753906 0.78125)" xlink:href="#DejaVuSans-2e"/>
     <use transform="translate(404.541016 0.78125)" xlink:href="#DejaVuSans-35"/>
    </g>
   </g>
  </g>
  <g id="axes_2">
   <g id="patch_7">
    <path d="M 472.926316 378 
L 707.873684 378 
L 707.873684 51.84 
L 472.926316 51.84 
z
" style="fill:#ffffff;"/>
   </g>
   <g id="PathCollection_4">
    <g clip-path="url(#p649b992d24)">
     <use style="stroke:#000000;" x="668.715789" xlink:href="#m5fb66d90fc" y="106.2"/>
     <use style="stroke:#000000;" x="629.557895" xlink:href="#m5fb66d90fc" y="160.56"/>
     <use style="stroke:#000000;" x="619.768421" xlink:href="#m5fb66d90fc" y="174.15"/>
     <use style="stroke:#000000;" x="614.261842" xlink:href="#m5fb66d90fc" y="181.794375"/>
     <use style="stroke:#000000;" x="610.62664" xlink:href="#m5fb66d90fc" y="186.840857"/>
     <use style="stroke:#000000;" x="608.01467" xlink:href="#m5fb66d90fc" y="190.466861"/>
     <use style="stroke:#000000;" x="606.033737" xlink:href="#m5fb66d90fc" y="193.216842"/>
     <use style="stroke:#000000;" x="604.4733" xlink:href="#m5fb66d90fc" y="195.383082"/>
    </g>
   </g>
   <g id="Quiver_43">
    <path clip-path="url(#p649b992d24)" d="M 669.596842 106.2 
L 669.596842 152.630526 
L 671.358947 151.749474 
L 668.715789 160.56 
L 666.072632 151.749474 
L 667.834737 152.630526 
L 667.834737 106.2 
L 669.596842 106.2 
"/>
   </g>
   <g id="Quiver_44">
    <path clip-path="url(#p649b992d24)" d="M 668.715789 161.441053 
L 637.487368 161.441053 
L 638.368421 163.203158 
L 629.557895 160.56 
L 638.368421 157.916842 
L 637.487368 159.678947 
L 668.715789 159.678947 
L 668.715789 161.441053 
"/>
   </g>
   <g id="Quiver_45">
    <path clip-path="url(#p649b992d24)" d="M 630.438947 160.56 
L 630.438947 166.220526 
L 632.201053 165.339474 
L 629.557895 174.15 
L 626.914737 165.339474 
L 628.676842 166.220526 
L 628.676842 160.56 
L 630.438947 160.56 
"/>
   </g>
   <g id="Quiver_46">
    <path clip-path="url(#p649b992d24)" d="M 629.557895 175.031053 
L 627.697895 175.031053 
L 628.578947 176.793158 
L 619.768421 174.15 
L 628.578947 171.506842 
L 627.697895 173.268947 
L 629.557895 173.268947 
L 629.557895 175.031053 
"/>
   </g>
   <g id="Quiver_47">
    <path clip-path="url(#p649b992d24)" d="M 620.532859 174.15 
L 620.532859 174.914437 
L 622.061734 174.15 
L 619.768421 181.794375 
L 617.475109 174.15 
L 619.003984 174.914437 
L 619.003984 174.15 
L 620.532859 174.15 
"/>
   </g>
   <g id="Quiver_48">
    <path clip-path="url(#p649b992d24)" d="M 619.768421 182.345033 
L 619.217763 182.345033 
L 619.768421 183.446349 
L 614.261842 181.794375 
L 619.768421 180.142401 
L 619.217763 181.243717 
L 619.768421 181.243717 
L 619.768421 182.345033 
"/>
   </g>
   <g id="Quiver_49">
    <path clip-path="url(#p649b992d24)" d="M 614.76649 181.794375 
L 614.76649 182.299023 
L 615.775787 181.794375 
L 614.261842 186.840857 
L 612.747898 181.794375 
L 613.757194 182.299023 
L 613.757194 181.794375 
L 614.76649 181.794375 
"/>
   </g>
   <g id="Quiver_50">
    <path clip-path="url(#p649b992d24)" d="M 614.261842 187.204377 
L 613.898322 187.204377 
L 614.261842 187.931418 
L 610.62664 186.840857 
L 614.261842 185.750296 
L 613.898322 186.477337 
L 614.261842 186.477337 
L 614.261842 187.204377 
"/>
   </g>
   <g id="Quiver_51">
    <path clip-path="url(#p649b992d24)" d="M 610.98924 186.840857 
L 610.98924 187.203457 
L 611.714441 186.840857 
L 610.62664 190.466861 
L 609.538838 186.840857 
L 610.264039 187.203457 
L 610.264039 186.840857 
L 610.98924 186.840857 
"/>
   </g>
   <g id="Quiver_52">
    <path clip-path="url(#p649b992d24)" d="M 610.62664 190.728058 
L 610.365443 190.728058 
L 610.62664 191.250452 
L 608.01467 190.466861 
L 610.62664 189.68327 
L 610.365443 190.205664 
L 610.62664 190.205664 
L 610.62664 190.728058 
"/>
   </g>
   <g id="Quiver_53">
    <path clip-path="url(#p649b992d24)" d="M 608.289668 190.466861 
L 608.289668 190.741859 
L 608.839664 190.466861 
L 608.01467 193.216842 
L 607.189675 190.466861 
L 607.739672 190.741859 
L 607.739672 190.466861 
L 608.289668 190.466861 
"/>
   </g>
   <g id="Quiver_54">
    <path clip-path="url(#p649b992d24)" d="M 608.01467 193.414936 
L 607.816577 193.414936 
L 608.01467 193.811122 
L 606.033737 193.216842 
L 608.01467 192.622563 
L 607.816577 193.018749 
L 608.01467 193.018749 
L 608.01467 193.414936 
"/>
   </g>
   <g id="Quiver_55">
    <path clip-path="url(#p649b992d24)" d="M 606.250361 193.216842 
L 606.250361 193.433466 
L 606.683609 193.216842 
L 606.033737 195.383082 
L 605.383866 193.216842 
L 605.817113 193.433466 
L 605.817113 193.216842 
L 606.250361 193.216842 
"/>
   </g>
   <g id="Quiver_56">
    <path clip-path="url(#p649b992d24)" d="M 605.152685 195.383082 
L 605.593211 196.146096 
L 606.474264 196.146096 
L 606.91479 195.383082 
L 606.474264 194.620068 
L 605.593211 194.620068 
L 605.152685 195.383082 
L 605.593211 196.146096 
"/>
   </g>
   <g id="PathCollection_5">
    <g clip-path="url(#p649b992d24)">
     <use style="stroke:#000000;" x="551.242105" xlink:href="#m5fb66d90fc" y="269.28"/>
     <use style="stroke:#000000;" x="541.452632" xlink:href="#m5fb66d90fc" y="282.87"/>
     <use style="stroke:#000000;" x="526.156579" xlink:href="#m5fb66d90fc" y="304.104375"/>
     <use style="stroke:#000000;" x="499.806738" xlink:href="#m5fb66d90fc" y="340.683904"/>
     <use style="stroke:#000000;" x="447.409009" xlink:href="#m5fb66d90fc" y="413.423784"/>
     <use style="stroke:#000000;" x="316.870687" xlink:href="#m5fb66d90fc" y="594.640451"/>
     <use style="stroke:#000000;" x="-1" xlink:href="#m5fb66d90fc" y="1035.916742"/>
    </g>
   </g>
   <g id="Quiver_57">
    <path clip-path="url(#p649b992d24)" d="M 552.123158 269.28 
L 552.123158 274.940526 
L 553.885263 274.059474 
L 551.242105 282.87 
L 548.598947 274.059474 
L 550.361053 274.940526 
L 550.361053 269.28 
L 552.123158 269.28 
"/>
   </g>
   <g id="Quiver_58">
    <path clip-path="url(#p649b992d24)" d="M 551.242105 283.751053 
L 549.382105 283.751053 
L 550.263158 285.513158 
L 541.452632 282.87 
L 550.263158 280.226842 
L 549.382105 281.988947 
L 551.242105 281.988947 
L 551.242105 283.751053 
"/>
   </g>
   <g id="Quiver_59">
    <path clip-path="url(#p649b992d24)" d="M 542.333684 282.87 
L 542.333684 296.174901 
L 544.095789 295.293849 
L 541.452632 304.104375 
L 538.809474 295.293849 
L 540.571579 296.174901 
L 540.571579 282.87 
L 542.333684 282.87 
"/>
   </g>
   <g id="Quiver_60">
    <path clip-path="url(#p649b992d24)" d="M 541.452632 304.985428 
L 534.086053 304.985428 
L 534.967105 306.747533 
L 526.156579 304.104375 
L 534.967105 301.461217 
L 534.086053 303.223322 
L 541.452632 303.223322 
L 541.452632 304.985428 
"/>
   </g>
   <g id="Quiver_61">
    <path clip-path="url(#p649b992d24)" d="M 527.037632 304.104375 
L 527.037632 332.75443 
L 528.799737 331.873377 
L 526.156579 340.683904 
L 523.513421 331.873377 
L 525.275526 332.75443 
L 525.275526 304.104375 
L 527.037632 304.104375 
"/>
   </g>
   <g id="Quiver_62">
    <path clip-path="url(#p649b992d24)" d="M 526.156579 341.564956 
L 507.736212 341.564956 
L 508.617265 343.327062 
L 499.806738 340.683904 
L 508.617265 338.040746 
L 507.736212 339.802851 
L 526.156579 339.802851 
L 526.156579 341.564956 
"/>
   </g>
   <g id="Quiver_63">
    <path clip-path="url(#p649b992d24)" d="M 500.687791 340.683904 
L 500.687791 405.49431 
L 502.449896 404.613257 
L 499.806738 413.423784 
L 497.16358 404.613257 
L 498.925686 405.49431 
L 498.925686 340.683904 
L 500.687791 340.683904 
"/>
   </g>
   <g id="Quiver_64">
    <path clip-path="url(#p649b992d24)" d="M 499.806738 414.304836 
L 455.338483 414.304836 
L 456.219535 416.066942 
L 447.409009 413.423784 
L 456.219535 410.780626 
L 455.338483 412.542731 
L 499.806738 412.542731 
L 499.806738 414.304836 
"/>
   </g>
   <g id="Quiver_65">
    <path clip-path="url(#p649b992d24)" d="M 448.290062 413.423784 
L 448.290062 586.710978 
L 450.052167 585.829925 
L 447.409009 594.640451 
L 444.765851 585.829925 
L 446.527956 586.710978 
L 446.527956 413.423784 
L 448.290062 413.423784 
"/>
   </g>
   <g id="Quiver_66">
    <path clip-path="url(#p649b992d24)" d="M 447.409009 595.521504 
L 324.800161 595.521504 
L 325.681213 597.283609 
L 316.870687 594.640451 
L 325.681213 591.997293 
L 324.800161 593.759399 
L 447.409009 593.759399 
L 447.409009 595.521504 
"/>
   </g>
   <g id="Quiver_67">
    <path clip-path="url(#p649b992d24)" d="M 317.75174 594.640451 
L 317.75174 1249.825497 
L 319.513845 1248.944444 
L 316.870687 1257.754971 
L 314.227529 1248.944444 
L 315.989634 1249.825497 
L 315.989634 594.640451 
L 317.75174 594.640451 
"/>
   </g>
   <g id="Quiver_68">
    <path clip-path="url(#p649b992d24)" d="M 316.870687 1258.636023 
L -152.870343 1258.636023 
L -151.98929 1260.398129 
L -160.799816 1257.754971 
L -151.98929 1255.111813 
L -152.870343 1256.873918 
L 316.870687 1256.873918 
L 316.870687 1258.636023 
"/>
   </g>
   <g id="Quiver_69">
    <path clip-path="url(#p649b992d24)" d="M -159.918764 1257.754971 
L -159.918764 6251.227153 
L -158.156658 6250.3461 
L -160.799816 6259.156626 
L -163.442974 6250.3461 
L -161.680869 6251.227153 
L -161.680869 1257.754971 
L -159.918764 1257.754971 
"/>
   </g>
   <g id="Quiver_70">
    <path clip-path="url(#p649b992d24)" d="M -160.799816 6260.037679 
L -3755.599547 6260.037679 
L -3754.718495 6261.799784 
L -3763.529021 6259.156626 
L -3754.718495 6256.513469 
L -3755.599547 6258.275574 
L -160.799816 6258.275574 
L -160.799816 6260.037679 
"/>
   </g>
   <g id="matplotlib.axis_3">
    <g id="xtick_8">
     <g id="line2d_17">
      <g>
       <use style="stroke:#000000;stroke-width:0.8;" x="472.926316" xlink:href="#m448000eef7" y="378"/>
      </g>
     </g>
     <g id="text_18">
      <!-- −0.75 -->
      <g transform="translate(457.60366 392.598437)scale(0.1 -0.1)">
       <use xlink:href="#DejaVuSans-2212"/>
       <use x="83.789062" xlink:href="#DejaVuSans-30"/>
       <use x="147.412109" xlink:href="#DejaVuSans-2e"/>
       <use x="179.199219" xlink:href="#DejaVuSans-37"/>
       <use x="242.822266" xlink:href="#DejaVuSans-35"/>
      </g>
     </g>
    </g>
    <g id="xtick_9">
     <g id="line2d_18">
      <g>
       <use style="stroke:#000000;stroke-width:0.8;" x="512.084211" xlink:href="#m448000eef7" y="378"/>
      </g>
     </g>
     <g id="text_19">
      <!-- −0.50 -->
      <g transform="translate(496.761554 392.598437)scale(0.1 -0.1)">
       <use xlink:href="#DejaVuSans-2212"/>
       <use x="83.789062" xlink:href="#DejaVuSans-30"/>
       <use x="147.412109" xlink:href="#DejaVuSans-2e"/>
       <use x="179.199219" xlink:href="#DejaVuSans-35"/>
       <use x="242.822266" xlink:href="#DejaVuSans-30"/>
      </g>
     </g>
    </g>
    <g id="xtick_10">
     <g id="line2d_19">
      <g>
       <use style="stroke:#000000;stroke-width:0.8;" x="551.242105" xlink:href="#m448000eef7" y="378"/>
      </g>
     </g>
     <g id="text_20">
      <!-- −0.25 -->
      <g transform="translate(535.919449 392.598437)scale(0.1 -0.1)">
       <use xlink:href="#DejaVuSans-2212"/>
       <use x="83.789062" xlink:href="#DejaVuSans-30"/>
       <use x="147.412109" xlink:href="#DejaVuSans-2e"/>
       <use x="179.199219" xlink:href="#DejaVuSans-32"/>
       <use x="242.822266" xlink:href="#DejaVuSans-35"/>
      </g>
     </g>
    </g>
    <g id="xtick_11">
     <g id="line2d_20">
      <g>
       <use style="stroke:#000000;stroke-width:0.8;" x="590.4" xlink:href="#m448000eef7" y="378"/>
      </g>
     </g>
     <g id="text_21">
      <!-- 0.00 -->
      <g transform="translate(579.267188 392.598437)scale(0.1 -0.1)">
       <use xlink:href="#DejaVuSans-30"/>
       <use x="63.623047" xlink:href="#DejaVuSans-2e"/>
       <use x="95.410156" xlink:href="#DejaVuSans-30"/>
       <use x="159.033203" xlink:href="#DejaVuSans-30"/>
      </g>
     </g>
    </g>
    <g id="xtick_12">
     <g id="line2d_21">
      <g>
       <use style="stroke:#000000;stroke-width:0.8;" x="629.557895" xlink:href="#m448000eef7" y="378"/>
      </g>
     </g>
     <g id="text_22">
      <!-- 0.25 -->
      <g transform="translate(618.425082 392.598437)scale(0.1 -0.1)">
       <use xlink:href="#DejaVuSans-30"/>
       <use x="63.623047" xlink:href="#DejaVuSans-2e"/>
       <use x="95.410156" xlink:href="#DejaVuSans-32"/>
       <use x="159.033203" xlink:href="#DejaVuSans-35"/>
      </g>
     </g>
    </g>
    <g id="xtick_13">
     <g id="line2d_22">
      <g>
       <use style="stroke:#000000;stroke-width:0.8;" x="668.715789" xlink:href="#m448000eef7" y="378"/>
      </g>
     </g>
     <g id="text_23">
      <!-- 0.50 -->
      <g transform="translate(657.582977 392.598437)scale(0.1 -0.1)">
       <use xlink:href="#DejaVuSans-30"/>
       <use x="63.623047" xlink:href="#DejaVuSans-2e"/>
       <use x="95.410156" xlink:href="#DejaVuSans-35"/>
       <use x="159.033203" xlink:href="#DejaVuSans-30"/>
      </g>
     </g>
    </g>
    <g id="xtick_14">
     <g id="line2d_23">
      <g>
       <use style="stroke:#000000;stroke-width:0.8;" x="707.873684" xlink:href="#m448000eef7" y="378"/>
      </g>
     </g>
     <g id="text_24">
      <!-- 0.75 -->
      <g transform="translate(696.740872 392.598437)scale(0.1 -0.1)">
       <use xlink:href="#DejaVuSans-30"/>
       <use x="63.623047" xlink:href="#DejaVuSans-2e"/>
       <use x="95.410156" xlink:href="#DejaVuSans-37"/>
       <use x="159.033203" xlink:href="#DejaVuSans-35"/>
      </g>
     </g>
    </g>
    <g id="text_25">
     <!-- $x$ -->
     <g transform="translate(587.4 406.276563)scale(0.1 -0.1)">
      <use transform="translate(0 0.3125)" xlink:href="#DejaVuSans-Oblique-78"/>
     </g>
    </g>
   </g>
   <g id="matplotlib.axis_4">
    <g id="ytick_8">
     <g id="line2d_24">
      <g>
       <use style="stroke:#000000;stroke-width:0.8;" x="472.926316" xlink:href="#m7ee92563d9" y="345.384"/>
      </g>
     </g>
     <g id="text_26">
      <!-- −0.6 -->
      <g transform="translate(441.643503 349.183219)scale(0.1 -0.1)">
       <use xlink:href="#DejaVuSans-2212"/>
       <use x="83.789062" xlink:href="#DejaVuSans-30"/>
       <use x="147.412109" xlink:href="#DejaVuSans-2e"/>
       <use x="179.199219" xlink:href="#DejaVuSans-36"/>
      </g>
     </g>
    </g>
    <g id="ytick_9">
     <g id="line2d_25">
      <g>
       <use style="stroke:#000000;stroke-width:0.8;" x="472.926316" xlink:href="#m7ee92563d9" y="301.896"/>
      </g>
     </g>
     <g id="text_27">
      <!-- −0.4 -->
      <g transform="translate(441.643503 305.695219)scale(0.1 -0.1)">
       <use xlink:href="#DejaVuSans-2212"/>
       <use x="83.789062" xlink:href="#DejaVuSans-30"/>
       <use x="147.412109" xlink:href="#DejaVuSans-2e"/>
       <use x="179.199219" xlink:href="#DejaVuSans-34"/>
      </g>
     </g>
    </g>
    <g id="ytick_10">
     <g id="line2d_26">
      <g>
       <use style="stroke:#000000;stroke-width:0.8;" x="472.926316" xlink:href="#m7ee92563d9" y="258.408"/>
      </g>
     </g>
     <g id="text_28">
      <!-- −0.2 -->
      <g transform="translate(441.643503 262.207219)scale(0.1 -0.1)">
       <use xlink:href="#DejaVuSans-2212"/>
       <use x="83.789062" xlink:href="#DejaVuSans-30"/>
       <use x="147.412109" xlink:href="#DejaVuSans-2e"/>
       <use x="179.199219" xlink:href="#DejaVuSans-32"/>
      </g>
     </g>
    </g>
    <g id="ytick_11">
     <g id="line2d_27">
      <g>
       <use style="stroke:#000000;stroke-width:0.8;" x="472.926316" xlink:href="#m7ee92563d9" y="214.92"/>
      </g>
     </g>
     <g id="text_29">
      <!-- 0.0 -->
      <g transform="translate(450.023191 218.719219)scale(0.1 -0.1)">
       <use xlink:href="#DejaVuSans-30"/>
       <use x="63.623047" xlink:href="#DejaVuSans-2e"/>
       <use x="95.410156" xlink:href="#DejaVuSans-30"/>
      </g>
     </g>
    </g>
    <g id="ytick_12">
     <g id="line2d_28">
      <g>
       <use style="stroke:#000000;stroke-width:0.8;" x="472.926316" xlink:href="#m7ee92563d9" y="171.432"/>
      </g>
     </g>
     <g id="text_30">
      <!-- 0.2 -->
      <g transform="translate(450.023191 175.231219)scale(0.1 -0.1)">
       <use xlink:href="#DejaVuSans-30"/>
       <use x="63.623047" xlink:href="#DejaVuSans-2e"/>
       <use x="95.410156" xlink:href="#DejaVuSans-32"/>
      </g>
     </g>
    </g>
    <g id="ytick_13">
     <g id="line2d_29">
      <g>
       <use style="stroke:#000000;stroke-width:0.8;" x="472.926316" xlink:href="#m7ee92563d9" y="127.944"/>
      </g>
     </g>
     <g id="text_31">
      <!-- 0.4 -->
      <g transform="translate(450.023191 131.743219)scale(0.1 -0.1)">
       <use xlink:href="#DejaVuSans-30"/>
       <use x="63.623047" xlink:href="#DejaVuSans-2e"/>
       <use x="95.410156" xlink:href="#DejaVuSans-34"/>
      </g>
     </g>
    </g>
    <g id="ytick_14">
     <g id="line2d_30">
      <g>
       <use style="stroke:#000000;stroke-width:0.8;" x="472.926316" xlink:href="#m7ee92563d9" y="84.456"/>
      </g>
     </g>
     <g id="text_32">
      <!-- 0.6 -->
      <g transform="translate(450.023191 88.255219)scale(0.1 -0.1)">
       <use xlink:href="#DejaVuSans-30"/>
       <use x="63.623047" xlink:href="#DejaVuSans-2e"/>
       <use x="95.410156" xlink:href="#DejaVuSans-36"/>
      </g>
     </g>
    </g>
    <g id="text_33">
     <!-- $f(x, \mu)$ -->
     <g transform="translate(435.543503 229.32)rotate(-90)scale(0.1 -0.1)">
      <use transform="translate(0 0.015625)" xlink:href="#DejaVuSans-Oblique-66"/>
      <use transform="translate(35.205078 0.015625)" xlink:href="#DejaVuSans-28"/>
      <use transform="translate(74.21875 0.015625)" xlink:href="#DejaVuSans-Oblique-78"/>
      <use transform="translate(133.398438 0.015625)" xlink:href="#DejaVuSans-2c"/>
      <use transform="translate(184.667969 0.015625)" xlink:href="#DejaVuSans-Oblique-3bc"/>
      <use transform="translate(248.291016 0.015625)" xlink:href="#DejaVuSans-29"/>
     </g>
    </g>
   </g>
   <g id="line2d_31">
    <path clip-path="url(#p649b992d24)" d="M 493.390734 433 
L 499.553684 414.182016 
L 505.818947 395.743104 
L 512.084211 378 
L 518.349474 360.952704 
L 524.614737 344.601216 
L 530.88 328.945536 
L 537.145263 313.985664 
L 543.410526 299.7216 
L 549.675789 286.153344 
L 554.374737 276.433776 
L 559.073684 267.1056 
L 563.772632 258.168816 
L 568.471579 249.623424 
L 573.170526 241.469424 
L 577.869474 233.706816 
L 582.568421 226.3356 
L 587.267368 219.355776 
L 591.966316 212.767344 
L 596.665263 206.570304 
L 601.364211 200.764656 
L 606.063158 195.3504 
L 610.762105 190.327536 
L 615.461053 185.696064 
L 620.16 181.455984 
L 624.858947 177.607296 
L 629.557895 174.15 
L 634.256842 171.084096 
L 637.389474 169.2576 
L 640.522105 167.605056 
L 643.654737 166.126464 
L 646.787368 164.821824 
L 649.92 163.691136 
L 653.052632 162.7344 
L 656.185263 161.951616 
L 659.317895 161.342784 
L 662.450526 160.907904 
L 665.583158 160.646976 
L 668.715789 160.56 
L 671.848421 160.646976 
L 674.981053 160.907904 
L 678.113684 161.342784 
L 681.246316 161.951616 
L 684.378947 162.7344 
L 687.511579 163.691136 
L 690.644211 164.821824 
L 693.776842 166.126464 
L 696.909474 167.605056 
L 700.042105 169.2576 
L 703.174737 171.084096 
L 707.873684 174.15 
L 707.873684 174.15 
" style="fill:none;stroke:#000000;stroke-linecap:square;stroke-width:1.5;"/>
   </g>
   <g id="line2d_32">
    <path clip-path="url(#p649b992d24)" d="M 472.926316 378 
L 707.873684 51.84 
L 707.873684 51.84 
" style="fill:none;stroke:#000000;stroke-linecap:square;stroke-width:1.5;"/>
   </g>
   <g id="patch_8">
    <path d="M 472.926316 378 
L 472.926316 51.84 
" style="fill:none;stroke:#000000;stroke-linecap:square;stroke-linejoin:miter;stroke-width:0.8;"/>
   </g>
   <g id="patch_9">
    <path d="M 707.873684 378 
L 707.873684 51.84 
" style="fill:none;stroke:#000000;stroke-linecap:square;stroke-linejoin:miter;stroke-width:0.8;"/>
   </g>
   <g id="patch_10">
    <path d="M 472.926316 378 
L 707.873684 378 
" style="fill:none;stroke:#000000;stroke-linecap:square;stroke-linejoin:miter;stroke-width:0.8;"/>
   </g>
   <g id="patch_11">
    <path d="M 472.926316 51.84 
L 707.873684 51.84 
" style="fill:none;stroke:#000000;stroke-linecap:square;stroke-linejoin:miter;stroke-width:0.8;"/>
   </g>
   <g id="text_34">
    <!-- $\mu = 0.0$ -->
    <g transform="translate(512.084211 84.456)scale(0.1 -0.1)">
     <use transform="translate(0 0.78125)" xlink:href="#DejaVuSans-Oblique-3bc"/>
     <use transform="translate(83.105469 0.78125)" xlink:href="#DejaVuSans-3d"/>
     <use transform="translate(186.376953 0.78125)" xlink:href="#DejaVuSans-30"/>
     <use transform="translate(250 0.78125)" xlink:href="#DejaVuSans-2e"/>
     <use transform="translate(281.787109 0.78125)" xlink:href="#DejaVuSans-30"/>
    </g>
   </g>
  </g>
  <g id="axes_3">
   <g id="patch_12">
    <path d="M 801.852632 378 
L 1036.8 378 
L 1036.8 51.84 
L 801.852632 51.84 
z
" style="fill:#ffffff;"/>
   </g>
   <g id="PathCollection_6">
    <g clip-path="url(#p8d3a23ecce)">
     <use style="stroke:#000000;" x="1028.968421" xlink:href="#m5fb66d90fc" y="62.712"/>
     <use style="stroke:#000000;" x="1007.04" xlink:href="#m5fb66d90fc" y="93.1536"/>
     <use style="stroke:#000000;" x="1001.777179" xlink:href="#m5fb66d90fc" y="100.459584"/>
     <use style="stroke:#000000;" x="999.600476" xlink:href="#m5fb66d90fc" y="103.481339"/>
     <use style="stroke:#000000;" x="998.596805" xlink:href="#m5fb66d90fc" y="104.874661"/>
     <use style="stroke:#000000;" x="998.113636" xlink:href="#m5fb66d90fc" y="105.545409"/>
     <use style="stroke:#000000;" x="997.876451" xlink:href="#m5fb66d90fc" y="105.874675"/>
     <use style="stroke:#000000;" x="997.758928" xlink:href="#m5fb66d90fc" y="106.037824"/>
    </g>
   </g>
   <g id="Quiver_71">
    <path clip-path="url(#p8d3a23ecce)" d="M 1029.849474 62.712 
L 1029.849474 85.224126 
L 1031.611579 84.343074 
L 1028.968421 93.1536 
L 1026.325263 84.343074 
L 1028.087368 85.224126 
L 1028.087368 62.712 
L 1029.849474 62.712 
"/>
   </g>
   <g id="Quiver_72">
    <path clip-path="url(#p8d3a23ecce)" d="M 1028.968421 94.034653 
L 1014.969474 94.034653 
L 1015.850526 95.796758 
L 1007.04 93.1536 
L 1015.850526 90.510442 
L 1014.969474 92.272547 
L 1028.968421 92.272547 
L 1028.968421 94.034653 
"/>
   </g>
   <g id="Quiver_73">
    <path clip-path="url(#p8d3a23ecce)" d="M 1007.770598 93.1536 
L 1007.770598 93.884198 
L 1009.231795 93.1536 
L 1007.04 100.459584 
L 1004.848205 93.1536 
L 1006.309402 93.884198 
L 1006.309402 93.1536 
L 1007.770598 93.1536 
"/>
   </g>
   <g id="Quiver_74">
    <path clip-path="url(#p8d3a23ecce)" d="M 1007.04 100.985866 
L 1006.513718 100.985866 
L 1007.04 102.03843 
L 1001.777179 100.459584 
L 1007.04 98.880738 
L 1006.513718 99.933302 
L 1007.04 99.933302 
L 1007.04 100.985866 
"/>
   </g>
   <g id="Quiver_75">
    <path clip-path="url(#p8d3a23ecce)" d="M 1002.079354 100.459584 
L 1002.079354 100.761759 
L 1002.683705 100.459584 
L 1001.777179 103.481339 
L 1000.870652 100.459584 
L 1001.475003 100.761759 
L 1001.475003 100.459584 
L 1002.079354 100.459584 
"/>
   </g>
   <g id="Quiver_76">
    <path clip-path="url(#p8d3a23ecce)" d="M 1001.777179 103.699009 
L 1001.559509 103.699009 
L 1001.777179 104.13435 
L 999.600476 103.481339 
L 1001.777179 102.828328 
L 1001.559509 103.263669 
L 1001.777179 103.263669 
L 1001.777179 103.699009 
"/>
   </g>
   <g id="Quiver_77">
    <path clip-path="url(#p8d3a23ecce)" d="M 999.600476 104.362392 
L 1000.36349 103.921865 
L 1000.36349 103.040813 
L 999.600476 102.600286 
L 998.837462 103.040813 
L 998.837462 103.921865 
L 999.600476 104.362392 
L 1000.36349 103.921865 
"/>
   </g>
   <g id="Quiver_78">
    <path clip-path="url(#p8d3a23ecce)" d="M 998.719424 104.874661 
L 999.15995 105.637675 
L 1000.041002 105.637675 
L 1000.481529 104.874661 
L 1000.041002 104.111647 
L 999.15995 104.111647 
L 998.719424 104.874661 
L 999.15995 105.637675 
"/>
   </g>
   <g id="Quiver_79">
    <path clip-path="url(#p8d3a23ecce)" d="M 998.596805 105.755714 
L 999.359819 105.315187 
L 999.359819 104.434135 
L 998.596805 103.993608 
L 997.833791 104.434135 
L 997.833791 105.315187 
L 998.596805 105.755714 
L 999.359819 105.315187 
"/>
   </g>
   <g id="Quiver_80">
    <path clip-path="url(#p8d3a23ecce)" d="M 997.715752 105.545409 
L 998.156279 106.308423 
L 999.037331 106.308423 
L 999.477858 105.545409 
L 999.037331 104.782395 
L 998.156279 104.782395 
L 997.715752 105.545409 
L 998.156279 106.308423 
"/>
   </g>
   <g id="Quiver_81">
    <path clip-path="url(#p8d3a23ecce)" d="M 998.113636 106.426461 
L 998.87665 105.985935 
L 998.87665 105.104882 
L 998.113636 104.664356 
L 997.350622 105.104882 
L 997.350622 105.985935 
L 998.113636 106.426461 
L 998.87665 105.985935 
"/>
   </g>
   <g id="Quiver_82">
    <path clip-path="url(#p8d3a23ecce)" d="M 997.232583 105.874675 
L 997.67311 106.637689 
L 998.554162 106.637689 
L 998.994689 105.874675 
L 998.554162 105.111661 
L 997.67311 105.111661 
L 997.232583 105.874675 
L 997.67311 106.637689 
"/>
   </g>
   <g id="Quiver_83">
    <path clip-path="url(#p8d3a23ecce)" d="M 997.876451 106.755728 
L 998.639465 106.315201 
L 998.639465 105.434149 
L 997.876451 104.993622 
L 997.113437 105.434149 
L 997.113437 106.315201 
L 997.876451 106.755728 
L 998.639465 106.315201 
"/>
   </g>
   <g id="Quiver_84">
    <path clip-path="url(#p8d3a23ecce)" d="M 996.995399 106.037824 
L 997.435925 106.800838 
L 998.316977 106.800838 
L 998.757504 106.037824 
L 998.316977 105.27481 
L 997.435925 105.27481 
L 996.995399 106.037824 
L 997.435925 106.800838 
"/>
   </g>
   <g id="PathCollection_7">
    <g clip-path="url(#p8d3a23ecce)">
     <use style="stroke:#000000;" x="958.484211" xlink:href="#m5fb66d90fc" y="160.56"/>
     <use style="stroke:#000000;" x="968.273684" xlink:href="#m5fb66d90fc" y="146.97"/>
     <use style="stroke:#000000;" x="977.451316" xlink:href="#m5fb66d90fc" y="134.229375"/>
     <use style="stroke:#000000;" x="984.943992" xlink:href="#m5fb66d90fc" y="123.827849"/>
     <use style="stroke:#000000;" x="990.263613" xlink:href="#m5fb66d90fc" y="116.443013"/>
     <use style="stroke:#000000;" x="993.605278" xlink:href="#m5fb66d90fc" y="111.804027"/>
     <use style="stroke:#000000;" x="995.519652" xlink:href="#m5fb66d90fc" y="109.146445"/>
     <use style="stroke:#000000;" x="996.552118" xlink:href="#m5fb66d90fc" y="107.713149"/>
    </g>
   </g>
   <g id="Quiver_85">
    <path clip-path="url(#p8d3a23ecce)" d="M 957.603158 160.56 
L 957.603158 154.899474 
L 955.841053 155.780526 
L 958.484211 146.97 
L 961.127368 155.780526 
L 959.365263 154.899474 
L 959.365263 160.56 
L 957.603158 160.56 
"/>
   </g>
   <g id="Quiver_86">
    <path clip-path="url(#p8d3a23ecce)" d="M 958.484211 146.088947 
L 960.344211 146.088947 
L 959.463158 144.326842 
L 968.273684 146.97 
L 959.463158 149.613158 
L 960.344211 147.851053 
L 958.484211 147.851053 
L 958.484211 146.088947 
"/>
   </g>
   <g id="Quiver_87">
    <path clip-path="url(#p8d3a23ecce)" d="M 967.392632 146.97 
L 967.392632 142.158849 
L 965.630526 143.039901 
L 968.273684 134.229375 
L 970.916842 143.039901 
L 969.154737 142.158849 
L 969.154737 146.97 
L 967.392632 146.97 
"/>
   </g>
   <g id="Quiver_88">
    <path clip-path="url(#p8d3a23ecce)" d="M 968.273684 133.348322 
L 969.521842 133.348322 
L 968.640789 131.586217 
L 977.451316 134.229375 
L 968.640789 136.872533 
L 969.521842 135.110428 
L 968.273684 135.110428 
L 968.273684 133.348322 
"/>
   </g>
   <g id="Quiver_89">
    <path clip-path="url(#p8d3a23ecce)" d="M 976.570263 134.229375 
L 976.570263 131.757323 
L 974.808158 132.638375 
L 977.451316 123.827849 
L 980.094474 132.638375 
L 978.332368 131.757323 
L 978.332368 134.229375 
L 976.570263 134.229375 
"/>
   </g>
   <g id="Quiver_90">
    <path clip-path="url(#p8d3a23ecce)" d="M 977.451316 123.078582 
L 978.200583 123.078582 
L 977.451316 121.580046 
L 984.943992 123.827849 
L 977.451316 126.075652 
L 978.200583 124.577117 
L 977.451316 124.577117 
L 977.451316 123.078582 
"/>
   </g>
   <g id="Quiver_91">
    <path clip-path="url(#p8d3a23ecce)" d="M 984.205508 123.827849 
L 984.205508 123.089366 
L 982.728541 123.827849 
L 984.943992 116.443013 
L 987.159442 123.827849 
L 985.682475 123.089366 
L 985.682475 123.827849 
L 984.205508 123.827849 
"/>
   </g>
   <g id="Quiver_92">
    <path clip-path="url(#p8d3a23ecce)" d="M 984.943992 115.911051 
L 985.475954 115.911051 
L 984.943992 114.847127 
L 990.263613 116.443013 
L 984.943992 118.0389 
L 985.475954 116.974975 
L 984.943992 116.974975 
L 984.943992 115.911051 
"/>
   </g>
   <g id="Quiver_93">
    <path clip-path="url(#p8d3a23ecce)" d="M 989.799714 116.443013 
L 989.799714 115.979115 
L 988.871917 116.443013 
L 990.263613 111.804027 
L 991.655309 116.443013 
L 990.727512 115.979115 
L 990.727512 116.443013 
L 989.799714 116.443013 
"/>
   </g>
   <g id="Quiver_94">
    <path clip-path="url(#p8d3a23ecce)" d="M 990.263613 111.469861 
L 990.59778 111.469861 
L 990.263613 110.801528 
L 993.605278 111.804027 
L 990.263613 112.806527 
L 990.59778 112.138194 
L 990.263613 112.138194 
L 990.263613 111.469861 
"/>
   </g>
   <g id="Quiver_95">
    <path clip-path="url(#p8d3a23ecce)" d="M 993.33952 111.804027 
L 993.33952 111.538269 
L 992.808003 111.804027 
L 993.605278 109.146445 
L 994.402553 111.804027 
L 993.871036 111.538269 
L 993.871036 111.804027 
L 993.33952 111.804027 
"/>
   </g>
   <g id="Quiver_96">
    <path clip-path="url(#p8d3a23ecce)" d="M 993.605278 108.955008 
L 993.796716 108.955008 
L 993.605278 108.572133 
L 995.519652 109.146445 
L 993.605278 109.720757 
L 993.796716 109.337882 
L 993.605278 109.337882 
L 993.605278 108.955008 
"/>
   </g>
   <g id="Quiver_97">
    <path clip-path="url(#p8d3a23ecce)" d="M 995.519652 108.265392 
L 994.756638 108.705919 
L 994.756638 109.586971 
L 995.519652 110.027498 
L 996.282666 109.586971 
L 996.282666 108.705919 
L 995.519652 108.265392 
L 994.756638 108.705919 
"/>
   </g>
   <g id="Quiver_98">
    <path clip-path="url(#p8d3a23ecce)" d="M 996.400704 107.713149 
L 995.960178 106.950135 
L 995.079125 106.950135 
L 994.638599 107.713149 
L 995.079125 108.476163 
L 995.960178 108.476163 
L 996.400704 107.713149 
L 995.960178 106.950135 
"/>
   </g>
   <g id="PathCollection_8">
    <g clip-path="url(#p8d3a23ecce)">
     <use style="stroke:#000000;" x="895.831579" xlink:href="#m5fb66d90fc" y="247.536"/>
     <use style="stroke:#000000;" x="880.56" xlink:href="#m5fb66d90fc" y="268.7364"/>
     <use style="stroke:#000000;" x="851.582179" xlink:href="#m5fb66d90fc" y="308.964159"/>
     <use style="stroke:#000000;" x="788.410348" xlink:href="#m5fb66d90fc" y="396.660925"/>
     <use style="stroke:#000000;" x="613.530045" xlink:href="#m5fb66d90fc" y="639.434275"/>
     <use style="stroke:#000000;" x="-1" xlink:href="#m5fb66d90fc" y="1492.540742"/>
    </g>
   </g>
   <g id="Quiver_99">
    <path clip-path="url(#p8d3a23ecce)" d="M 896.712632 247.536 
L 896.712632 260.806926 
L 898.474737 259.925874 
L 895.831579 268.7364 
L 893.188421 259.925874 
L 894.950526 260.806926 
L 894.950526 247.536 
L 896.712632 247.536 
"/>
   </g>
   <g id="Quiver_100">
    <path clip-path="url(#p8d3a23ecce)" d="M 895.831579 269.617453 
L 888.489474 269.617453 
L 889.370526 271.379558 
L 880.56 268.7364 
L 889.370526 266.093242 
L 888.489474 267.855347 
L 895.831579 267.855347 
L 895.831579 269.617453 
"/>
   </g>
   <g id="Quiver_101">
    <path clip-path="url(#p8d3a23ecce)" d="M 881.441053 268.7364 
L 881.441053 301.034685 
L 883.203158 300.153633 
L 880.56 308.964159 
L 877.916842 300.153633 
L 879.678947 301.034685 
L 879.678947 268.7364 
L 881.441053 268.7364 
"/>
   </g>
   <g id="Quiver_102">
    <path clip-path="url(#p8d3a23ecce)" d="M 880.56 309.845212 
L 859.511653 309.845212 
L 860.392705 311.607317 
L 851.582179 308.964159 
L 860.392705 306.321001 
L 859.511653 308.083106 
L 880.56 308.083106 
L 880.56 309.845212 
"/>
   </g>
   <g id="Quiver_103">
    <path clip-path="url(#p8d3a23ecce)" d="M 852.463232 308.964159 
L 852.463232 388.731451 
L 854.225337 387.850399 
L 851.582179 396.660925 
L 848.939021 387.850399 
L 850.701126 388.731451 
L 850.701126 308.964159 
L 852.463232 308.964159 
"/>
   </g>
   <g id="Quiver_104">
    <path clip-path="url(#p8d3a23ecce)" d="M 851.582179 397.541978 
L 796.339822 397.541978 
L 797.220874 399.304083 
L 788.410348 396.660925 
L 797.220874 394.017767 
L 796.339822 395.779872 
L 851.582179 395.779872 
L 851.582179 397.541978 
"/>
   </g>
   <g id="Quiver_105">
    <path clip-path="url(#p8d3a23ecce)" d="M 789.291401 396.660925 
L 789.291401 631.504801 
L 791.053506 630.623749 
L 788.410348 639.434275 
L 785.76719 630.623749 
L 787.529295 631.504801 
L 787.529295 396.660925 
L 789.291401 396.660925 
"/>
   </g>
   <g id="Quiver_106">
    <path clip-path="url(#p8d3a23ecce)" d="M 788.410348 640.315328 
L 621.459518 640.315328 
L 622.340571 642.077433 
L 613.530045 639.434275 
L 622.340571 636.791117 
L 621.459518 638.553222 
L 788.410348 638.553222 
L 788.410348 640.315328 
"/>
   </g>
   <g id="Quiver_107">
    <path clip-path="url(#p8d3a23ecce)" d="M 614.411097 639.434275 
L 614.411097 1672.55319 
L 616.173203 1671.672137 
L 613.530045 1680.482664 
L 610.886887 1671.672137 
L 612.648992 1672.55319 
L 612.648992 639.434275 
L 614.411097 639.434275 
"/>
   </g>
   <g id="Quiver_108">
    <path clip-path="url(#p8d3a23ecce)" d="M 613.530045 1681.363716 
L -128.453344 1681.363716 
L -127.572292 1683.125821 
L -136.382818 1680.482664 
L -127.572292 1677.839506 
L -128.453344 1679.601611 
L 613.530045 1679.601611 
L 613.530045 1681.363716 
"/>
   </g>
   <g id="Quiver_109">
    <path clip-path="url(#p8d3a23ecce)" d="M -135.501765 1680.482664 
L -135.501765 12283.341884 
L -133.73966 12282.460831 
L -136.382818 12291.271358 
L -139.025976 12282.460831 
L -137.263871 12283.341884 
L -137.263871 1680.482664 
L -135.501765 1680.482664 
"/>
   </g>
   <g id="Quiver_110">
    <path clip-path="url(#p8d3a23ecce)" d="M -136.382818 12292.15241 
L -7771.870319 12292.15241 
L -7770.989267 12293.914516 
L -7779.799793 12291.271358 
L -7770.989267 12288.6282 
L -7771.870319 12290.390305 
L -136.382818 12290.390305 
L -136.382818 12292.15241 
"/>
   </g>
   <g id="Quiver_111">
    <path clip-path="url(#p8d3a23ecce)" d="M -7778.91874 12291.271358 
L -7778.91874 127764.67241 
L -7777.156635 127763.791358 
L -7779.799793 127772.601884 
L -7782.442951 127763.791358 
L -7780.680846 127764.67241 
L -7780.680846 12291.271358 
L -7778.91874 12291.271358 
"/>
   </g>
   <g id="Quiver_112">
    <path clip-path="url(#p8d3a23ecce)" d="M -7779.799793 689036.095731 
L -123253.200846 689036.095731 
L -123252.319793 689037.857837 
L -123261.130319 689035.214679 
L -123252.319793 689032.571521 
L -123253.200846 689034.333626 
L -7779.799793 689034.333626 
L -7779.799793 689036.095731 
"/>
   </g>
   <g id="matplotlib.axis_5">
    <g id="xtick_15">
     <g id="line2d_33">
      <g>
       <use style="stroke:#000000;stroke-width:0.8;" x="801.852632" xlink:href="#m448000eef7" y="378"/>
      </g>
     </g>
     <g id="text_35">
      <!-- −0.75 -->
      <g transform="translate(786.529975 392.598437)scale(0.1 -0.1)">
       <use xlink:href="#DejaVuSans-2212"/>
       <use x="83.789062" xlink:href="#DejaVuSans-30"/>
       <use x="147.412109" xlink:href="#DejaVuSans-2e"/>
       <use x="179.199219" xlink:href="#DejaVuSans-37"/>
       <use x="242.822266" xlink:href="#DejaVuSans-35"/>
      </g>
     </g>
    </g>
    <g id="xtick_16">
     <g id="line2d_34">
      <g>
       <use style="stroke:#000000;stroke-width:0.8;" x="841.010526" xlink:href="#m448000eef7" y="378"/>
      </g>
     </g>
     <g id="text_36">
      <!-- −0.50 -->
      <g transform="translate(825.68787 392.598437)scale(0.1 -0.1)">
       <use xlink:href="#DejaVuSans-2212"/>
       <use x="83.789062" xlink:href="#DejaVuSans-30"/>
       <use x="147.412109" xlink:href="#DejaVuSans-2e"/>
       <use x="179.199219" xlink:href="#DejaVuSans-35"/>
       <use x="242.822266" xlink:href="#DejaVuSans-30"/>
      </g>
     </g>
    </g>
    <g id="xtick_17">
     <g id="line2d_35">
      <g>
       <use style="stroke:#000000;stroke-width:0.8;" x="880.168421" xlink:href="#m448000eef7" y="378"/>
      </g>
     </g>
     <g id="text_37">
      <!-- −0.25 -->
      <g transform="translate(864.845765 392.598437)scale(0.1 -0.1)">
       <use xlink:href="#DejaVuSans-2212"/>
       <use x="83.789062" xlink:href="#DejaVuSans-30"/>
       <use x="147.412109" xlink:href="#DejaVuSans-2e"/>
       <use x="179.199219" xlink:href="#DejaVuSans-32"/>
       <use x="242.822266" xlink:href="#DejaVuSans-35"/>
      </g>
     </g>
    </g>
    <g id="xtick_18">
     <g id="line2d_36">
      <g>
       <use style="stroke:#000000;stroke-width:0.8;" x="919.326316" xlink:href="#m448000eef7" y="378"/>
      </g>
     </g>
     <g id="text_38">
      <!-- 0.00 -->
      <g transform="translate(908.193503 392.598437)scale(0.1 -0.1)">
       <use xlink:href="#DejaVuSans-30"/>
       <use x="63.623047" xlink:href="#DejaVuSans-2e"/>
       <use x="95.410156" xlink:href="#DejaVuSans-30"/>
       <use x="159.033203" xlink:href="#DejaVuSans-30"/>
      </g>
     </g>
    </g>
    <g id="xtick_19">
     <g id="line2d_37">
      <g>
       <use style="stroke:#000000;stroke-width:0.8;" x="958.484211" xlink:href="#m448000eef7" y="378"/>
      </g>
     </g>
     <g id="text_39">
      <!-- 0.25 -->
      <g transform="translate(947.351398 392.598437)scale(0.1 -0.1)">
       <use xlink:href="#DejaVuSans-30"/>
       <use x="63.623047" xlink:href="#DejaVuSans-2e"/>
       <use x="95.410156" xlink:href="#DejaVuSans-32"/>
       <use x="159.033203" xlink:href="#DejaVuSans-35"/>
      </g>
     </g>
    </g>
    <g id="xtick_20">
     <g id="line2d_38">
      <g>
       <use style="stroke:#000000;stroke-width:0.8;" x="997.642105" xlink:href="#m448000eef7" y="378"/>
      </g>
     </g>
     <g id="text_40">
      <!-- 0.50 -->
      <g transform="translate(986.509293 392.598437)scale(0.1 -0.1)">
       <use xlink:href="#DejaVuSans-30"/>
       <use x="63.623047" xlink:href="#DejaVuSans-2e"/>
       <use x="95.410156" xlink:href="#DejaVuSans-35"/>
       <use x="159.033203" xlink:href="#DejaVuSans-30"/>
      </g>
     </g>
    </g>
    <g id="xtick_21">
     <g id="line2d_39">
      <g>
       <use style="stroke:#000000;stroke-width:0.8;" x="1036.8" xlink:href="#m448000eef7" y="378"/>
      </g>
     </g>
     <g id="text_41">
      <!-- 0.75 -->
      <g transform="translate(1025.667188 392.598437)scale(0.1 -0.1)">
       <use xlink:href="#DejaVuSans-30"/>
       <use x="63.623047" xlink:href="#DejaVuSans-2e"/>
       <use x="95.410156" xlink:href="#DejaVuSans-37"/>
       <use x="159.033203" xlink:href="#DejaVuSans-35"/>
      </g>
     </g>
    </g>
    <g id="text_42">
     <!-- $x$ -->
     <g transform="translate(916.326316 406.276563)scale(0.1 -0.1)">
      <use transform="translate(0 0.3125)" xlink:href="#DejaVuSans-Oblique-78"/>
     </g>
    </g>
   </g>
   <g id="matplotlib.axis_6">
    <g id="ytick_15">
     <g id="line2d_40">
      <g>
       <use style="stroke:#000000;stroke-width:0.8;" x="801.852632" xlink:href="#m7ee92563d9" y="345.384"/>
      </g>
     </g>
     <g id="text_43">
      <!-- −0.6 -->
      <g transform="translate(770.569819 349.183219)scale(0.1 -0.1)">
       <use xlink:href="#DejaVuSans-2212"/>
       <use x="83.789062" xlink:href="#DejaVuSans-30"/>
       <use x="147.412109" xlink:href="#DejaVuSans-2e"/>
       <use x="179.199219" xlink:href="#DejaVuSans-36"/>
      </g>
     </g>
    </g>
    <g id="ytick_16">
     <g id="line2d_41">
      <g>
       <use style="stroke:#000000;stroke-width:0.8;" x="801.852632" xlink:href="#m7ee92563d9" y="301.896"/>
      </g>
     </g>
     <g id="text_44">
      <!-- −0.4 -->
      <g transform="translate(770.569819 305.695219)scale(0.1 -0.1)">
       <use xlink:href="#DejaVuSans-2212"/>
       <use x="83.789062" xlink:href="#DejaVuSans-30"/>
       <use x="147.412109" xlink:href="#DejaVuSans-2e"/>
       <use x="179.199219" xlink:href="#DejaVuSans-34"/>
      </g>
     </g>
    </g>
    <g id="ytick_17">
     <g id="line2d_42">
      <g>
       <use style="stroke:#000000;stroke-width:0.8;" x="801.852632" xlink:href="#m7ee92563d9" y="258.408"/>
      </g>
     </g>
     <g id="text_45">
      <!-- −0.2 -->
      <g transform="translate(770.569819 262.207219)scale(0.1 -0.1)">
       <use xlink:href="#DejaVuSans-2212"/>
       <use x="83.789062" xlink:href="#DejaVuSans-30"/>
       <use x="147.412109" xlink:href="#DejaVuSans-2e"/>
       <use x="179.199219" xlink:href="#DejaVuSans-32"/>
      </g>
     </g>
    </g>
    <g id="ytick_18">
     <g id="line2d_43">
      <g>
       <use style="stroke:#000000;stroke-width:0.8;" x="801.852632" xlink:href="#m7ee92563d9" y="214.92"/>
      </g>
     </g>
     <g id="text_46">
      <!-- 0.0 -->
      <g transform="translate(778.949507 218.719219)scale(0.1 -0.1)">
       <use xlink:href="#DejaVuSans-30"/>
       <use x="63.623047" xlink:href="#DejaVuSans-2e"/>
       <use x="95.410156" xlink:href="#DejaVuSans-30"/>
      </g>
     </g>
    </g>
    <g id="ytick_19">
     <g id="line2d_44">
      <g>
       <use style="stroke:#000000;stroke-width:0.8;" x="801.852632" xlink:href="#m7ee92563d9" y="171.432"/>
      </g>
     </g>
     <g id="text_47">
      <!-- 0.2 -->
      <g transform="translate(778.949507 175.231219)scale(0.1 -0.1)">
       <use xlink:href="#DejaVuSans-30"/>
       <use x="63.623047" xlink:href="#DejaVuSans-2e"/>
       <use x="95.410156" xlink:href="#DejaVuSans-32"/>
      </g>
     </g>
    </g>
    <g id="ytick_20">
     <g id="line2d_45">
      <g>
       <use style="stroke:#000000;stroke-width:0.8;" x="801.852632" xlink:href="#m7ee92563d9" y="127.944"/>
      </g>
     </g>
     <g id="text_48">
      <!-- 0.4 -->
      <g transform="translate(778.949507 131.743219)scale(0.1 -0.1)">
       <use xlink:href="#DejaVuSans-30"/>
       <use x="63.623047" xlink:href="#DejaVuSans-2e"/>
       <use x="95.410156" xlink:href="#DejaVuSans-34"/>
      </g>
     </g>
    </g>
    <g id="ytick_21">
     <g id="line2d_46">
      <g>
       <use style="stroke:#000000;stroke-width:0.8;" x="801.852632" xlink:href="#m7ee92563d9" y="84.456"/>
      </g>
     </g>
     <g id="text_49">
      <!-- 0.6 -->
      <g transform="translate(778.949507 88.255219)scale(0.1 -0.1)">
       <use xlink:href="#DejaVuSans-30"/>
       <use x="63.623047" xlink:href="#DejaVuSans-2e"/>
       <use x="95.410156" xlink:href="#DejaVuSans-36"/>
      </g>
     </g>
    </g>
    <g id="text_50">
     <!-- $f(x, \mu)$ -->
     <g transform="translate(764.469819 229.32)rotate(-90)scale(0.1 -0.1)">
      <use transform="translate(0 0.015625)" xlink:href="#DejaVuSans-Oblique-66"/>
      <use transform="translate(35.205078 0.015625)" xlink:href="#DejaVuSans-28"/>
      <use transform="translate(74.21875 0.015625)" xlink:href="#DejaVuSans-Oblique-78"/>
      <use transform="translate(133.398438 0.015625)" xlink:href="#DejaVuSans-2c"/>
      <use transform="translate(184.667969 0.015625)" xlink:href="#DejaVuSans-Oblique-3bc"/>
      <use transform="translate(248.291016 0.015625)" xlink:href="#DejaVuSans-29"/>
     </g>
    </g>
   </g>
   <g id="line2d_47">
    <path clip-path="url(#p8d3a23ecce)" d="M 840.826853 433 
L 845.709474 416.247696 
L 851.974737 395.373456 
L 858.24 375.195024 
L 864.505263 355.7124 
L 870.770526 336.925584 
L 877.035789 318.834576 
L 883.301053 301.439376 
L 889.566316 284.739984 
L 895.831579 268.7364 
L 902.096842 253.428624 
L 908.362105 238.816656 
L 914.627368 224.900496 
L 920.892632 211.680144 
L 925.591579 202.221504 
L 930.290526 193.154256 
L 934.989474 184.4784 
L 939.688421 176.193936 
L 944.387368 168.300864 
L 949.086316 160.799184 
L 953.785263 153.688896 
L 958.484211 146.97 
L 963.183158 140.642496 
L 967.882105 134.706384 
L 972.581053 129.161664 
L 977.28 124.008336 
L 981.978947 119.2464 
L 986.677895 114.875856 
L 991.376842 110.896704 
L 996.075789 107.308944 
L 1000.774737 104.112576 
L 1005.473684 101.3076 
L 1008.606316 99.655056 
L 1011.738947 98.176464 
L 1014.871579 96.871824 
L 1018.004211 95.741136 
L 1021.136842 94.7844 
L 1024.269474 94.001616 
L 1027.402105 93.392784 
L 1030.534737 92.957904 
L 1033.667368 92.696976 
L 1036.8 92.61 
L 1036.8 92.61 
" style="fill:none;stroke:#000000;stroke-linecap:square;stroke-width:1.5;"/>
   </g>
   <g id="line2d_48">
    <path clip-path="url(#p8d3a23ecce)" d="M 801.852632 378 
L 1036.8 51.84 
L 1036.8 51.84 
" style="fill:none;stroke:#000000;stroke-linecap:square;stroke-width:1.5;"/>
   </g>
   <g id="patch_13">
    <path d="M 801.852632 378 
L 801.852632 51.84 
" style="fill:none;stroke:#000000;stroke-linecap:square;stroke-linejoin:miter;stroke-width:0.8;"/>
   </g>
   <g id="patch_14">
    <path d="M 1036.8 378 
L 1036.8 51.84 
" style="fill:none;stroke:#000000;stroke-linecap:square;stroke-linejoin:miter;stroke-width:0.8;"/>
   </g>
   <g id="patch_15">
    <path d="M 801.852632 378 
L 1036.8 378 
" style="fill:none;stroke:#000000;stroke-linecap:square;stroke-linejoin:miter;stroke-width:0.8;"/>
   </g>
   <g id="patch_16">
    <path d="M 801.852632 51.84 
L 1036.8 51.84 
" style="fill:none;stroke:#000000;stroke-linecap:square;stroke-linejoin:miter;stroke-width:0.8;"/>
   </g>
   <g id="text_51">
    <!-- $\mu = 0.5$ -->
    <g transform="translate(841.010526 84.456)scale(0.1 -0.1)">
     <use transform="translate(0 0.78125)" xlink:href="#DejaVuSans-Oblique-3bc"/>
     <use transform="translate(83.105469 0.78125)" xlink:href="#DejaVuSans-3d"/>
     <use transform="translate(186.376953 0.78125)" xlink:href="#DejaVuSans-30"/>
     <use transform="translate(250 0.78125)" xlink:href="#DejaVuSans-2e"/>
     <use transform="translate(281.787109 0.78125)" xlink:href="#DejaVuSans-35"/>
    </g>
   </g>
  </g>
 </g>
 <defs>
  <clipPath id="p55206b9338">
   <rect height="326.16" width="234.947368" x="144" y="51.84"/>
  </clipPath>
  <clipPath id="p649b992d24">
   <rect height="326.16" width="234.947368" x="472.926316" y="51.84"/>
  </clipPath>
  <clipPath id="p8d3a23ecce">
   <rect height="326.16" width="234.947368" x="801.852632" y="51.84"/>
  </clipPath>
 </defs>
</svg>
