<?xml version="1.0" encoding="utf-8" standalone="no"?>
<!DOCTYPE svg PUBLIC "-//W3C//DTD SVG 1.1//EN"
  "http://www.w3.org/Graphics/SVG/1.1/DTD/svg11.dtd">
<svg height="432pt" version="1.1" viewBox="0 0 1152 432" width="1152pt" xmlns="http://www.w3.org/2000/svg" xmlns:xlink="http://www.w3.org/1999/xlink">
 <metadata>
  <rdf:RDF xmlns:cc="http://creativecommons.org/ns#" xmlns:dc="http://purl.org/dc/elements/1.1/" xmlns:rdf="http://www.w3.org/1999/02/22-rdf-syntax-ns#">
   <cc:Work>
    <dc:type rdf:resource="http://purl.org/dc/dcmitype/StillImage"/>
    <dc:date>2021-06-29T02:35:39.734063</dc:date>
    <dc:format>image/svg+xml</dc:format>
    <dc:creator>
     <cc:Agent>
      <dc:title>Matplotlib v3.4.2, https://matplotlib.org/</dc:title>
     </cc:Agent>
    </dc:creator>
   </cc:Work>
  </rdf:RDF>
 </metadata>
 <defs>
  <style type="text/css">*{stroke-linecap:butt;stroke-linejoin:round;}</style>
 </defs>
 <g id="figure_1">
  <g id="patch_1">
   <path d="M 0 432 
L 1152 432 
L 1152 0 
L 0 0 
z
" style="fill:none;"/>
  </g>
  <g id="axes_1">
   <g id="patch_2">
    <path d="M 144 378 
L 378.947368 378 
L 378.947368 51.84 
L 144 51.84 
z
" style="fill:#ffffff;"/>
   </g>
   <g id="PathCollection_1">
    <defs>
     <path d="M 0 1.5 
C 0.397805 1.5 0.77937 1.341951 1.06066 1.06066 
C 1.341951 0.77937 1.5 0.397805 1.5 0 
C 1.5 -0.397805 1.341951 -0.77937 1.06066 -1.06066 
C 0.77937 -1.341951 0.397805 -1.5 0 -1.5 
C -0.397805 -1.5 -0.77937 -1.341951 -1.06066 -1.06066 
C -1.341951 -0.77937 -1.5 -0.397805 -1.5 0 
C -1.5 0.397805 -1.341951 0.77937 -1.06066 1.06066 
C -0.77937 1.341951 -0.397805 1.5 0 1.5 
z
" id="m7b74622742" style="stroke:#000000;"/>
    </defs>
    <g clip-path="url(#p7a5de51c91)">
     <use style="stroke:#000000;" x="300.631579" xlink:href="#m7b74622742" y="160.56"/>
     <use style="stroke:#000000;" x="288.394737" xlink:href="#m7b74622742" y="177.5475"/>
     <use style="stroke:#000000;" x="280.869198" xlink:href="#m7b74622742" y="187.994647"/>
     <use style="stroke:#000000;" x="275.722917" xlink:href="#m7b74622742" y="195.138847"/>
     <use style="stroke:#000000;" x="272.042681" xlink:href="#m7b74622742" y="200.247846"/>
     <use style="stroke:#000000;" x="269.35231" xlink:href="#m7b74622742" y="203.982688"/>
     <use style="stroke:#000000;" x="267.36272" xlink:href="#m7b74622742" y="206.744689"/>
     <use style="stroke:#000000;" x="265.882136" xlink:href="#m7b74622742" y="208.800074"/>
    </g>
   </g>
   <g id="Quiver_1">
    <path clip-path="url(#p7a5de51c91)" d="M 301.512632 160.56 
L 301.512632 169.618026 
L 303.274737 168.736974 
L 300.631579 177.5475 
L 297.988421 168.736974 
L 299.750526 169.618026 
L 299.750526 160.56 
L 301.512632 160.56 
"/>
   </g>
   <g id="Quiver_2">
    <path clip-path="url(#p7a5de51c91)" d="M 300.631579 178.428553 
L 296.324211 178.428553 
L 297.205263 180.190658 
L 288.394737 177.5475 
L 297.205263 174.904342 
L 296.324211 176.666447 
L 300.631579 176.666447 
L 300.631579 178.428553 
"/>
   </g>
   <g id="Quiver_3">
    <path clip-path="url(#p7a5de51c91)" d="M 289.275789 177.5475 
L 289.275789 180.065173 
L 291.037895 179.18412 
L 288.394737 187.994647 
L 285.751579 179.18412 
L 287.513684 180.065173 
L 287.513684 177.5475 
L 289.275789 177.5475 
"/>
   </g>
   <g id="Quiver_4">
    <path clip-path="url(#p7a5de51c91)" d="M 288.394737 188.7472 
L 287.642183 188.7472 
L 288.394737 190.252308 
L 280.869198 187.994647 
L 288.394737 185.736985 
L 287.642183 187.242093 
L 288.394737 187.242093 
L 288.394737 188.7472 
"/>
   </g>
   <g id="Quiver_5">
    <path clip-path="url(#p7a5de51c91)" d="M 281.583619 187.994647 
L 281.583619 188.709067 
L 283.012459 187.994647 
L 280.869198 195.138847 
L 278.725938 187.994647 
L 280.154778 188.709067 
L 280.154778 187.994647 
L 281.583619 187.994647 
"/>
   </g>
   <g id="Quiver_6">
    <path clip-path="url(#p7a5de51c91)" d="M 280.869198 195.653476 
L 280.35457 195.653476 
L 280.869198 196.682732 
L 275.722917 195.138847 
L 280.869198 193.594963 
L 280.35457 194.624219 
L 280.869198 194.624219 
L 280.869198 195.653476 
"/>
   </g>
   <g id="Quiver_7">
    <path clip-path="url(#p7a5de51c91)" d="M 276.233817 195.138847 
L 276.233817 195.649747 
L 277.255616 195.138847 
L 275.722917 200.247846 
L 274.190217 195.138847 
L 275.212017 195.649747 
L 275.212017 195.138847 
L 276.233817 195.138847 
"/>
   </g>
   <g id="Quiver_8">
    <path clip-path="url(#p7a5de51c91)" d="M 275.722917 200.615869 
L 275.354893 200.615869 
L 275.722917 201.351917 
L 272.042681 200.247846 
L 275.722917 199.143775 
L 275.354893 199.879822 
L 275.722917 199.879822 
L 275.722917 200.615869 
"/>
   </g>
   <g id="Quiver_9">
    <path clip-path="url(#p7a5de51c91)" d="M 272.416165 200.247846 
L 272.416165 200.62133 
L 273.163134 200.247846 
L 272.042681 203.982688 
L 270.922228 200.247846 
L 271.669197 200.62133 
L 271.669197 200.247846 
L 272.416165 200.247846 
"/>
   </g>
   <g id="Quiver_10">
    <path clip-path="url(#p7a5de51c91)" d="M 272.042681 204.251726 
L 271.773644 204.251726 
L 272.042681 204.7898 
L 269.35231 203.982688 
L 272.042681 203.175577 
L 271.773644 203.713651 
L 272.042681 203.713651 
L 272.042681 204.251726 
"/>
   </g>
   <g id="Quiver_11">
    <path clip-path="url(#p7a5de51c91)" d="M 269.62851 203.982688 
L 269.62851 204.258888 
L 270.18091 203.982688 
L 269.35231 206.744689 
L 268.52371 203.982688 
L 269.07611 204.258888 
L 269.07611 203.982688 
L 269.62851 203.982688 
"/>
   </g>
   <g id="Quiver_12">
    <path clip-path="url(#p7a5de51c91)" d="M 269.35231 206.943648 
L 269.153351 206.943648 
L 269.35231 207.341566 
L 267.36272 206.744689 
L 269.35231 206.147812 
L 269.153351 206.54573 
L 269.35231 206.54573 
L 269.35231 206.943648 
"/>
   </g>
   <g id="Quiver_13">
    <path clip-path="url(#p7a5de51c91)" d="M 267.568258 206.744689 
L 267.568258 206.950228 
L 267.979335 206.744689 
L 267.36272 208.800074 
L 266.746104 206.744689 
L 267.157181 206.950228 
L 267.157181 206.744689 
L 267.568258 206.744689 
"/>
   </g>
   <g id="Quiver_14">
    <path clip-path="url(#p7a5de51c91)" d="M 266.481667 208.800074 
L 266.922193 209.563087 
L 267.803246 209.563087 
L 268.243772 208.800074 
L 267.803246 208.03706 
L 266.922193 208.03706 
L 266.481667 208.800074 
L 266.922193 209.563087 
"/>
   </g>
   <g id="PathCollection_2">
    <g clip-path="url(#p7a5de51c91)">
     <use style="stroke:#000000;" x="183.157895" xlink:href="#m7b74622742" y="323.64"/>
     <use style="stroke:#000000;" x="222.315789" xlink:href="#m7b74622742" y="269.28"/>
     <use style="stroke:#000000;" x="234.552632" xlink:href="#m7b74622742" y="252.2925"/>
     <use style="stroke:#000000;" x="242.07817" xlink:href="#m7b74622742" y="241.845353"/>
     <use style="stroke:#000000;" x="247.224451" xlink:href="#m7b74622742" y="234.701153"/>
     <use style="stroke:#000000;" x="250.904687" xlink:href="#m7b74622742" y="229.592154"/>
     <use style="stroke:#000000;" x="253.595058" xlink:href="#m7b74622742" y="225.857312"/>
     <use style="stroke:#000000;" x="255.584649" xlink:href="#m7b74622742" y="223.095311"/>
    </g>
   </g>
   <g id="Quiver_15">
    <path clip-path="url(#p7a5de51c91)" d="M 182.276842 323.64 
L 182.276842 277.209474 
L 180.514737 278.090526 
L 183.157895 269.28 
L 185.801053 278.090526 
L 184.038947 277.209474 
L 184.038947 323.64 
L 182.276842 323.64 
"/>
   </g>
   <g id="Quiver_16">
    <path clip-path="url(#p7a5de51c91)" d="M 183.157895 268.398947 
L 214.386316 268.398947 
L 213.505263 266.636842 
L 222.315789 269.28 
L 213.505263 271.923158 
L 214.386316 270.161053 
L 183.157895 270.161053 
L 183.157895 268.398947 
"/>
   </g>
   <g id="Quiver_17">
    <path clip-path="url(#p7a5de51c91)" d="M 221.434737 269.28 
L 221.434737 260.221974 
L 219.672632 261.103026 
L 222.315789 252.2925 
L 224.958947 261.103026 
L 223.196842 260.221974 
L 223.196842 269.28 
L 221.434737 269.28 
"/>
   </g>
   <g id="Quiver_18">
    <path clip-path="url(#p7a5de51c91)" d="M 222.315789 251.411447 
L 226.623158 251.411447 
L 225.742105 249.649342 
L 234.552632 252.2925 
L 225.742105 254.935658 
L 226.623158 253.173553 
L 222.315789 253.173553 
L 222.315789 251.411447 
"/>
   </g>
   <g id="Quiver_19">
    <path clip-path="url(#p7a5de51c91)" d="M 233.671579 252.2925 
L 233.671579 249.774827 
L 231.909474 250.65588 
L 234.552632 241.845353 
L 237.195789 250.65588 
L 235.433684 249.774827 
L 235.433684 252.2925 
L 233.671579 252.2925 
"/>
   </g>
   <g id="Quiver_20">
    <path clip-path="url(#p7a5de51c91)" d="M 234.552632 241.0928 
L 235.305185 241.0928 
L 234.552632 239.587692 
L 242.07817 241.845353 
L 234.552632 244.103015 
L 235.305185 242.597907 
L 234.552632 242.597907 
L 234.552632 241.0928 
"/>
   </g>
   <g id="Quiver_21">
    <path clip-path="url(#p7a5de51c91)" d="M 241.36375 241.845353 
L 241.36375 241.130933 
L 239.93491 241.845353 
L 242.07817 234.701153 
L 244.22143 241.845353 
L 242.79259 241.130933 
L 242.79259 241.845353 
L 241.36375 241.845353 
"/>
   </g>
   <g id="Quiver_22">
    <path clip-path="url(#p7a5de51c91)" d="M 242.07817 234.186524 
L 242.592798 234.186524 
L 242.07817 233.157268 
L 247.224451 234.701153 
L 242.07817 236.245037 
L 242.592798 235.215781 
L 242.07817 235.215781 
L 242.07817 234.186524 
"/>
   </g>
   <g id="Quiver_23">
    <path clip-path="url(#p7a5de51c91)" d="M 246.713552 234.701153 
L 246.713552 234.190253 
L 245.691752 234.701153 
L 247.224451 229.592154 
L 248.757151 234.701153 
L 247.735351 234.190253 
L 247.735351 234.701153 
L 246.713552 234.701153 
"/>
   </g>
   <g id="Quiver_24">
    <path clip-path="url(#p7a5de51c91)" d="M 247.224451 229.224131 
L 247.592475 229.224131 
L 247.224451 228.488083 
L 250.904687 229.592154 
L 247.224451 230.696225 
L 247.592475 229.960178 
L 247.224451 229.960178 
L 247.224451 229.224131 
"/>
   </g>
   <g id="Quiver_25">
    <path clip-path="url(#p7a5de51c91)" d="M 250.531203 229.592154 
L 250.531203 229.21867 
L 249.784235 229.592154 
L 250.904687 225.857312 
L 252.02514 229.592154 
L 251.278172 229.21867 
L 251.278172 229.592154 
L 250.531203 229.592154 
"/>
   </g>
   <g id="Quiver_26">
    <path clip-path="url(#p7a5de51c91)" d="M 250.904687 225.588274 
L 251.173724 225.588274 
L 250.904687 225.0502 
L 253.595058 225.857312 
L 250.904687 226.664423 
L 251.173724 226.126349 
L 250.904687 226.126349 
L 250.904687 225.588274 
"/>
   </g>
   <g id="Quiver_27">
    <path clip-path="url(#p7a5de51c91)" d="M 253.318858 225.857312 
L 253.318858 225.581112 
L 252.766458 225.857312 
L 253.595058 223.095311 
L 254.423659 225.857312 
L 253.871259 225.581112 
L 253.871259 225.857312 
L 253.318858 225.857312 
"/>
   </g>
   <g id="Quiver_28">
    <path clip-path="url(#p7a5de51c91)" d="M 253.595058 222.896352 
L 253.794017 222.896352 
L 253.595058 222.498434 
L 255.584649 223.095311 
L 253.595058 223.692188 
L 253.794017 223.29427 
L 253.595058 223.29427 
L 253.595058 222.896352 
"/>
   </g>
   <g id="matplotlib.axis_1">
    <g id="xtick_1">
     <g id="line2d_1">
      <defs>
       <path d="M 0 0 
L 0 3.5 
" id="m586f40c7dc" style="stroke:#000000;stroke-width:0.8;"/>
      </defs>
      <g>
       <use style="stroke:#000000;stroke-width:0.8;" x="144" xlink:href="#m586f40c7dc" y="378"/>
      </g>
     </g>
     <g id="text_1">
      <!-- −0.75 -->
      <g transform="translate(128.677344 392.598437)scale(0.1 -0.1)">
       <defs>
        <path d="M 678 2272 
L 4684 2272 
L 4684 1741 
L 678 1741 
L 678 2272 
z
" id="DejaVuSans-2212" transform="scale(0.015625)"/>
        <path d="M 2034 4250 
Q 1547 4250 1301 3770 
Q 1056 3291 1056 2328 
Q 1056 1369 1301 889 
Q 1547 409 2034 409 
Q 2525 409 2770 889 
Q 3016 1369 3016 2328 
Q 3016 3291 2770 3770 
Q 2525 4250 2034 4250 
z
M 2034 4750 
Q 2819 4750 3233 4129 
Q 3647 3509 3647 2328 
Q 3647 1150 3233 529 
Q 2819 -91 2034 -91 
Q 1250 -91 836 529 
Q 422 1150 422 2328 
Q 422 3509 836 4129 
Q 1250 4750 2034 4750 
z
" id="DejaVuSans-30" transform="scale(0.015625)"/>
        <path d="M 684 794 
L 1344 794 
L 1344 0 
L 684 0 
L 684 794 
z
" id="DejaVuSans-2e" transform="scale(0.015625)"/>
        <path d="M 525 4666 
L 3525 4666 
L 3525 4397 
L 1831 0 
L 1172 0 
L 2766 4134 
L 525 4134 
L 525 4666 
z
" id="DejaVuSans-37" transform="scale(0.015625)"/>
        <path d="M 691 4666 
L 3169 4666 
L 3169 4134 
L 1269 4134 
L 1269 2991 
Q 1406 3038 1543 3061 
Q 1681 3084 1819 3084 
Q 2600 3084 3056 2656 
Q 3513 2228 3513 1497 
Q 3513 744 3044 326 
Q 2575 -91 1722 -91 
Q 1428 -91 1123 -41 
Q 819 9 494 109 
L 494 744 
Q 775 591 1075 516 
Q 1375 441 1709 441 
Q 2250 441 2565 725 
Q 2881 1009 2881 1497 
Q 2881 1984 2565 2268 
Q 2250 2553 1709 2553 
Q 1456 2553 1204 2497 
Q 953 2441 691 2322 
L 691 4666 
z
" id="DejaVuSans-35" transform="scale(0.015625)"/>
       </defs>
       <use xlink:href="#DejaVuSans-2212"/>
       <use x="83.789062" xlink:href="#DejaVuSans-30"/>
       <use x="147.412109" xlink:href="#DejaVuSans-2e"/>
       <use x="179.199219" xlink:href="#DejaVuSans-37"/>
       <use x="242.822266" xlink:href="#DejaVuSans-35"/>
      </g>
     </g>
    </g>
    <g id="xtick_2">
     <g id="line2d_2">
      <g>
       <use style="stroke:#000000;stroke-width:0.8;" x="183.157895" xlink:href="#m586f40c7dc" y="378"/>
      </g>
     </g>
     <g id="text_2">
      <!-- −0.50 -->
      <g transform="translate(167.835238 392.598437)scale(0.1 -0.1)">
       <use xlink:href="#DejaVuSans-2212"/>
       <use x="83.789062" xlink:href="#DejaVuSans-30"/>
       <use x="147.412109" xlink:href="#DejaVuSans-2e"/>
       <use x="179.199219" xlink:href="#DejaVuSans-35"/>
       <use x="242.822266" xlink:href="#DejaVuSans-30"/>
      </g>
     </g>
    </g>
    <g id="xtick_3">
     <g id="line2d_3">
      <g>
       <use style="stroke:#000000;stroke-width:0.8;" x="222.315789" xlink:href="#m586f40c7dc" y="378"/>
      </g>
     </g>
     <g id="text_3">
      <!-- −0.25 -->
      <g transform="translate(206.993133 392.598437)scale(0.1 -0.1)">
       <defs>
        <path d="M 1228 531 
L 3431 531 
L 3431 0 
L 469 0 
L 469 531 
Q 828 903 1448 1529 
Q 2069 2156 2228 2338 
Q 2531 2678 2651 2914 
Q 2772 3150 2772 3378 
Q 2772 3750 2511 3984 
Q 2250 4219 1831 4219 
Q 1534 4219 1204 4116 
Q 875 4013 500 3803 
L 500 4441 
Q 881 4594 1212 4672 
Q 1544 4750 1819 4750 
Q 2544 4750 2975 4387 
Q 3406 4025 3406 3419 
Q 3406 3131 3298 2873 
Q 3191 2616 2906 2266 
Q 2828 2175 2409 1742 
Q 1991 1309 1228 531 
z
" id="DejaVuSans-32" transform="scale(0.015625)"/>
       </defs>
       <use xlink:href="#DejaVuSans-2212"/>
       <use x="83.789062" xlink:href="#DejaVuSans-30"/>
       <use x="147.412109" xlink:href="#DejaVuSans-2e"/>
       <use x="179.199219" xlink:href="#DejaVuSans-32"/>
       <use x="242.822266" xlink:href="#DejaVuSans-35"/>
      </g>
     </g>
    </g>
    <g id="xtick_4">
     <g id="line2d_4">
      <g>
       <use style="stroke:#000000;stroke-width:0.8;" x="261.473684" xlink:href="#m586f40c7dc" y="378"/>
      </g>
     </g>
     <g id="text_4">
      <!-- 0.00 -->
      <g transform="translate(250.340872 392.598437)scale(0.1 -0.1)">
       <use xlink:href="#DejaVuSans-30"/>
       <use x="63.623047" xlink:href="#DejaVuSans-2e"/>
       <use x="95.410156" xlink:href="#DejaVuSans-30"/>
       <use x="159.033203" xlink:href="#DejaVuSans-30"/>
      </g>
     </g>
    </g>
    <g id="xtick_5">
     <g id="line2d_5">
      <g>
       <use style="stroke:#000000;stroke-width:0.8;" x="300.631579" xlink:href="#m586f40c7dc" y="378"/>
      </g>
     </g>
     <g id="text_5">
      <!-- 0.25 -->
      <g transform="translate(289.498766 392.598437)scale(0.1 -0.1)">
       <use xlink:href="#DejaVuSans-30"/>
       <use x="63.623047" xlink:href="#DejaVuSans-2e"/>
       <use x="95.410156" xlink:href="#DejaVuSans-32"/>
       <use x="159.033203" xlink:href="#DejaVuSans-35"/>
      </g>
     </g>
    </g>
    <g id="xtick_6">
     <g id="line2d_6">
      <g>
       <use style="stroke:#000000;stroke-width:0.8;" x="339.789474" xlink:href="#m586f40c7dc" y="378"/>
      </g>
     </g>
     <g id="text_6">
      <!-- 0.50 -->
      <g transform="translate(328.656661 392.598437)scale(0.1 -0.1)">
       <use xlink:href="#DejaVuSans-30"/>
       <use x="63.623047" xlink:href="#DejaVuSans-2e"/>
       <use x="95.410156" xlink:href="#DejaVuSans-35"/>
       <use x="159.033203" xlink:href="#DejaVuSans-30"/>
      </g>
     </g>
    </g>
    <g id="xtick_7">
     <g id="line2d_7">
      <g>
       <use style="stroke:#000000;stroke-width:0.8;" x="378.947368" xlink:href="#m586f40c7dc" y="378"/>
      </g>
     </g>
     <g id="text_7">
      <!-- 0.75 -->
      <g transform="translate(367.814556 392.598437)scale(0.1 -0.1)">
       <use xlink:href="#DejaVuSans-30"/>
       <use x="63.623047" xlink:href="#DejaVuSans-2e"/>
       <use x="95.410156" xlink:href="#DejaVuSans-37"/>
       <use x="159.033203" xlink:href="#DejaVuSans-35"/>
      </g>
     </g>
    </g>
    <g id="text_8">
     <!-- $x$ -->
     <g transform="translate(258.473684 406.276563)scale(0.1 -0.1)">
      <defs>
       <path d="M 3841 3500 
L 2234 1784 
L 3219 0 
L 2559 0 
L 1819 1388 
L 531 0 
L -166 0 
L 1556 1844 
L 641 3500 
L 1300 3500 
L 1972 2234 
L 3144 3500 
L 3841 3500 
z
" id="DejaVuSans-Oblique-78" transform="scale(0.015625)"/>
      </defs>
      <use transform="translate(0 0.3125)" xlink:href="#DejaVuSans-Oblique-78"/>
     </g>
    </g>
   </g>
   <g id="matplotlib.axis_2">
    <g id="ytick_1">
     <g id="line2d_8">
      <defs>
       <path d="M 0 0 
L -3.5 0 
" id="mc4ab1a0497" style="stroke:#000000;stroke-width:0.8;"/>
      </defs>
      <g>
       <use style="stroke:#000000;stroke-width:0.8;" x="144" xlink:href="#mc4ab1a0497" y="345.384"/>
      </g>
     </g>
     <g id="text_9">
      <!-- −0.6 -->
      <g transform="translate(112.717187 349.183219)scale(0.1 -0.1)">
       <defs>
        <path d="M 2113 2584 
Q 1688 2584 1439 2293 
Q 1191 2003 1191 1497 
Q 1191 994 1439 701 
Q 1688 409 2113 409 
Q 2538 409 2786 701 
Q 3034 994 3034 1497 
Q 3034 2003 2786 2293 
Q 2538 2584 2113 2584 
z
M 3366 4563 
L 3366 3988 
Q 3128 4100 2886 4159 
Q 2644 4219 2406 4219 
Q 1781 4219 1451 3797 
Q 1122 3375 1075 2522 
Q 1259 2794 1537 2939 
Q 1816 3084 2150 3084 
Q 2853 3084 3261 2657 
Q 3669 2231 3669 1497 
Q 3669 778 3244 343 
Q 2819 -91 2113 -91 
Q 1303 -91 875 529 
Q 447 1150 447 2328 
Q 447 3434 972 4092 
Q 1497 4750 2381 4750 
Q 2619 4750 2861 4703 
Q 3103 4656 3366 4563 
z
" id="DejaVuSans-36" transform="scale(0.015625)"/>
       </defs>
       <use xlink:href="#DejaVuSans-2212"/>
       <use x="83.789062" xlink:href="#DejaVuSans-30"/>
       <use x="147.412109" xlink:href="#DejaVuSans-2e"/>
       <use x="179.199219" xlink:href="#DejaVuSans-36"/>
      </g>
     </g>
    </g>
    <g id="ytick_2">
     <g id="line2d_9">
      <g>
       <use style="stroke:#000000;stroke-width:0.8;" x="144" xlink:href="#mc4ab1a0497" y="301.896"/>
      </g>
     </g>
     <g id="text_10">
      <!-- −0.4 -->
      <g transform="translate(112.717187 305.695219)scale(0.1 -0.1)">
       <defs>
        <path d="M 2419 4116 
L 825 1625 
L 2419 1625 
L 2419 4116 
z
M 2253 4666 
L 3047 4666 
L 3047 1625 
L 3713 1625 
L 3713 1100 
L 3047 1100 
L 3047 0 
L 2419 0 
L 2419 1100 
L 313 1100 
L 313 1709 
L 2253 4666 
z
" id="DejaVuSans-34" transform="scale(0.015625)"/>
       </defs>
       <use xlink:href="#DejaVuSans-2212"/>
       <use x="83.789062" xlink:href="#DejaVuSans-30"/>
       <use x="147.412109" xlink:href="#DejaVuSans-2e"/>
       <use x="179.199219" xlink:href="#DejaVuSans-34"/>
      </g>
     </g>
    </g>
    <g id="ytick_3">
     <g id="line2d_10">
      <g>
       <use style="stroke:#000000;stroke-width:0.8;" x="144" xlink:href="#mc4ab1a0497" y="258.408"/>
      </g>
     </g>
     <g id="text_11">
      <!-- −0.2 -->
      <g transform="translate(112.717187 262.207219)scale(0.1 -0.1)">
       <use xlink:href="#DejaVuSans-2212"/>
       <use x="83.789062" xlink:href="#DejaVuSans-30"/>
       <use x="147.412109" xlink:href="#DejaVuSans-2e"/>
       <use x="179.199219" xlink:href="#DejaVuSans-32"/>
      </g>
     </g>
    </g>
    <g id="ytick_4">
     <g id="line2d_11">
      <g>
       <use style="stroke:#000000;stroke-width:0.8;" x="144" xlink:href="#mc4ab1a0497" y="214.92"/>
      </g>
     </g>
     <g id="text_12">
      <!-- 0.0 -->
      <g transform="translate(121.096875 218.719219)scale(0.1 -0.1)">
       <use xlink:href="#DejaVuSans-30"/>
       <use x="63.623047" xlink:href="#DejaVuSans-2e"/>
       <use x="95.410156" xlink:href="#DejaVuSans-30"/>
      </g>
     </g>
    </g>
    <g id="ytick_5">
     <g id="line2d_12">
      <g>
       <use style="stroke:#000000;stroke-width:0.8;" x="144" xlink:href="#mc4ab1a0497" y="171.432"/>
      </g>
     </g>
     <g id="text_13">
      <!-- 0.2 -->
      <g transform="translate(121.096875 175.231219)scale(0.1 -0.1)">
       <use xlink:href="#DejaVuSans-30"/>
       <use x="63.623047" xlink:href="#DejaVuSans-2e"/>
       <use x="95.410156" xlink:href="#DejaVuSans-32"/>
      </g>
     </g>
    </g>
    <g id="ytick_6">
     <g id="line2d_13">
      <g>
       <use style="stroke:#000000;stroke-width:0.8;" x="144" xlink:href="#mc4ab1a0497" y="127.944"/>
      </g>
     </g>
     <g id="text_14">
      <!-- 0.4 -->
      <g transform="translate(121.096875 131.743219)scale(0.1 -0.1)">
       <use xlink:href="#DejaVuSans-30"/>
       <use x="63.623047" xlink:href="#DejaVuSans-2e"/>
       <use x="95.410156" xlink:href="#DejaVuSans-34"/>
      </g>
     </g>
    </g>
    <g id="ytick_7">
     <g id="line2d_14">
      <g>
       <use style="stroke:#000000;stroke-width:0.8;" x="144" xlink:href="#mc4ab1a0497" y="84.456"/>
      </g>
     </g>
     <g id="text_15">
      <!-- 0.6 -->
      <g transform="translate(121.096875 88.255219)scale(0.1 -0.1)">
       <use xlink:href="#DejaVuSans-30"/>
       <use x="63.623047" xlink:href="#DejaVuSans-2e"/>
       <use x="95.410156" xlink:href="#DejaVuSans-36"/>
      </g>
     </g>
    </g>
    <g id="text_16">
     <!-- $f(x, \mu)$ -->
     <g transform="translate(106.617188 229.32)rotate(-90)scale(0.1 -0.1)">
      <defs>
       <path d="M 3059 4863 
L 2969 4384 
L 2419 4384 
Q 2106 4384 1964 4261 
Q 1822 4138 1753 3809 
L 1691 3500 
L 2638 3500 
L 2553 3053 
L 1606 3053 
L 1013 0 
L 434 0 
L 1031 3053 
L 481 3053 
L 563 3500 
L 1113 3500 
L 1159 3744 
Q 1278 4363 1576 4613 
Q 1875 4863 2516 4863 
L 3059 4863 
z
" id="DejaVuSans-Oblique-66" transform="scale(0.015625)"/>
       <path d="M 1984 4856 
Q 1566 4138 1362 3434 
Q 1159 2731 1159 2009 
Q 1159 1288 1364 580 
Q 1569 -128 1984 -844 
L 1484 -844 
Q 1016 -109 783 600 
Q 550 1309 550 2009 
Q 550 2706 781 3412 
Q 1013 4119 1484 4856 
L 1984 4856 
z
" id="DejaVuSans-28" transform="scale(0.015625)"/>
       <path d="M 750 794 
L 1409 794 
L 1409 256 
L 897 -744 
L 494 -744 
L 750 256 
L 750 794 
z
" id="DejaVuSans-2c" transform="scale(0.015625)"/>
       <path d="M -84 -1331 
L 856 3500 
L 1434 3500 
L 1009 1322 
Q 997 1256 987 1175 
Q 978 1094 978 1013 
Q 978 722 1161 565 
Q 1344 409 1684 409 
Q 2147 409 2431 671 
Q 2716 934 2816 1459 
L 3213 3500 
L 3788 3500 
L 3266 809 
Q 3253 750 3248 706 
Q 3244 663 3244 628 
Q 3244 531 3283 486 
Q 3322 441 3406 441 
Q 3438 441 3492 456 
Q 3547 472 3647 513 
L 3559 50 
Q 3422 -19 3297 -55 
Q 3172 -91 3053 -91 
Q 2847 -91 2730 40 
Q 2613 172 2613 403 
Q 2438 153 2195 31 
Q 1953 -91 1625 -91 
Q 1334 -91 1117 43 
Q 900 178 831 397 
L 494 -1331 
L -84 -1331 
z
" id="DejaVuSans-Oblique-3bc" transform="scale(0.015625)"/>
       <path d="M 513 4856 
L 1013 4856 
Q 1481 4119 1714 3412 
Q 1947 2706 1947 2009 
Q 1947 1309 1714 600 
Q 1481 -109 1013 -844 
L 513 -844 
Q 928 -128 1133 580 
Q 1338 1288 1338 2009 
Q 1338 2731 1133 3434 
Q 928 4138 513 4856 
z
" id="DejaVuSans-29" transform="scale(0.015625)"/>
      </defs>
      <use transform="translate(0 0.015625)" xlink:href="#DejaVuSans-Oblique-66"/>
      <use transform="translate(35.205078 0.015625)" xlink:href="#DejaVuSans-28"/>
      <use transform="translate(74.21875 0.015625)" xlink:href="#DejaVuSans-Oblique-78"/>
      <use transform="translate(133.398438 0.015625)" xlink:href="#DejaVuSans-2c"/>
      <use transform="translate(184.667969 0.015625)" xlink:href="#DejaVuSans-Oblique-3bc"/>
      <use transform="translate(248.291016 0.015625)" xlink:href="#DejaVuSans-29"/>
     </g>
    </g>
   </g>
   <g id="line2d_15">
    <path clip-path="url(#p7a5de51c91)" d="M 144 245.4975 
L 147.132632 249.380544 
L 150.265263 252.882632 
L 153.397895 256.014203 
L 156.530526 258.785693 
L 159.663158 261.20754 
L 162.795789 263.29018 
L 165.928421 265.044051 
L 169.061053 266.47959 
L 172.193684 267.607234 
L 175.326316 268.43742 
L 178.458947 268.980585 
L 181.591579 269.247167 
L 184.724211 269.247601 
L 187.856842 268.992327 
L 190.989474 268.49178 
L 194.122105 267.756398 
L 197.254737 266.796618 
L 200.387368 265.622877 
L 203.52 264.245612 
L 206.652632 262.67526 
L 209.785263 260.922259 
L 214.484211 257.97312 
L 219.183158 254.671728 
L 223.882105 251.053309 
L 228.581053 247.153088 
L 233.28 243.00629 
L 239.545263 237.154545 
L 245.810526 231.01056 
L 255.208421 221.429284 
L 277.136842 198.82944 
L 284.968421 191.19186 
L 291.233684 185.426221 
L 295.932632 181.357701 
L 300.631579 177.5475 
L 305.330526 174.030843 
L 310.029474 170.842955 
L 314.728421 168.019062 
L 317.861053 166.356081 
L 320.993684 164.880968 
L 324.126316 163.60416 
L 327.258947 162.536095 
L 330.391579 161.687209 
L 333.524211 161.06794 
L 336.656842 160.688724 
L 339.789474 160.56 
L 342.922105 160.692204 
L 346.054737 161.095772 
L 349.187368 161.781143 
L 352.32 162.758753 
L 355.452632 164.03904 
L 358.585263 165.63244 
L 361.717895 167.549391 
L 364.850526 169.80033 
L 367.983158 172.395694 
L 371.115789 175.34592 
L 374.248421 178.661445 
L 377.381053 182.352707 
L 378.947368 184.3425 
L 378.947368 184.3425 
" style="fill:none;stroke:#000000;stroke-linecap:square;stroke-width:1.5;"/>
   </g>
   <g id="line2d_16">
    <path clip-path="url(#p7a5de51c91)" d="M 144 378 
L 378.947368 51.84 
L 378.947368 51.84 
" style="fill:none;stroke:#000000;stroke-linecap:square;stroke-width:1.5;"/>
   </g>
   <g id="patch_3">
    <path d="M 144 378 
L 144 51.84 
" style="fill:none;stroke:#000000;stroke-linecap:square;stroke-linejoin:miter;stroke-width:0.8;"/>
   </g>
   <g id="patch_4">
    <path d="M 378.947368 378 
L 378.947368 51.84 
" style="fill:none;stroke:#000000;stroke-linecap:square;stroke-linejoin:miter;stroke-width:0.8;"/>
   </g>
   <g id="patch_5">
    <path d="M 144 378 
L 378.947368 378 
" style="fill:none;stroke:#000000;stroke-linecap:square;stroke-linejoin:miter;stroke-width:0.8;"/>
   </g>
   <g id="patch_6">
    <path d="M 144 51.84 
L 378.947368 51.84 
" style="fill:none;stroke:#000000;stroke-linecap:square;stroke-linejoin:miter;stroke-width:0.8;"/>
   </g>
   <g id="text_17">
    <!-- $\mu = -0.25$ -->
    <g transform="translate(183.157895 84.456)scale(0.1 -0.1)">
     <defs>
      <path d="M 678 2906 
L 4684 2906 
L 4684 2381 
L 678 2381 
L 678 2906 
z
M 678 1631 
L 4684 1631 
L 4684 1100 
L 678 1100 
L 678 1631 
z
" id="DejaVuSans-3d" transform="scale(0.015625)"/>
     </defs>
     <use transform="translate(0 0.78125)" xlink:href="#DejaVuSans-Oblique-3bc"/>
     <use transform="translate(83.105469 0.78125)" xlink:href="#DejaVuSans-3d"/>
     <use transform="translate(205.859375 0.78125)" xlink:href="#DejaVuSans-2212"/>
     <use transform="translate(309.130859 0.78125)" xlink:href="#DejaVuSans-30"/>
     <use transform="translate(372.753906 0.78125)" xlink:href="#DejaVuSans-2e"/>
     <use transform="translate(399.041016 0.78125)" xlink:href="#DejaVuSans-32"/>
     <use transform="translate(462.664062 0.78125)" xlink:href="#DejaVuSans-35"/>
    </g>
   </g>
  </g>
  <g id="axes_2">
   <g id="patch_7">
    <path d="M 472.926316 378 
L 707.873684 378 
L 707.873684 51.84 
L 472.926316 51.84 
z
" style="fill:#ffffff;"/>
   </g>
   <g id="PathCollection_3">
    <g clip-path="url(#p1d7e2dc44a)">
     <use style="stroke:#000000;" x="668.715789" xlink:href="#m7b74622742" y="106.2"/>
     <use style="stroke:#000000;" x="649.136842" xlink:href="#m7b74622742" y="133.38"/>
     <use style="stroke:#000000;" x="640.876974" xlink:href="#m7b74622742" y="144.846563"/>
     <use style="stroke:#000000;" x="635.634681" xlink:href="#m7b74622742" y="152.124049"/>
     <use style="stroke:#000000;" x="631.861949" xlink:href="#m7b74622742" y="157.361452"/>
     <use style="stroke:#000000;" x="628.956652" xlink:href="#m7b74622742" y="161.39466"/>
     <use style="stroke:#000000;" x="626.620295" xlink:href="#m7b74622742" y="164.638052"/>
     <use style="stroke:#000000;" x="624.683439" xlink:href="#m7b74622742" y="167.326845"/>
    </g>
   </g>
   <g id="Quiver_29">
    <path clip-path="url(#p1d7e2dc44a)" d="M 669.596842 106.2 
L 669.596842 125.450526 
L 671.358947 124.569474 
L 668.715789 133.38 
L 666.072632 124.569474 
L 667.834737 125.450526 
L 667.834737 106.2 
L 669.596842 106.2 
"/>
   </g>
   <g id="Quiver_30">
    <path clip-path="url(#p1d7e2dc44a)" d="M 668.715789 134.261053 
L 657.066316 134.261053 
L 657.947368 136.023158 
L 649.136842 133.38 
L 657.947368 130.736842 
L 657.066316 132.498947 
L 668.715789 132.498947 
L 668.715789 134.261053 
"/>
   </g>
   <g id="Quiver_31">
    <path clip-path="url(#p1d7e2dc44a)" d="M 650.017895 133.38 
L 650.017895 136.917089 
L 651.78 136.036036 
L 649.136842 144.846562 
L 646.493684 136.036036 
L 648.255789 136.917089 
L 648.255789 133.38 
L 650.017895 133.38 
"/>
   </g>
   <g id="Quiver_32">
    <path clip-path="url(#p1d7e2dc44a)" d="M 649.136842 145.672549 
L 648.310855 145.672549 
L 649.136842 147.324523 
L 640.876974 144.846563 
L 649.136842 142.368602 
L 648.310855 144.020576 
L 649.136842 144.020576 
L 649.136842 145.672549 
"/>
   </g>
   <g id="Quiver_33">
    <path clip-path="url(#p1d7e2dc44a)" d="M 641.604722 144.846563 
L 641.604722 145.574311 
L 643.06022 144.846563 
L 640.876974 152.124049 
L 638.693728 144.846563 
L 640.149225 145.574311 
L 640.149225 144.846563 
L 641.604722 144.846563 
"/>
   </g>
   <g id="Quiver_34">
    <path clip-path="url(#p1d7e2dc44a)" d="M 640.876974 152.648278 
L 640.352744 152.648278 
L 640.876974 153.696737 
L 635.634681 152.124049 
L 640.876974 150.551361 
L 640.352744 151.599819 
L 640.876974 151.599819 
L 640.876974 152.648278 
"/>
   </g>
   <g id="Quiver_35">
    <path clip-path="url(#p1d7e2dc44a)" d="M 636.158421 152.124049 
L 636.158421 152.647789 
L 637.205902 152.124049 
L 635.634681 157.361452 
L 634.06346 152.124049 
L 635.11094 152.647789 
L 635.11094 152.124049 
L 636.158421 152.124049 
"/>
   </g>
   <g id="Quiver_36">
    <path clip-path="url(#p1d7e2dc44a)" d="M 635.634681 157.738726 
L 635.257408 157.738726 
L 635.634681 158.493272 
L 631.861949 157.361452 
L 635.634681 156.229633 
L 635.257408 156.984179 
L 635.634681 156.984179 
L 635.634681 157.738726 
"/>
   </g>
   <g id="Quiver_37">
    <path clip-path="url(#p1d7e2dc44a)" d="M 632.26527 157.361452 
L 632.26527 157.764773 
L 633.071911 157.361452 
L 631.861949 161.39466 
L 630.651987 157.361452 
L 631.458628 157.764773 
L 631.458628 157.361452 
L 632.26527 157.361452 
"/>
   </g>
   <g id="Quiver_38">
    <path clip-path="url(#p1d7e2dc44a)" d="M 631.861949 161.68519 
L 631.571419 161.68519 
L 631.861949 162.266249 
L 628.956652 161.39466 
L 631.861949 160.523071 
L 631.571419 161.104131 
L 631.861949 161.104131 
L 631.861949 161.68519 
"/>
   </g>
   <g id="Quiver_39">
    <path clip-path="url(#p1d7e2dc44a)" d="M 629.280992 161.39466 
L 629.280992 161.718999 
L 629.92967 161.39466 
L 628.956652 164.638052 
L 627.983635 161.39466 
L 628.632313 161.718999 
L 628.632313 161.39466 
L 629.280992 161.39466 
"/>
   </g>
   <g id="Quiver_40">
    <path clip-path="url(#p1d7e2dc44a)" d="M 628.956652 164.871688 
L 628.723017 164.871688 
L 628.956652 165.338959 
L 626.620295 164.638052 
L 628.956652 163.937145 
L 628.723017 164.404416 
L 628.956652 164.404416 
L 628.956652 164.871688 
"/>
   </g>
   <g id="Quiver_41">
    <path clip-path="url(#p1d7e2dc44a)" d="M 626.889174 164.638052 
L 626.889174 164.906931 
L 627.426933 164.638052 
L 626.620295 167.326845 
L 625.813657 164.638052 
L 626.351415 164.906931 
L 626.351415 164.638052 
L 626.889174 164.638052 
"/>
   </g>
   <g id="Quiver_42">
    <path clip-path="url(#p1d7e2dc44a)" d="M 626.620295 167.520531 
L 626.426609 167.520531 
L 626.620295 167.907902 
L 624.683439 167.326845 
L 626.620295 166.745789 
L 626.426609 167.13316 
L 626.620295 167.13316 
L 626.620295 167.520531 
"/>
   </g>
   <g id="PathCollection_4">
    <g clip-path="url(#p1d7e2dc44a)">
     <use style="stroke:#000000;" x="512.084211" xlink:href="#m7b74622742" y="323.64"/>
     <use style="stroke:#000000;" x="531.663158" xlink:href="#m7b74622742" y="296.46"/>
     <use style="stroke:#000000;" x="539.923026" xlink:href="#m7b74622742" y="284.993437"/>
     <use style="stroke:#000000;" x="545.165319" xlink:href="#m7b74622742" y="277.715951"/>
     <use style="stroke:#000000;" x="548.938051" xlink:href="#m7b74622742" y="272.478548"/>
     <use style="stroke:#000000;" x="551.843348" xlink:href="#m7b74622742" y="268.44534"/>
     <use style="stroke:#000000;" x="554.179705" xlink:href="#m7b74622742" y="265.201948"/>
     <use style="stroke:#000000;" x="556.116561" xlink:href="#m7b74622742" y="262.513155"/>
    </g>
   </g>
   <g id="Quiver_43">
    <path clip-path="url(#p1d7e2dc44a)" d="M 511.203158 323.64 
L 511.203158 304.389474 
L 509.441053 305.270526 
L 512.084211 296.46 
L 514.727368 305.270526 
L 512.965263 304.389474 
L 512.965263 323.64 
L 511.203158 323.64 
"/>
   </g>
   <g id="Quiver_44">
    <path clip-path="url(#p1d7e2dc44a)" d="M 512.084211 295.578947 
L 523.733684 295.578947 
L 522.852632 293.816842 
L 531.663158 296.46 
L 522.852632 299.103158 
L 523.733684 297.341053 
L 512.084211 297.341053 
L 512.084211 295.578947 
"/>
   </g>
   <g id="Quiver_45">
    <path clip-path="url(#p1d7e2dc44a)" d="M 530.782105 296.46 
L 530.782105 292.922911 
L 529.02 293.803964 
L 531.663158 284.993438 
L 534.306316 293.803964 
L 532.544211 292.922911 
L 532.544211 296.46 
L 530.782105 296.46 
"/>
   </g>
   <g id="Quiver_46">
    <path clip-path="url(#p1d7e2dc44a)" d="M 531.663158 284.167451 
L 532.489145 284.167451 
L 531.663158 282.515477 
L 539.923026 284.993437 
L 531.663158 287.471398 
L 532.489145 285.819424 
L 531.663158 285.819424 
L 531.663158 284.167451 
"/>
   </g>
   <g id="Quiver_47">
    <path clip-path="url(#p1d7e2dc44a)" d="M 539.195278 284.993437 
L 539.195278 284.265689 
L 537.73978 284.993437 
L 539.923026 277.715951 
L 542.106272 284.993437 
L 540.650775 284.265689 
L 540.650775 284.993437 
L 539.195278 284.993437 
"/>
   </g>
   <g id="Quiver_48">
    <path clip-path="url(#p1d7e2dc44a)" d="M 539.923026 277.191722 
L 540.447256 277.191722 
L 539.923026 276.143263 
L 545.165319 277.715951 
L 539.923026 279.288639 
L 540.447256 278.240181 
L 539.923026 278.240181 
L 539.923026 277.191722 
"/>
   </g>
   <g id="Quiver_49">
    <path clip-path="url(#p1d7e2dc44a)" d="M 544.641579 277.715951 
L 544.641579 277.192211 
L 543.594098 277.715951 
L 545.165319 272.478548 
L 546.73654 277.715951 
L 545.68906 277.192211 
L 545.68906 277.715951 
L 544.641579 277.715951 
"/>
   </g>
   <g id="Quiver_50">
    <path clip-path="url(#p1d7e2dc44a)" d="M 545.165319 272.101274 
L 545.542592 272.101274 
L 545.165319 271.346728 
L 548.938051 272.478548 
L 545.165319 273.610367 
L 545.542592 272.855821 
L 545.165319 272.855821 
L 545.165319 272.101274 
"/>
   </g>
   <g id="Quiver_51">
    <path clip-path="url(#p1d7e2dc44a)" d="M 548.53473 272.478548 
L 548.53473 272.075227 
L 547.728089 272.478548 
L 548.938051 268.44534 
L 550.148013 272.478548 
L 549.341372 272.075227 
L 549.341372 272.478548 
L 548.53473 272.478548 
"/>
   </g>
   <g id="Quiver_52">
    <path clip-path="url(#p1d7e2dc44a)" d="M 548.938051 268.15481 
L 549.228581 268.15481 
L 548.938051 267.573751 
L 551.843348 268.44534 
L 548.938051 269.316929 
L 549.228581 268.735869 
L 548.938051 268.735869 
L 548.938051 268.15481 
"/>
   </g>
   <g id="Quiver_53">
    <path clip-path="url(#p1d7e2dc44a)" d="M 551.519008 268.44534 
L 551.519008 268.121001 
L 550.87033 268.44534 
L 551.843348 265.201948 
L 552.816365 268.44534 
L 552.167687 268.121001 
L 552.167687 268.44534 
L 551.519008 268.44534 
"/>
   </g>
   <g id="Quiver_54">
    <path clip-path="url(#p1d7e2dc44a)" d="M 551.843348 264.968312 
L 552.076983 264.968312 
L 551.843348 264.501041 
L 554.179705 265.201948 
L 551.843348 265.902855 
L 552.076983 265.435584 
L 551.843348 265.435584 
L 551.843348 264.968312 
"/>
   </g>
   <g id="Quiver_55">
    <path clip-path="url(#p1d7e2dc44a)" d="M 553.910826 265.201948 
L 553.910826 264.933069 
L 553.373067 265.201948 
L 554.179705 262.513155 
L 554.986343 265.201948 
L 554.448585 264.933069 
L 554.448585 265.201948 
L 553.910826 265.201948 
"/>
   </g>
   <g id="Quiver_56">
    <path clip-path="url(#p1d7e2dc44a)" d="M 554.179705 262.319469 
L 554.373391 262.319469 
L 554.179705 261.932098 
L 556.116561 262.513155 
L 554.179705 263.094211 
L 554.373391 262.70684 
L 554.179705 262.70684 
L 554.179705 262.319469 
"/>
   </g>
   <g id="matplotlib.axis_3">
    <g id="xtick_8">
     <g id="line2d_17">
      <g>
       <use style="stroke:#000000;stroke-width:0.8;" x="472.926316" xlink:href="#m586f40c7dc" y="378"/>
      </g>
     </g>
     <g id="text_18">
      <!-- −0.75 -->
      <g transform="translate(457.60366 392.598437)scale(0.1 -0.1)">
       <use xlink:href="#DejaVuSans-2212"/>
       <use x="83.789062" xlink:href="#DejaVuSans-30"/>
       <use x="147.412109" xlink:href="#DejaVuSans-2e"/>
       <use x="179.199219" xlink:href="#DejaVuSans-37"/>
       <use x="242.822266" xlink:href="#DejaVuSans-35"/>
      </g>
     </g>
    </g>
    <g id="xtick_9">
     <g id="line2d_18">
      <g>
       <use style="stroke:#000000;stroke-width:0.8;" x="512.084211" xlink:href="#m586f40c7dc" y="378"/>
      </g>
     </g>
     <g id="text_19">
      <!-- −0.50 -->
      <g transform="translate(496.761554 392.598437)scale(0.1 -0.1)">
       <use xlink:href="#DejaVuSans-2212"/>
       <use x="83.789062" xlink:href="#DejaVuSans-30"/>
       <use x="147.412109" xlink:href="#DejaVuSans-2e"/>
       <use x="179.199219" xlink:href="#DejaVuSans-35"/>
       <use x="242.822266" xlink:href="#DejaVuSans-30"/>
      </g>
     </g>
    </g>
    <g id="xtick_10">
     <g id="line2d_19">
      <g>
       <use style="stroke:#000000;stroke-width:0.8;" x="551.242105" xlink:href="#m586f40c7dc" y="378"/>
      </g>
     </g>
     <g id="text_20">
      <!-- −0.25 -->
      <g transform="translate(535.919449 392.598437)scale(0.1 -0.1)">
       <use xlink:href="#DejaVuSans-2212"/>
       <use x="83.789062" xlink:href="#DejaVuSans-30"/>
       <use x="147.412109" xlink:href="#DejaVuSans-2e"/>
       <use x="179.199219" xlink:href="#DejaVuSans-32"/>
       <use x="242.822266" xlink:href="#DejaVuSans-35"/>
      </g>
     </g>
    </g>
    <g id="xtick_11">
     <g id="line2d_20">
      <g>
       <use style="stroke:#000000;stroke-width:0.8;" x="590.4" xlink:href="#m586f40c7dc" y="378"/>
      </g>
     </g>
     <g id="text_21">
      <!-- 0.00 -->
      <g transform="translate(579.267188 392.598437)scale(0.1 -0.1)">
       <use xlink:href="#DejaVuSans-30"/>
       <use x="63.623047" xlink:href="#DejaVuSans-2e"/>
       <use x="95.410156" xlink:href="#DejaVuSans-30"/>
       <use x="159.033203" xlink:href="#DejaVuSans-30"/>
      </g>
     </g>
    </g>
    <g id="xtick_12">
     <g id="line2d_21">
      <g>
       <use style="stroke:#000000;stroke-width:0.8;" x="629.557895" xlink:href="#m586f40c7dc" y="378"/>
      </g>
     </g>
     <g id="text_22">
      <!-- 0.25 -->
      <g transform="translate(618.425082 392.598437)scale(0.1 -0.1)">
       <use xlink:href="#DejaVuSans-30"/>
       <use x="63.623047" xlink:href="#DejaVuSans-2e"/>
       <use x="95.410156" xlink:href="#DejaVuSans-32"/>
       <use x="159.033203" xlink:href="#DejaVuSans-35"/>
      </g>
     </g>
    </g>
    <g id="xtick_13">
     <g id="line2d_22">
      <g>
       <use style="stroke:#000000;stroke-width:0.8;" x="668.715789" xlink:href="#m586f40c7dc" y="378"/>
      </g>
     </g>
     <g id="text_23">
      <!-- 0.50 -->
      <g transform="translate(657.582977 392.598437)scale(0.1 -0.1)">
       <use xlink:href="#DejaVuSans-30"/>
       <use x="63.623047" xlink:href="#DejaVuSans-2e"/>
       <use x="95.410156" xlink:href="#DejaVuSans-35"/>
       <use x="159.033203" xlink:href="#DejaVuSans-30"/>
      </g>
     </g>
    </g>
    <g id="xtick_14">
     <g id="line2d_23">
      <g>
       <use style="stroke:#000000;stroke-width:0.8;" x="707.873684" xlink:href="#m586f40c7dc" y="378"/>
      </g>
     </g>
     <g id="text_24">
      <!-- 0.75 -->
      <g transform="translate(696.740872 392.598437)scale(0.1 -0.1)">
       <use xlink:href="#DejaVuSans-30"/>
       <use x="63.623047" xlink:href="#DejaVuSans-2e"/>
       <use x="95.410156" xlink:href="#DejaVuSans-37"/>
       <use x="159.033203" xlink:href="#DejaVuSans-35"/>
      </g>
     </g>
    </g>
    <g id="text_25">
     <!-- $x$ -->
     <g transform="translate(587.4 406.276563)scale(0.1 -0.1)">
      <use transform="translate(0 0.3125)" xlink:href="#DejaVuSans-Oblique-78"/>
     </g>
    </g>
   </g>
   <g id="matplotlib.axis_4">
    <g id="ytick_8">
     <g id="line2d_24">
      <g>
       <use style="stroke:#000000;stroke-width:0.8;" x="472.926316" xlink:href="#mc4ab1a0497" y="345.384"/>
      </g>
     </g>
     <g id="text_26">
      <!-- −0.6 -->
      <g transform="translate(441.643503 349.183219)scale(0.1 -0.1)">
       <use xlink:href="#DejaVuSans-2212"/>
       <use x="83.789062" xlink:href="#DejaVuSans-30"/>
       <use x="147.412109" xlink:href="#DejaVuSans-2e"/>
       <use x="179.199219" xlink:href="#DejaVuSans-36"/>
      </g>
     </g>
    </g>
    <g id="ytick_9">
     <g id="line2d_25">
      <g>
       <use style="stroke:#000000;stroke-width:0.8;" x="472.926316" xlink:href="#mc4ab1a0497" y="301.896"/>
      </g>
     </g>
     <g id="text_27">
      <!-- −0.4 -->
      <g transform="translate(441.643503 305.695219)scale(0.1 -0.1)">
       <use xlink:href="#DejaVuSans-2212"/>
       <use x="83.789062" xlink:href="#DejaVuSans-30"/>
       <use x="147.412109" xlink:href="#DejaVuSans-2e"/>
       <use x="179.199219" xlink:href="#DejaVuSans-34"/>
      </g>
     </g>
    </g>
    <g id="ytick_10">
     <g id="line2d_26">
      <g>
       <use style="stroke:#000000;stroke-width:0.8;" x="472.926316" xlink:href="#mc4ab1a0497" y="258.408"/>
      </g>
     </g>
     <g id="text_28">
      <!-- −0.2 -->
      <g transform="translate(441.643503 262.207219)scale(0.1 -0.1)">
       <use xlink:href="#DejaVuSans-2212"/>
       <use x="83.789062" xlink:href="#DejaVuSans-30"/>
       <use x="147.412109" xlink:href="#DejaVuSans-2e"/>
       <use x="179.199219" xlink:href="#DejaVuSans-32"/>
      </g>
     </g>
    </g>
    <g id="ytick_11">
     <g id="line2d_27">
      <g>
       <use style="stroke:#000000;stroke-width:0.8;" x="472.926316" xlink:href="#mc4ab1a0497" y="214.92"/>
      </g>
     </g>
     <g id="text_29">
      <!-- 0.0 -->
      <g transform="translate(450.023191 218.719219)scale(0.1 -0.1)">
       <use xlink:href="#DejaVuSans-30"/>
       <use x="63.623047" xlink:href="#DejaVuSans-2e"/>
       <use x="95.410156" xlink:href="#DejaVuSans-30"/>
      </g>
     </g>
    </g>
    <g id="ytick_12">
     <g id="line2d_28">
      <g>
       <use style="stroke:#000000;stroke-width:0.8;" x="472.926316" xlink:href="#mc4ab1a0497" y="171.432"/>
      </g>
     </g>
     <g id="text_30">
      <!-- 0.2 -->
      <g transform="translate(450.023191 175.231219)scale(0.1 -0.1)">
       <use xlink:href="#DejaVuSans-30"/>
       <use x="63.623047" xlink:href="#DejaVuSans-2e"/>
       <use x="95.410156" xlink:href="#DejaVuSans-32"/>
      </g>
     </g>
    </g>
    <g id="ytick_13">
     <g id="line2d_29">
      <g>
       <use style="stroke:#000000;stroke-width:0.8;" x="472.926316" xlink:href="#mc4ab1a0497" y="127.944"/>
      </g>
     </g>
     <g id="text_31">
      <!-- 0.4 -->
      <g transform="translate(450.023191 131.743219)scale(0.1 -0.1)">
       <use xlink:href="#DejaVuSans-30"/>
       <use x="63.623047" xlink:href="#DejaVuSans-2e"/>
       <use x="95.410156" xlink:href="#DejaVuSans-34"/>
      </g>
     </g>
    </g>
    <g id="ytick_14">
     <g id="line2d_30">
      <g>
       <use style="stroke:#000000;stroke-width:0.8;" x="472.926316" xlink:href="#mc4ab1a0497" y="84.456"/>
      </g>
     </g>
     <g id="text_32">
      <!-- 0.6 -->
      <g transform="translate(450.023191 88.255219)scale(0.1 -0.1)">
       <use xlink:href="#DejaVuSans-30"/>
       <use x="63.623047" xlink:href="#DejaVuSans-2e"/>
       <use x="95.410156" xlink:href="#DejaVuSans-36"/>
      </g>
     </g>
    </g>
    <g id="text_33">
     <!-- $f(x, \mu)$ -->
     <g transform="translate(435.543503 229.32)rotate(-90)scale(0.1 -0.1)">
      <use transform="translate(0 0.015625)" xlink:href="#DejaVuSans-Oblique-66"/>
      <use transform="translate(35.205078 0.015625)" xlink:href="#DejaVuSans-28"/>
      <use transform="translate(74.21875 0.015625)" xlink:href="#DejaVuSans-Oblique-78"/>
      <use transform="translate(133.398438 0.015625)" xlink:href="#DejaVuSans-2c"/>
      <use transform="translate(184.667969 0.015625)" xlink:href="#DejaVuSans-Oblique-3bc"/>
      <use transform="translate(248.291016 0.015625)" xlink:href="#DejaVuSans-29"/>
     </g>
    </g>
   </g>
   <g id="line2d_31">
    <path clip-path="url(#p1d7e2dc44a)" d="M 472.926316 286.2675 
L 476.058947 289.063344 
L 479.191579 291.478232 
L 482.324211 293.522603 
L 485.456842 295.206893 
L 488.589474 296.54154 
L 491.722105 297.53698 
L 494.854737 298.203651 
L 497.987368 298.55199 
L 501.12 298.592434 
L 504.252632 298.33542 
L 507.385263 297.791385 
L 510.517895 296.970767 
L 513.650526 295.884001 
L 516.783158 294.541527 
L 519.915789 292.95378 
L 523.048421 291.131198 
L 526.181053 289.084218 
L 529.313684 286.823277 
L 532.446316 284.358812 
L 537.145263 280.303338 
L 541.844211 275.848645 
L 546.543158 271.029957 
L 551.242105 265.8825 
L 555.941053 260.441499 
L 562.206316 252.79109 
L 568.471579 244.764945 
L 576.303158 234.331086 
L 587.267368 219.26706 
L 604.496842 195.508914 
L 612.328421 185.075055 
L 618.593684 177.04891 
L 624.858947 169.398501 
L 629.557895 163.9575 
L 634.256842 158.810043 
L 638.955789 153.991355 
L 643.654737 149.536662 
L 648.353684 145.481188 
L 651.486316 143.016723 
L 654.618947 140.755782 
L 657.751579 138.708802 
L 660.884211 136.88622 
L 664.016842 135.298473 
L 667.149474 133.955999 
L 670.282105 132.869233 
L 673.414737 132.048615 
L 676.547368 131.50458 
L 679.68 131.247566 
L 682.812632 131.28801 
L 685.945263 131.636349 
L 689.077895 132.30302 
L 692.210526 133.29846 
L 695.343158 134.633107 
L 698.475789 136.317397 
L 701.608421 138.361768 
L 704.741053 140.776656 
L 707.873684 143.5725 
L 707.873684 143.5725 
" style="fill:none;stroke:#000000;stroke-linecap:square;stroke-width:1.5;"/>
   </g>
   <g id="line2d_32">
    <path clip-path="url(#p1d7e2dc44a)" d="M 472.926316 378 
L 707.873684 51.84 
L 707.873684 51.84 
" style="fill:none;stroke:#000000;stroke-linecap:square;stroke-width:1.5;"/>
   </g>
   <g id="patch_8">
    <path d="M 472.926316 378 
L 472.926316 51.84 
" style="fill:none;stroke:#000000;stroke-linecap:square;stroke-linejoin:miter;stroke-width:0.8;"/>
   </g>
   <g id="patch_9">
    <path d="M 707.873684 378 
L 707.873684 51.84 
" style="fill:none;stroke:#000000;stroke-linecap:square;stroke-linejoin:miter;stroke-width:0.8;"/>
   </g>
   <g id="patch_10">
    <path d="M 472.926316 378 
L 707.873684 378 
" style="fill:none;stroke:#000000;stroke-linecap:square;stroke-linejoin:miter;stroke-width:0.8;"/>
   </g>
   <g id="patch_11">
    <path d="M 472.926316 51.84 
L 707.873684 51.84 
" style="fill:none;stroke:#000000;stroke-linecap:square;stroke-linejoin:miter;stroke-width:0.8;"/>
   </g>
   <g id="text_34">
    <!-- $\mu = 0.0$ -->
    <g transform="translate(512.084211 84.456)scale(0.1 -0.1)">
     <use transform="translate(0 0.78125)" xlink:href="#DejaVuSans-Oblique-3bc"/>
     <use transform="translate(83.105469 0.78125)" xlink:href="#DejaVuSans-3d"/>
     <use transform="translate(186.376953 0.78125)" xlink:href="#DejaVuSans-30"/>
     <use transform="translate(250 0.78125)" xlink:href="#DejaVuSans-2e"/>
     <use transform="translate(281.787109 0.78125)" xlink:href="#DejaVuSans-30"/>
    </g>
   </g>
  </g>
  <g id="axes_3">
   <g id="patch_12">
    <path d="M 801.852632 378 
L 1036.8 378 
L 1036.8 51.84 
L 801.852632 51.84 
z
" style="fill:#ffffff;"/>
   </g>
   <g id="PathCollection_5">
    <g clip-path="url(#pb541e72a5b)">
     <use style="stroke:#000000;" x="1005.473684" xlink:href="#m7b74622742" y="95.328"/>
     <use style="stroke:#000000;" x="1000.950947" xlink:href="#m7b74622742" y="101.60658"/>
     <use style="stroke:#000000;" x="999.190201" xlink:href="#m7b74622742" y="104.050894"/>
     <use style="stroke:#000000;" x="998.39305" xlink:href="#m7b74622742" y="105.157518"/>
     <use style="stroke:#000000;" x="998.01216" xlink:href="#m7b74622742" y="105.68628"/>
     <use style="stroke:#000000;" x="997.825819" xlink:href="#m7b74622742" y="105.944964"/>
     <use style="stroke:#000000;" x="997.733639" xlink:href="#m7b74622742" y="106.072931"/>
     <use style="stroke:#000000;" x="997.687792" xlink:href="#m7b74622742" y="106.136577"/>
    </g>
   </g>
   <g id="Quiver_57">
    <path clip-path="url(#pb541e72a5b)" d="M 1006.101542 95.328 
L 1006.101542 95.955858 
L 1007.357258 95.328 
L 1005.473684 101.60658 
L 1003.59011 95.328 
L 1004.845826 95.955858 
L 1004.845826 95.328 
L 1006.101542 95.328 
"/>
   </g>
   <g id="Quiver_58">
    <path clip-path="url(#pb541e72a5b)" d="M 1005.473684 102.058854 
L 1005.021411 102.058854 
L 1005.473684 102.963401 
L 1000.950947 101.60658 
L 1005.473684 100.249759 
L 1005.021411 101.154306 
L 1005.473684 101.154306 
L 1005.473684 102.058854 
"/>
   </g>
   <g id="Quiver_59">
    <path clip-path="url(#pb541e72a5b)" d="M 1001.195379 101.60658 
L 1001.195379 101.851011 
L 1001.684242 101.60658 
L 1000.950947 104.050894 
L 1000.217653 101.60658 
L 1000.706516 101.851011 
L 1000.706516 101.60658 
L 1001.195379 101.60658 
"/>
   </g>
   <g id="Quiver_60">
    <path clip-path="url(#pb541e72a5b)" d="M 1000.069895 104.050894 
L 1000.510421 104.813908 
L 1001.391474 104.813908 
L 1001.832 104.050894 
L 1001.391474 103.28788 
L 1000.510421 103.28788 
L 1000.069895 104.050894 
L 1000.510421 104.813908 
"/>
   </g>
   <g id="Quiver_61">
    <path clip-path="url(#pb541e72a5b)" d="M 999.190201 104.931947 
L 999.953215 104.49142 
L 999.953215 103.610368 
L 999.190201 103.169841 
L 998.427187 103.610368 
L 998.427187 104.49142 
L 999.190201 104.931947 
L 999.953215 104.49142 
"/>
   </g>
   <g id="Quiver_62">
    <path clip-path="url(#pb541e72a5b)" d="M 998.309148 105.157518 
L 998.749674 105.920532 
L 999.630727 105.920532 
L 1000.071253 105.157518 
L 999.630727 104.394505 
L 998.749674 104.394505 
L 998.309148 105.157518 
L 998.749674 105.920532 
"/>
   </g>
   <g id="Quiver_63">
    <path clip-path="url(#pb541e72a5b)" d="M 998.39305 106.038571 
L 999.156064 105.598045 
L 999.156064 104.716992 
L 998.39305 104.276466 
L 997.630037 104.716992 
L 997.630037 105.598045 
L 998.39305 106.038571 
L 999.156064 105.598045 
"/>
   </g>
   <g id="Quiver_64">
    <path clip-path="url(#pb541e72a5b)" d="M 997.511998 105.68628 
L 997.952524 106.449294 
L 998.833577 106.449294 
L 999.274103 105.68628 
L 998.833577 104.923266 
L 997.952524 104.923266 
L 997.511998 105.68628 
L 997.952524 106.449294 
"/>
   </g>
   <g id="Quiver_65">
    <path clip-path="url(#pb541e72a5b)" d="M 998.01216 106.567333 
L 998.775174 106.126807 
L 998.775174 105.245754 
L 998.01216 104.805228 
L 997.249146 105.245754 
L 997.249146 106.126807 
L 998.01216 106.567333 
L 998.775174 106.126807 
"/>
   </g>
   <g id="Quiver_66">
    <path clip-path="url(#pb541e72a5b)" d="M 997.131108 105.944964 
L 997.571634 106.707977 
L 998.452686 106.707977 
L 998.893213 105.944964 
L 998.452686 105.18195 
L 997.571634 105.18195 
L 997.131108 105.944964 
L 997.571634 106.707977 
"/>
   </g>
   <g id="Quiver_67">
    <path clip-path="url(#pb541e72a5b)" d="M 997.825819 106.826016 
L 998.588833 106.38549 
L 998.588833 105.504437 
L 997.825819 105.063911 
L 997.062805 105.504437 
L 997.062805 106.38549 
L 997.825819 106.826016 
L 998.588833 106.38549 
"/>
   </g>
   <g id="Quiver_68">
    <path clip-path="url(#pb541e72a5b)" d="M 996.944767 106.072931 
L 997.385293 106.835945 
L 998.266346 106.835945 
L 998.706872 106.072931 
L 998.266346 105.309917 
L 997.385293 105.309917 
L 996.944767 106.072931 
L 997.385293 106.835945 
"/>
   </g>
   <g id="Quiver_69">
    <path clip-path="url(#pb541e72a5b)" d="M 997.733639 106.953983 
L 998.496653 106.513457 
L 998.496653 105.632405 
L 997.733639 105.191878 
L 996.970625 105.632405 
L 996.970625 106.513457 
L 997.733639 106.953983 
L 998.496653 106.513457 
"/>
   </g>
   <g id="Quiver_70">
    <path clip-path="url(#pb541e72a5b)" d="M 996.852586 106.136577 
L 997.293112 106.899591 
L 998.174165 106.899591 
L 998.614691 106.136577 
L 998.174165 105.373563 
L 997.293112 105.373563 
L 996.852586 106.136577 
L 997.293112 106.899591 
"/>
   </g>
   <g id="PathCollection_6">
    <g clip-path="url(#pb541e72a5b)">
     <use style="stroke:#000000;" x="942.821053" xlink:href="#m7b74622742" y="182.304"/>
     <use style="stroke:#000000;" x="948.166105" xlink:href="#m7b74622742" y="174.88386"/>
     <use style="stroke:#000000;" x="954.398326" xlink:href="#m7b74622742" y="166.232131"/>
     <use style="stroke:#000000;" x="961.407905" xlink:href="#m7b74622742" y="156.501251"/>
     <use style="stroke:#000000;" x="968.890792" xlink:href="#m7b74622742" y="146.113315"/>
     <use style="stroke:#000000;" x="976.318813" xlink:href="#m7b74622742" y="135.801545"/>
     <use style="stroke:#000000;" x="983.021326" xlink:href="#m7b74622742" y="126.496943"/>
     <use style="stroke:#000000;" x="988.411945" xlink:href="#m7b74622742" y="119.013546"/>
    </g>
   </g>
   <g id="Quiver_71">
    <path clip-path="url(#pb541e72a5b)" d="M 942.079039 182.304 
L 942.079039 181.561986 
L 940.595011 182.304 
L 942.821053 174.88386 
L 945.047095 182.304 
L 943.563067 181.561986 
L 943.563067 182.304 
L 942.079039 182.304 
"/>
   </g>
   <g id="Quiver_72">
    <path clip-path="url(#pb541e72a5b)" d="M 942.821053 174.349355 
L 943.355558 174.349355 
L 942.821053 173.280344 
L 948.166105 174.88386 
L 942.821053 176.487376 
L 943.355558 175.418365 
L 942.821053 175.418365 
L 942.821053 174.349355 
"/>
   </g>
   <g id="Quiver_73">
    <path clip-path="url(#pb541e72a5b)" d="M 947.300932 174.88386 
L 947.300932 174.018687 
L 945.570587 174.88386 
L 948.166105 166.232131 
L 950.761624 174.88386 
L 949.031278 174.018687 
L 949.031278 174.88386 
L 947.300932 174.88386 
"/>
   </g>
   <g id="Quiver_74">
    <path clip-path="url(#pb541e72a5b)" d="M 948.166105 165.608909 
L 948.789327 165.608909 
L 948.166105 164.362465 
L 954.398326 166.232131 
L 948.166105 168.101797 
L 948.789327 166.855353 
L 948.166105 166.855353 
L 948.166105 165.608909 
"/>
   </g>
   <g id="Quiver_75">
    <path clip-path="url(#pb541e72a5b)" d="M 953.517273 166.232131 
L 953.517273 164.430725 
L 951.755168 165.311778 
L 954.398326 156.501251 
L 957.041484 165.311778 
L 955.279378 164.430725 
L 955.279378 166.232131 
L 953.517273 166.232131 
"/>
   </g>
   <g id="Quiver_76">
    <path clip-path="url(#pb541e72a5b)" d="M 954.398326 155.800294 
L 955.099284 155.800294 
L 954.398326 154.398378 
L 961.407905 156.501251 
L 954.398326 158.604125 
L 955.099284 157.202209 
L 954.398326 157.202209 
L 954.398326 155.800294 
"/>
   </g>
   <g id="Quiver_77">
    <path clip-path="url(#pb541e72a5b)" d="M 960.526853 156.501251 
L 960.526853 154.042788 
L 958.764747 154.923841 
L 961.407905 146.113315 
L 964.051063 154.923841 
L 962.288958 154.042788 
L 962.288958 156.501251 
L 960.526853 156.501251 
"/>
   </g>
   <g id="Quiver_78">
    <path clip-path="url(#pb541e72a5b)" d="M 961.407905 145.365026 
L 962.156194 145.365026 
L 961.407905 143.868448 
L 968.890792 146.113315 
L 961.407905 148.358181 
L 962.156194 146.861603 
L 961.407905 146.861603 
L 961.407905 145.365026 
"/>
   </g>
   <g id="Quiver_79">
    <path clip-path="url(#pb541e72a5b)" d="M 968.00974 146.113315 
L 968.00974 143.731019 
L 966.247634 144.612071 
L 968.890792 135.801545 
L 971.53395 144.612071 
L 969.771845 143.731019 
L 969.771845 146.113315 
L 968.00974 146.113315 
"/>
   </g>
   <g id="Quiver_80">
    <path clip-path="url(#pb541e72a5b)" d="M 968.890792 135.058743 
L 969.633594 135.058743 
L 968.890792 133.573139 
L 976.318813 135.801545 
L 968.890792 138.029951 
L 969.633594 136.544347 
L 968.890792 136.544347 
L 968.890792 135.058743 
"/>
   </g>
   <g id="Quiver_81">
    <path clip-path="url(#pb541e72a5b)" d="M 975.43776 135.801545 
L 975.43776 134.426417 
L 973.675655 135.307469 
L 976.318813 126.496943 
L 978.961971 135.307469 
L 977.199865 134.426417 
L 977.199865 135.801545 
L 975.43776 135.801545 
"/>
   </g>
   <g id="Quiver_82">
    <path clip-path="url(#pb541e72a5b)" d="M 976.318813 125.826692 
L 976.989064 125.826692 
L 976.318813 124.486189 
L 983.021326 126.496943 
L 976.318813 128.507697 
L 976.989064 127.167194 
L 976.318813 127.167194 
L 976.318813 125.826692 
"/>
   </g>
   <g id="Quiver_83">
    <path clip-path="url(#pb541e72a5b)" d="M 982.272986 126.496943 
L 982.272986 125.748603 
L 980.776307 126.496943 
L 983.021326 119.013546 
L 985.266345 126.496943 
L 983.769666 125.748603 
L 983.769666 126.496943 
L 982.272986 126.496943 
"/>
   </g>
   <g id="Quiver_84">
    <path clip-path="url(#pb541e72a5b)" d="M 983.021326 118.474484 
L 983.560388 118.474484 
L 983.021326 117.396361 
L 988.411945 119.013546 
L 983.021326 120.630732 
L 983.560388 119.552608 
L 983.021326 119.552608 
L 983.021326 118.474484 
"/>
   </g>
   <g id="PathCollection_7">
    <g clip-path="url(#pb541e72a5b)">
     <use style="stroke:#000000;" x="895.831579" xlink:href="#m7b74622742" y="247.536"/>
     <use style="stroke:#000000;" x="890.486526" xlink:href="#m7b74622742" y="254.95614"/>
     <use style="stroke:#000000;" x="884.254306" xlink:href="#m7b74622742" y="263.607869"/>
     <use style="stroke:#000000;" x="877.244726" xlink:href="#m7b74622742" y="273.338749"/>
     <use style="stroke:#000000;" x="869.761839" xlink:href="#m7b74622742" y="283.726685"/>
     <use style="stroke:#000000;" x="862.333819" xlink:href="#m7b74622742" y="294.038455"/>
     <use style="stroke:#000000;" x="855.631305" xlink:href="#m7b74622742" y="303.343057"/>
     <use style="stroke:#000000;" x="850.240686" xlink:href="#m7b74622742" y="310.826454"/>
    </g>
   </g>
   <g id="Quiver_85">
    <path clip-path="url(#pb541e72a5b)" d="M 896.573593 247.536 
L 896.573593 248.278014 
L 898.057621 247.536 
L 895.831579 254.95614 
L 893.605537 247.536 
L 895.089565 248.278014 
L 895.089565 247.536 
L 896.573593 247.536 
"/>
   </g>
   <g id="Quiver_86">
    <path clip-path="url(#pb541e72a5b)" d="M 895.831579 255.490645 
L 895.297074 255.490645 
L 895.831579 256.559656 
L 890.486526 254.95614 
L 895.831579 253.352624 
L 895.297074 254.421635 
L 895.831579 254.421635 
L 895.831579 255.490645 
"/>
   </g>
   <g id="Quiver_87">
    <path clip-path="url(#pb541e72a5b)" d="M 891.351699 254.95614 
L 891.351699 255.821313 
L 893.082045 254.95614 
L 890.486526 263.607869 
L 887.891008 254.95614 
L 889.621353 255.821313 
L 889.621353 254.95614 
L 891.351699 254.95614 
"/>
   </g>
   <g id="Quiver_88">
    <path clip-path="url(#pb541e72a5b)" d="M 890.486526 264.231091 
L 889.863304 264.231091 
L 890.486526 265.477535 
L 884.254306 263.607869 
L 890.486526 261.738203 
L 889.863304 262.984647 
L 890.486526 262.984647 
L 890.486526 264.231091 
"/>
   </g>
   <g id="Quiver_89">
    <path clip-path="url(#pb541e72a5b)" d="M 885.135359 263.607869 
L 885.135359 265.409275 
L 886.897464 264.528222 
L 884.254306 273.338749 
L 881.611148 264.528222 
L 883.373253 265.409275 
L 883.373253 263.607869 
L 885.135359 263.607869 
"/>
   </g>
   <g id="Quiver_90">
    <path clip-path="url(#pb541e72a5b)" d="M 884.254306 274.039706 
L 883.553348 274.039706 
L 884.254306 275.441622 
L 877.244726 273.338749 
L 884.254306 271.235875 
L 883.553348 272.637791 
L 884.254306 272.637791 
L 884.254306 274.039706 
"/>
   </g>
   <g id="Quiver_91">
    <path clip-path="url(#pb541e72a5b)" d="M 878.125779 273.338749 
L 878.125779 275.797212 
L 879.887884 274.916159 
L 877.244726 283.726685 
L 874.601568 274.916159 
L 876.363674 275.797212 
L 876.363674 273.338749 
L 878.125779 273.338749 
"/>
   </g>
   <g id="Quiver_92">
    <path clip-path="url(#pb541e72a5b)" d="M 877.244726 284.474974 
L 876.496438 284.474974 
L 877.244726 285.971552 
L 869.761839 283.726685 
L 877.244726 281.481819 
L 876.496438 282.978397 
L 877.244726 282.978397 
L 877.244726 284.474974 
"/>
   </g>
   <g id="Quiver_93">
    <path clip-path="url(#pb541e72a5b)" d="M 870.642892 283.726685 
L 870.642892 286.108981 
L 872.404997 285.227929 
L 869.761839 294.038455 
L 867.118681 285.227929 
L 868.880787 286.108981 
L 868.880787 283.726685 
L 870.642892 283.726685 
"/>
   </g>
   <g id="Quiver_94">
    <path clip-path="url(#pb541e72a5b)" d="M 869.761839 294.781257 
L 869.019037 294.781257 
L 869.761839 296.266861 
L 862.333819 294.038455 
L 869.761839 291.810049 
L 869.019037 293.295653 
L 869.761839 293.295653 
L 869.761839 294.781257 
"/>
   </g>
   <g id="Quiver_95">
    <path clip-path="url(#pb541e72a5b)" d="M 863.214871 294.038455 
L 863.214871 295.413583 
L 864.976977 294.532531 
L 862.333819 303.343057 
L 859.690661 294.532531 
L 861.452766 295.413583 
L 861.452766 294.038455 
L 863.214871 294.038455 
"/>
   </g>
   <g id="Quiver_96">
    <path clip-path="url(#pb541e72a5b)" d="M 862.333819 304.013308 
L 861.663568 304.013308 
L 862.333819 305.353811 
L 855.631305 303.343057 
L 862.333819 301.332303 
L 861.663568 302.672806 
L 862.333819 302.672806 
L 862.333819 304.013308 
"/>
   </g>
   <g id="Quiver_97">
    <path clip-path="url(#pb541e72a5b)" d="M 856.379645 303.343057 
L 856.379645 304.091397 
L 857.876324 303.343057 
L 855.631305 310.826454 
L 853.386286 303.343057 
L 854.882966 304.091397 
L 854.882966 303.343057 
L 856.379645 303.343057 
"/>
   </g>
   <g id="Quiver_98">
    <path clip-path="url(#pb541e72a5b)" d="M 855.631305 311.365516 
L 855.092244 311.365516 
L 855.631305 312.443639 
L 850.240686 310.826454 
L 855.631305 309.209268 
L 855.092244 310.287392 
L 855.631305 310.287392 
L 855.631305 311.365516 
"/>
   </g>
   <g id="PathCollection_8">
    <g clip-path="url(#pb541e72a5b)">
     <use style="stroke:#000000;" x="825.347368" xlink:href="#m7b74622742" y="345.384"/>
     <use style="stroke:#000000;" x="835.685053" xlink:href="#m7b74622742" y="331.03296"/>
     <use style="stroke:#000000;" x="838.625545" xlink:href="#m7b74622742" y="326.950893"/>
     <use style="stroke:#000000;" x="839.873062" xlink:href="#m7b74622742" y="325.219058"/>
     <use style="stroke:#000000;" x="840.454244" xlink:href="#m7b74622742" y="324.412245"/>
     <use style="stroke:#000000;" x="840.735356" xlink:href="#m7b74622742" y="324.021999"/>
     <use style="stroke:#000000;" x="840.873667" xlink:href="#m7b74622742" y="323.829992"/>
     <use style="stroke:#000000;" x="840.942276" xlink:href="#m7b74622742" y="323.734747"/>
    </g>
   </g>
   <g id="Quiver_99">
    <path clip-path="url(#pb541e72a5b)" d="M 824.466316 345.384 
L 824.466316 338.962434 
L 822.704211 339.843486 
L 825.347368 331.03296 
L 827.990526 339.843486 
L 826.228421 338.962434 
L 826.228421 345.384 
L 824.466316 345.384 
"/>
   </g>
   <g id="Quiver_100">
    <path clip-path="url(#pb541e72a5b)" d="M 825.347368 330.151907 
L 827.755579 330.151907 
L 826.874526 328.389802 
L 835.685053 331.03296 
L 826.874526 333.676118 
L 827.755579 331.914013 
L 825.347368 331.914013 
L 825.347368 330.151907 
"/>
   </g>
   <g id="Quiver_101">
    <path clip-path="url(#pb541e72a5b)" d="M 835.276846 331.03296 
L 835.276846 330.624753 
L 834.460432 331.03296 
L 835.685053 326.950893 
L 836.909673 331.03296 
L 836.093259 330.624753 
L 836.093259 331.03296 
L 835.276846 331.03296 
"/>
   </g>
   <g id="Quiver_102">
    <path clip-path="url(#pb541e72a5b)" d="M 835.685053 326.656844 
L 835.979102 326.656844 
L 835.685053 326.068745 
L 838.625545 326.950893 
L 835.685053 327.83304 
L 835.979102 327.244942 
L 835.685053 327.244942 
L 835.685053 326.656844 
"/>
   </g>
   <g id="Quiver_103">
    <path clip-path="url(#pb541e72a5b)" d="M 838.625545 326.06984 
L 837.862531 326.510366 
L 837.862531 327.391419 
L 838.625545 327.831945 
L 839.388559 327.391419 
L 839.388559 326.510366 
L 838.625545 326.06984 
L 837.862531 326.510366 
"/>
   </g>
   <g id="Quiver_104">
    <path clip-path="url(#pb541e72a5b)" d="M 839.506598 325.219058 
L 839.066071 324.456044 
L 838.185019 324.456044 
L 837.744492 325.219058 
L 838.185019 325.982072 
L 839.066071 325.982072 
L 839.506598 325.219058 
L 839.066071 324.456044 
"/>
   </g>
   <g id="Quiver_105">
    <path clip-path="url(#pb541e72a5b)" d="M 839.873062 324.338005 
L 839.110048 324.778531 
L 839.110048 325.659584 
L 839.873062 326.10011 
L 840.636076 325.659584 
L 840.636076 324.778531 
L 839.873062 324.338005 
L 839.110048 324.778531 
"/>
   </g>
   <g id="Quiver_106">
    <path clip-path="url(#pb541e72a5b)" d="M 840.754114 324.412245 
L 840.313588 323.649231 
L 839.432535 323.649231 
L 838.992009 324.412245 
L 839.432535 325.175259 
L 840.313588 325.175259 
L 840.754114 324.412245 
L 840.313588 323.649231 
"/>
   </g>
   <g id="Quiver_107">
    <path clip-path="url(#pb541e72a5b)" d="M 840.454244 323.531192 
L 839.69123 323.971719 
L 839.69123 324.852771 
L 840.454244 325.293297 
L 841.217258 324.852771 
L 841.217258 323.971719 
L 840.454244 323.531192 
L 839.69123 323.971719 
"/>
   </g>
   <g id="Quiver_108">
    <path clip-path="url(#pb541e72a5b)" d="M 841.335297 324.021999 
L 840.894771 323.258985 
L 840.013718 323.258985 
L 839.573192 324.021999 
L 840.013718 324.785013 
L 840.894771 324.785013 
L 841.335297 324.021999 
L 840.894771 323.258985 
"/>
   </g>
   <g id="Quiver_109">
    <path clip-path="url(#pb541e72a5b)" d="M 840.735356 323.140946 
L 839.972342 323.581472 
L 839.972342 324.462525 
L 840.735356 324.903051 
L 841.49837 324.462525 
L 841.49837 323.581472 
L 840.735356 323.140946 
L 839.972342 323.581472 
"/>
   </g>
   <g id="Quiver_110">
    <path clip-path="url(#pb541e72a5b)" d="M 841.616409 323.829992 
L 841.175882 323.066978 
L 840.29483 323.066978 
L 839.854303 323.829992 
L 840.29483 324.593005 
L 841.175882 324.593005 
L 841.616409 323.829992 
L 841.175882 323.066978 
"/>
   </g>
   <g id="Quiver_111">
    <path clip-path="url(#pb541e72a5b)" d="M 840.873667 322.948939 
L 840.110653 323.389465 
L 840.110653 324.270518 
L 840.873667 324.711044 
L 841.636681 324.270518 
L 841.636681 323.389465 
L 840.873667 322.948939 
L 840.110653 323.389465 
"/>
   </g>
   <g id="Quiver_112">
    <path clip-path="url(#pb541e72a5b)" d="M 841.75472 323.734747 
L 841.314193 322.971733 
L 840.433141 322.971733 
L 839.992614 323.734747 
L 840.433141 324.497761 
L 841.314193 324.497761 
L 841.75472 323.734747 
L 841.314193 322.971733 
"/>
   </g>
   <g id="matplotlib.axis_5">
    <g id="xtick_15">
     <g id="line2d_33">
      <g>
       <use style="stroke:#000000;stroke-width:0.8;" x="801.852632" xlink:href="#m586f40c7dc" y="378"/>
      </g>
     </g>
     <g id="text_35">
      <!-- −0.75 -->
      <g transform="translate(786.529975 392.598437)scale(0.1 -0.1)">
       <use xlink:href="#DejaVuSans-2212"/>
       <use x="83.789062" xlink:href="#DejaVuSans-30"/>
       <use x="147.412109" xlink:href="#DejaVuSans-2e"/>
       <use x="179.199219" xlink:href="#DejaVuSans-37"/>
       <use x="242.822266" xlink:href="#DejaVuSans-35"/>
      </g>
     </g>
    </g>
    <g id="xtick_16">
     <g id="line2d_34">
      <g>
       <use style="stroke:#000000;stroke-width:0.8;" x="841.010526" xlink:href="#m586f40c7dc" y="378"/>
      </g>
     </g>
     <g id="text_36">
      <!-- −0.50 -->
      <g transform="translate(825.68787 392.598437)scale(0.1 -0.1)">
       <use xlink:href="#DejaVuSans-2212"/>
       <use x="83.789062" xlink:href="#DejaVuSans-30"/>
       <use x="147.412109" xlink:href="#DejaVuSans-2e"/>
       <use x="179.199219" xlink:href="#DejaVuSans-35"/>
       <use x="242.822266" xlink:href="#DejaVuSans-30"/>
      </g>
     </g>
    </g>
    <g id="xtick_17">
     <g id="line2d_35">
      <g>
       <use style="stroke:#000000;stroke-width:0.8;" x="880.168421" xlink:href="#m586f40c7dc" y="378"/>
      </g>
     </g>
     <g id="text_37">
      <!-- −0.25 -->
      <g transform="translate(864.845765 392.598437)scale(0.1 -0.1)">
       <use xlink:href="#DejaVuSans-2212"/>
       <use x="83.789062" xlink:href="#DejaVuSans-30"/>
       <use x="147.412109" xlink:href="#DejaVuSans-2e"/>
       <use x="179.199219" xlink:href="#DejaVuSans-32"/>
       <use x="242.822266" xlink:href="#DejaVuSans-35"/>
      </g>
     </g>
    </g>
    <g id="xtick_18">
     <g id="line2d_36">
      <g>
       <use style="stroke:#000000;stroke-width:0.8;" x="919.326316" xlink:href="#m586f40c7dc" y="378"/>
      </g>
     </g>
     <g id="text_38">
      <!-- 0.00 -->
      <g transform="translate(908.193503 392.598437)scale(0.1 -0.1)">
       <use xlink:href="#DejaVuSans-30"/>
       <use x="63.623047" xlink:href="#DejaVuSans-2e"/>
       <use x="95.410156" xlink:href="#DejaVuSans-30"/>
       <use x="159.033203" xlink:href="#DejaVuSans-30"/>
      </g>
     </g>
    </g>
    <g id="xtick_19">
     <g id="line2d_37">
      <g>
       <use style="stroke:#000000;stroke-width:0.8;" x="958.484211" xlink:href="#m586f40c7dc" y="378"/>
      </g>
     </g>
     <g id="text_39">
      <!-- 0.25 -->
      <g transform="translate(947.351398 392.598437)scale(0.1 -0.1)">
       <use xlink:href="#DejaVuSans-30"/>
       <use x="63.623047" xlink:href="#DejaVuSans-2e"/>
       <use x="95.410156" xlink:href="#DejaVuSans-32"/>
       <use x="159.033203" xlink:href="#DejaVuSans-35"/>
      </g>
     </g>
    </g>
    <g id="xtick_20">
     <g id="line2d_38">
      <g>
       <use style="stroke:#000000;stroke-width:0.8;" x="997.642105" xlink:href="#m586f40c7dc" y="378"/>
      </g>
     </g>
     <g id="text_40">
      <!-- 0.50 -->
      <g transform="translate(986.509293 392.598437)scale(0.1 -0.1)">
       <use xlink:href="#DejaVuSans-30"/>
       <use x="63.623047" xlink:href="#DejaVuSans-2e"/>
       <use x="95.410156" xlink:href="#DejaVuSans-35"/>
       <use x="159.033203" xlink:href="#DejaVuSans-30"/>
      </g>
     </g>
    </g>
    <g id="xtick_21">
     <g id="line2d_39">
      <g>
       <use style="stroke:#000000;stroke-width:0.8;" x="1036.8" xlink:href="#m586f40c7dc" y="378"/>
      </g>
     </g>
     <g id="text_41">
      <!-- 0.75 -->
      <g transform="translate(1025.667188 392.598437)scale(0.1 -0.1)">
       <use xlink:href="#DejaVuSans-30"/>
       <use x="63.623047" xlink:href="#DejaVuSans-2e"/>
       <use x="95.410156" xlink:href="#DejaVuSans-37"/>
       <use x="159.033203" xlink:href="#DejaVuSans-35"/>
      </g>
     </g>
    </g>
    <g id="text_42">
     <!-- $x$ -->
     <g transform="translate(916.326316 406.276563)scale(0.1 -0.1)">
      <use transform="translate(0 0.3125)" xlink:href="#DejaVuSans-Oblique-78"/>
     </g>
    </g>
   </g>
   <g id="matplotlib.axis_6">
    <g id="ytick_15">
     <g id="line2d_40">
      <g>
       <use style="stroke:#000000;stroke-width:0.8;" x="801.852632" xlink:href="#mc4ab1a0497" y="345.384"/>
      </g>
     </g>
     <g id="text_43">
      <!-- −0.6 -->
      <g transform="translate(770.569819 349.183219)scale(0.1 -0.1)">
       <use xlink:href="#DejaVuSans-2212"/>
       <use x="83.789062" xlink:href="#DejaVuSans-30"/>
       <use x="147.412109" xlink:href="#DejaVuSans-2e"/>
       <use x="179.199219" xlink:href="#DejaVuSans-36"/>
      </g>
     </g>
    </g>
    <g id="ytick_16">
     <g id="line2d_41">
      <g>
       <use style="stroke:#000000;stroke-width:0.8;" x="801.852632" xlink:href="#mc4ab1a0497" y="301.896"/>
      </g>
     </g>
     <g id="text_44">
      <!-- −0.4 -->
      <g transform="translate(770.569819 305.695219)scale(0.1 -0.1)">
       <use xlink:href="#DejaVuSans-2212"/>
       <use x="83.789062" xlink:href="#DejaVuSans-30"/>
       <use x="147.412109" xlink:href="#DejaVuSans-2e"/>
       <use x="179.199219" xlink:href="#DejaVuSans-34"/>
      </g>
     </g>
    </g>
    <g id="ytick_17">
     <g id="line2d_42">
      <g>
       <use style="stroke:#000000;stroke-width:0.8;" x="801.852632" xlink:href="#mc4ab1a0497" y="258.408"/>
      </g>
     </g>
     <g id="text_45">
      <!-- −0.2 -->
      <g transform="translate(770.569819 262.207219)scale(0.1 -0.1)">
       <use xlink:href="#DejaVuSans-2212"/>
       <use x="83.789062" xlink:href="#DejaVuSans-30"/>
       <use x="147.412109" xlink:href="#DejaVuSans-2e"/>
       <use x="179.199219" xlink:href="#DejaVuSans-32"/>
      </g>
     </g>
    </g>
    <g id="ytick_18">
     <g id="line2d_43">
      <g>
       <use style="stroke:#000000;stroke-width:0.8;" x="801.852632" xlink:href="#mc4ab1a0497" y="214.92"/>
      </g>
     </g>
     <g id="text_46">
      <!-- 0.0 -->
      <g transform="translate(778.949507 218.719219)scale(0.1 -0.1)">
       <use xlink:href="#DejaVuSans-30"/>
       <use x="63.623047" xlink:href="#DejaVuSans-2e"/>
       <use x="95.410156" xlink:href="#DejaVuSans-30"/>
      </g>
     </g>
    </g>
    <g id="ytick_19">
     <g id="line2d_44">
      <g>
       <use style="stroke:#000000;stroke-width:0.8;" x="801.852632" xlink:href="#mc4ab1a0497" y="171.432"/>
      </g>
     </g>
     <g id="text_47">
      <!-- 0.2 -->
      <g transform="translate(778.949507 175.231219)scale(0.1 -0.1)">
       <use xlink:href="#DejaVuSans-30"/>
       <use x="63.623047" xlink:href="#DejaVuSans-2e"/>
       <use x="95.410156" xlink:href="#DejaVuSans-32"/>
      </g>
     </g>
    </g>
    <g id="ytick_20">
     <g id="line2d_45">
      <g>
       <use style="stroke:#000000;stroke-width:0.8;" x="801.852632" xlink:href="#mc4ab1a0497" y="127.944"/>
      </g>
     </g>
     <g id="text_48">
      <!-- 0.4 -->
      <g transform="translate(778.949507 131.743219)scale(0.1 -0.1)">
       <use xlink:href="#DejaVuSans-30"/>
       <use x="63.623047" xlink:href="#DejaVuSans-2e"/>
       <use x="95.410156" xlink:href="#DejaVuSans-34"/>
      </g>
     </g>
    </g>
    <g id="ytick_21">
     <g id="line2d_46">
      <g>
       <use style="stroke:#000000;stroke-width:0.8;" x="801.852632" xlink:href="#mc4ab1a0497" y="84.456"/>
      </g>
     </g>
     <g id="text_49">
      <!-- 0.6 -->
      <g transform="translate(778.949507 88.255219)scale(0.1 -0.1)">
       <use xlink:href="#DejaVuSans-30"/>
       <use x="63.623047" xlink:href="#DejaVuSans-2e"/>
       <use x="95.410156" xlink:href="#DejaVuSans-36"/>
      </g>
     </g>
    </g>
    <g id="text_50">
     <!-- $f(x, \mu)$ -->
     <g transform="translate(764.469819 229.32)rotate(-90)scale(0.1 -0.1)">
      <use transform="translate(0 0.015625)" xlink:href="#DejaVuSans-Oblique-66"/>
      <use transform="translate(35.205078 0.015625)" xlink:href="#DejaVuSans-28"/>
      <use transform="translate(74.21875 0.015625)" xlink:href="#DejaVuSans-Oblique-78"/>
      <use transform="translate(133.398438 0.015625)" xlink:href="#DejaVuSans-2c"/>
      <use transform="translate(184.667969 0.015625)" xlink:href="#DejaVuSans-Oblique-3bc"/>
      <use transform="translate(248.291016 0.015625)" xlink:href="#DejaVuSans-29"/>
     </g>
    </g>
   </g>
   <g id="line2d_47">
    <path clip-path="url(#pb541e72a5b)" d="M 801.852632 327.0375 
L 804.985263 328.746144 
L 808.117895 330.073832 
L 811.250526 331.031003 
L 814.383158 331.628093 
L 817.515789 331.87554 
L 820.648421 331.78378 
L 823.781053 331.363251 
L 826.913684 330.62439 
L 830.046316 329.577634 
L 833.178947 328.23342 
L 836.311579 326.602185 
L 839.444211 324.694367 
L 842.576842 322.520401 
L 845.709474 320.090727 
L 848.842105 317.41578 
L 851.974737 314.505998 
L 855.107368 311.371818 
L 859.806316 306.272632 
L 864.505263 300.72726 
L 869.204211 294.770926 
L 873.903158 288.438856 
L 878.602105 281.766275 
L 884.867368 272.400699 
L 891.132632 262.57589 
L 898.964211 249.776284 
L 908.362105 233.871418 
L 925.591579 204.061916 
L 936.555789 185.311413 
L 944.387368 172.322634 
L 950.652632 162.29952 
L 956.917895 152.693891 
L 961.616842 145.813872 
L 966.315789 139.25088 
L 971.014737 133.040141 
L 975.713684 127.216881 
L 980.412632 121.816323 
L 985.111579 116.873695 
L 988.244211 113.850409 
L 991.376842 111.05674 
L 994.509474 108.503124 
L 997.642105 106.2 
L 1000.774737 104.157804 
L 1003.907368 102.386972 
L 1007.04 100.897943 
L 1010.172632 99.701153 
L 1013.305263 98.80704 
L 1016.437895 98.22604 
L 1019.570526 97.968591 
L 1022.703158 98.04513 
L 1025.835789 98.466094 
L 1028.968421 99.24192 
L 1032.101053 100.383045 
L 1035.233684 101.899907 
L 1036.8 102.8025 
L 1036.8 102.8025 
" style="fill:none;stroke:#000000;stroke-linecap:square;stroke-width:1.5;"/>
   </g>
   <g id="line2d_48">
    <path clip-path="url(#pb541e72a5b)" d="M 801.852632 378 
L 1036.8 51.84 
L 1036.8 51.84 
" style="fill:none;stroke:#000000;stroke-linecap:square;stroke-width:1.5;"/>
   </g>
   <g id="patch_13">
    <path d="M 801.852632 378 
L 801.852632 51.84 
" style="fill:none;stroke:#000000;stroke-linecap:square;stroke-linejoin:miter;stroke-width:0.8;"/>
   </g>
   <g id="patch_14">
    <path d="M 1036.8 378 
L 1036.8 51.84 
" style="fill:none;stroke:#000000;stroke-linecap:square;stroke-linejoin:miter;stroke-width:0.8;"/>
   </g>
   <g id="patch_15">
    <path d="M 801.852632 378 
L 1036.8 378 
" style="fill:none;stroke:#000000;stroke-linecap:square;stroke-linejoin:miter;stroke-width:0.8;"/>
   </g>
   <g id="patch_16">
    <path d="M 801.852632 51.84 
L 1036.8 51.84 
" style="fill:none;stroke:#000000;stroke-linecap:square;stroke-linejoin:miter;stroke-width:0.8;"/>
   </g>
   <g id="text_51">
    <!-- $\mu = 0.25$ -->
    <g transform="translate(841.010526 84.456)scale(0.1 -0.1)">
     <use transform="translate(0 0.78125)" xlink:href="#DejaVuSans-Oblique-3bc"/>
     <use transform="translate(83.105469 0.78125)" xlink:href="#DejaVuSans-3d"/>
     <use transform="translate(186.376953 0.78125)" xlink:href="#DejaVuSans-30"/>
     <use transform="translate(250 0.78125)" xlink:href="#DejaVuSans-2e"/>
     <use transform="translate(276.287109 0.78125)" xlink:href="#DejaVuSans-32"/>
     <use transform="translate(339.910156 0.78125)" xlink:href="#DejaVuSans-35"/>
    </g>
   </g>
  </g>
 </g>
 <defs>
  <clipPath id="p7a5de51c91">
   <rect height="326.16" width="234.947368" x="144" y="51.84"/>
  </clipPath>
  <clipPath id="p1d7e2dc44a">
   <rect height="326.16" width="234.947368" x="472.926316" y="51.84"/>
  </clipPath>
  <clipPath id="pb541e72a5b">
   <rect height="326.16" width="234.947368" x="801.852632" y="51.84"/>
  </clipPath>
 </defs>
</svg>
